<?xml version="1.0" encoding="utf-8"?>
<!-- Generator: Adobe Illustrator 27.5.0, SVG Export Plug-In . SVG Version: 6.00 Build 0)  -->
<svg version="1.1" id="Layer_1" xmlns="http://www.w3.org/2000/svg" xmlns:xlink="http://www.w3.org/1999/xlink" x="0px" y="0px"
	 viewBox="193 45 90 45" style="enable-background:new 0 0 273.951 284.104;" xml:space="preserve">
     <g xmlns="http://www.w3.org/2000/svg">
			
				<radialGradient id="SVGID_00000051360726852479493720000012206909991499783822_" cx="339.031" cy="143.9863" r="53.5865" gradientTransform="matrix(0.999 0.0447 -0.0447 0.999 -89.0533 -109.1204)" gradientUnits="userSpaceOnUse">
				<stop offset="0.206" style="stop-color:#396802"/>
				<stop offset="1" style="stop-color:#021600"/>
			</radialGradient>
			<path style="fill:url(#SVGID_00000051360726852479493720000012206909991499783822_);" d="M280.064,79.61     c-0.285-0.147-0.549-0.279-0.813-0.405c0.566-0.972,0.326-1.655-0.328-2.132c0.484-1.152-0.83-2.694-2.299-3.741     c0.301-0.109,0.607-0.224,0.926-0.351c0.578-0.232,0.557-1.122,0.063-1.417c-0.293-0.177-0.568-0.329-0.832-0.458     c0.75-0.878,0.635-2.023-0.334-2.634c0.334-0.338,0.647-0.714,0.928-1.166c0.326-0.522-0.014-1.3-0.67-1.3     c-0.324,0-0.635-0.004-0.938-0.011c0.35-0.67,0.543-1.391,0.592-2.315c0.031-0.537-0.502-1.013-1.037-0.869     c-0.762,0.208-1.389,0.505-1.916,0.899c-0.027-0.749-0.109-1.498-0.297-2.266c-0.139-0.576-0.738-0.804-1.254-0.577     c-1.348,0.593-2.039,1.679-2.318,2.95c-0.068-0.113-0.156-0.216-0.256-0.294c-0.484-0.379-0.988-0.624-1.506-0.768     c0.479-0.602,0.82-1.31,0.977-2.203c0.1-0.566-0.582-1.062-1.096-0.917c-0.193,0.057-0.377,0.111-0.553,0.163     c0.17-0.948,0.135-1.919-0.211-2.922c-0.207-0.599-0.764-0.899-1.365-0.629c-1.225,0.551-1.871,1.544-2.029,2.652     c-0.695-0.397-1.447-0.645-2.225-0.666c0.223-0.639,0.324-1.28,0.189-1.872c-0.225-0.993-0.855-1.154-1.568-0.96     c0.318-0.78,0.6-1.57,0.773-2.408c0.131-0.639-0.516-1.494-1.215-1.022c-0.357,0.239-0.695,0.476-1.023,0.718     c0.01-1.03-0.033-2.044-0.379-3.058c-0.229-0.666-0.879-0.852-1.443-0.451c-0.625,0.44-1.063,0.987-1.375,1.596     c-0.086-0.187-0.164-0.377-0.266-0.565c-0.223-0.414-0.762-0.595-1.184-0.367c-1.139,0.622-1.553,1.577-1.664,2.654     c-0.904-1.311-1.994-2.1-2.996-0.746c-1.1,1.489-0.188,3.89,1.199,5.688c-0.58,0.084-1.143,0.224-1.637,0.423     c-0.023-0.334-0.094-0.667-0.223-0.991c-0.604-1.507-2.133-1.326-3.502-0.758c0.594-1.663,1.24-3.291,1.184-5.115     c-0.023-0.795-0.848-1.166-1.473-0.687c-0.279,0.215-0.512,0.46-0.723,0.721c-0.174-0.666-0.455-1.314-0.916-1.938     c-0.283-0.379-0.99-0.4-1.303-0.057c-0.75,0.819-1.156,1.716-1.35,2.667c-0.898-1.269-1.986-2.135-2.967-0.958     c-1.111,1.331-0.857,2.913-0.031,4.365c-0.387,0.049-0.781,0.147-1.168,0.292c0.227-0.708,0.367-1.446,0.367-2.235     c-0.002-0.781-0.873-1.187-1.477-0.688c-0.387,0.322-0.725,0.682-1.029,1.066c-0.055-0.817-0.195-1.623-0.516-2.429     c-0.221-0.552-0.936-0.534-1.332-0.233c-1.059,0.807-1.432,1.913-1.412,3.078c-0.523-0.275-1.098-0.373-1.691-0.337     c0.818-0.954,1.514-1.98,1.785-3.263c0.129-0.608-0.322-1.305-1.02-1.114c-0.84,0.222-1.539,0.595-2.143,1.083     c0.014-0.62-0.006-1.24-0.105-1.876c-0.1-0.658-0.959-0.844-1.412-0.442c-0.338,0.298-0.625,0.617-0.875,0.955     c-0.246-0.947-0.664-1.808-1.568-2.456c-0.375-0.268-0.873-0.103-1.123,0.239c-0.695,0.958-1.027,2.1-1.064,3.27     c-0.102,0.009-0.199,0.037-0.279,0.092c-0.154,0.098-0.297,0.203-0.432,0.308c0.035-1.477-0.082-2.936-0.717-4.321     c-0.266-0.576-1.012-0.491-1.346-0.062c-0.484,0.62-0.791,1.276-0.959,1.954c-0.682-0.913-1.51-1.475-2.34-0.631     c-0.754,0.768-0.621,2.006-0.186,3.224c-0.713-0.178-1.375,0.054-1.787,1.09c-0.52,1.302-0.014,2.321,0.883,3.021     c-0.916,0.203-1.797,0.583-2.551,1.145c-0.408,0.301-0.402,1.009-0.061,1.351c0.369,0.368,0.771,0.66,1.205,0.896     c-1.273,0.169-2.477,0.801-3.195,1.75c-0.141-0.388-0.315-0.761-0.543-1.096c-0.348-0.502-0.871-0.593-1.367-0.24     c-0.297,0.215-0.535,0.472-0.736,0.747c-0.131-0.21-0.273-0.416-0.441-0.615c-0.318-0.388-0.879-0.342-1.24-0.055     c-0.225,0.175-0.412,0.365-0.572,0.565c-0.418-0.7-0.9-1.357-1.486-1.934c-0.369-0.369-1.051-0.384-1.338,0.11     c-0.834,1.441-0.598,3.058,0.193,4.413c-0.955-1.021-2.402-1.706-3.568-2.295c-0.666-0.336-1.492,0.125-1.328,0.932     c0.178,0.874,0.547,1.583,1.025,2.206c-0.824-0.034-1.648,0.113-2.467,0.552c-0.516,0.279-0.738,1.084-0.266,1.52     c0.828,0.758,1.713,1.151,2.66,1.34c-0.639,0.612-1.172,1.331-1.58,2.215c-0.277,0.602,0.313,1.22,0.879,1.268     c0.83,0.07,1.602-0.028,2.355-0.218c-0.035,0.132-0.07,0.264-0.102,0.402c-0.141,0.583,0.201,1.176,0.84,1.211     c0.756,0.044,1.514-0.112,2.23-0.397c-0.877,1.618-0.783,3.383,0.424,3.609c-0.498,1.177-0.547,2.417,0.504,3.498     c1.041,1.071,2.35,0.666,3.512-0.086c-0.367,1.733-0.43,3.526,1.104,4.522c1.652,1.068,3.203-1.302,4.262-3.297     c0.813,1.655,2.385,2.321,3.801,1.151c0.33,0.734,0.877,1.2,1.553,1.398c-0.477,1.243,0.209,2.322,1.592,2.574     c-0.771,0.982-1.088,2.083,0.043,3.048c1.184,1.01,3.109,0.064,4.703-0.964c0.482,1.114,2.959,0.741,4.861-0.103     c0.598,2.566,2.264,4.401,3.896,2.511c1.453,1.805,3.863,2.206,4.24-0.13c1.428,0.313,2.67-0.104,3.41-1.334     c-0.043,1.165,0.182,2.332,0.734,3.54c0.297,0.64,1.146,0.562,1.52,0.069c0.803-1.071,1.299-2.217,1.674-3.414     c0.488,1.103,1.277,1.91,2.525,1.603c1.227-0.304,1.803-1.133,2.047-2.152c0.922,1.065,2.135,1.882,3.588,2.422     c0.547,0.204,1.176-0.252,1.188-0.825c0.01-0.459-0.031-0.898-0.1-1.321c0.771,0.239,1.592,0.246,2.406-0.123     c0.533-0.239,0.863-0.537,1.053-0.866c0.695,0.169,1.408,0.066,2.035-0.506c0.77-0.706,0.926-1.55,0.77-2.416     c0.586,0.227,1.185,0.35,1.781,0.352c-0.363,0.949-0.412,1.936,0.291,2.763c0.473,0.556,1.064,0.563,1.664,0.304     c-0.094,0.922,0.135,1.73,1.09,2.037c1.309,0.425,2.328-0.651,3.053-1.915c0.402,0.646,1.031,1.104,1.961,1.151     c1.389,0.07,1.715-1.081,1.662-2.336c0.816,0.588,1.707,1.055,2.773,1.36c0.578,0.166,1.215-0.222,1.232-0.853     c0.018-0.691-0.057-1.299-0.205-1.864c0.451,0.016,0.934-0.043,1.451-0.175c0.434-0.11,0.854-0.611,0.684-1.087     c-0.152-0.422-0.316-0.801-0.496-1.151c0.814,0.073,1.654,0,2.516-0.271C280.431,80.992,280.798,79.991,280.064,79.61z"/>
			<path style="opacity:0.5;fill:#6B933E;" d="M252.624,58.817c-1.51-1.317-3.422-0.709-5.066-0.058     c1.205-1.882-1.52-1.247-2.404-0.899c0.365-2.488-2.107-1.032-3.168-0.175c0.098-0.611,2.527-5.987,0.223-5.744     c-1.877,0.2-0.363,5.688-1.148,6.634c-0.039-0.72,0.26-3.122-0.709-3.388c-1.775-0.488-1.754,2.608-1.547,3.48     c-0.391-0.569-4.652-3.088-4.779-1.568c-0.799-0.977-5.926-3.174-5.783-0.324c0.08,1.595,5.559,2.043,5.9,0.8     c0.217,0.467,0.494,0.894,0.832,1.28c-1.748-0.54-3.725,0.132-5.162,1.148c-2.84,2.011,1.406,1.882,2.711,1.833     c-0.682,0.405-6.695,1.164-5.088,3.592c0.533,0.807,2.004,0.089,2.635,0.592c0.811,0.645,3.008-0.869,3.707-1.265     c-2.027,4.967,2.398,1.934,4.119,0.132c0.264,0.932,1.022,2.281,2.215,1.75c0.1,1.3-0.445,2.49-0.158,3.85     c0.105,0.513,1.391,3.537,2.279,1.943c1.621-2.898-1.518-5.406-0.746-7.539c0.426,0.518,4.699,4.189,4.682,1.792     c0.512,0.602,1.596,2.739,2.67,2.334c1.533-0.574,0.623-3.164,0.006-4.004c1.752-0.329,1.963-2.106,1.273-3.494     C250.749,61.359,253.825,59.871,252.624,58.817C251.075,57.465,252.878,59.042,252.624,58.817z"/>
			<path style="opacity:0.5;fill:#6B933E;" d="M274.399,72.387c0.99-1.295-0.283-4.396-1.811-4.831     c1.615-1.61,2.492-4.76-0.893-2.887c0.029-0.795-0.945-3.907-2.168-2.444c-0.4,0.493-0.727,1.027-0.983,1.606     c-0.619,1.326-1.299,0.767-2.404,1.624c-0.307-1.75-1.402-2.038-2.588-0.476c0.203-2.659-3.029-7.257-3.346-2.397     c-1.045-1.841-5.773-3.675-3.752-0.246c-0.644-0.279-3.15-0.881-2.844,0.638c0.289,1.425,2.496,0.901,3.396,1.191     c0.361,0.064,0.594-0.077,0.695-0.427c0.518,0.399,1.096,0.644,1.74,0.732c0.871,0.092,0.932,0.248,1.24,1.274     c-1.012-0.515-2.17-0.9-3.318-0.821c-1.547,0.104-2.453-0.771-4.055-0.818c-4.141-0.124,1.883,3.145,2.867,3.486     c-1.963-0.107-3.688-0.087-5.42,1.033c-2.047,1.32,3.504,1.07,4.141,0.83c-0.553,1.087,1.084,1.034,1.557,1.019     c-0.193,0.479-2.08,1.13-2.586,1.891c-0.941,1.417,1.717,0.859,2.168,0.6c-0.148,1.702,3.305,0.302,3.887-0.017     c-1.049,5.311,2.664,1.171,3.58-1.194c0.328,0.39,0.736,0.654,1.223,0.795c-0.697,1.047-0.945,2.358-0.641,3.583     c0.059,0.243,1.094,2.715,1.838,1.248c0.463-0.913,0.545-1.905,0.49-2.909c-0.1-1.897-0.973-1.177,0.228-2.354     c-0.519,1.646,0.451,3.678,1.615,4.817c2.055,2.016,0.26-3.576,0.135-3.902c1.82,0.982,2.264,3.042,4.293,3.781     c2.767,1.008-0.994-4.594-1.092-4.029c1.221,0.519,1.121,1.216,2.248,1.856C275.45,75.549,274.874,72.936,274.399,72.387     C274.407,72.372,274.796,72.847,274.399,72.387z"/>
			<path style="opacity:0.5;fill:#6B933E;" d="M222.884,57.157c-0.004-0.011-0.012-0.019-0.016-0.031     C222.88,57.158,222.884,57.163,222.884,57.157z"/>
			<path style="opacity:0.5;fill:#6B933E;" d="M227.165,60.587c0.74-1.475-1.582-1.283-2.143-1.22     c0.793-1.323,0.553-2.476-1.098-1.974c2.041-1.455,2.631-7.784-0.635-4.101c-0.52,0.586-1.318,4.304,0.158,4.274     c-0.734,0.304-1.387,0.729-1.961,1.279c0.125-0.608,1.072-4.645-0.85-3.463c0.031-0.902-0.895-8.122-2.301-4.396     c-0.412,1.087-0.432,2.454,0.195,3.469c0.99,1.603,0.955,1.545,0.42,3.169c-0.133-0.264-1.404-3.603-2.15-2.281     c-0.752,1.323-0.461,2.871,0.408,4.052c-1.678-0.411-4.855,0.495-2.486,2.303c-1.758,0.292-2.955,0.62-4.695,0.648     c1.861-3.693-2.584-0.444-3.439,0.889c-0.051-0.745,0.043-3.371-0.947-3.629c-1.262-0.33-0.953,3.105-0.783,3.581     c-2.123-1.062-5.168-0.227-2.063,1.812c-3.482,1.114-2.33,2.876,0.795,2.662c-0.662,0.73-1.783,2.91,0.203,2.227     c-2.561,2.817-0.182,4.296,2.221,2.059c-0.078,3.371,2.057,1.699,2.369-0.68c0.561,3.093,4.266,3.193,2.621-0.609     c1.137,0.344,1.064-1.919,1.09-2.447c0.281,0.258,0.623,4.608,2.49,2.864c1.369-1.28-1.602-4.422,0.545-5.201     c-0.674,2.892,1.295,3.5,2.648,1.225c1.008,2.49,2.557,1.734,2.604-0.729c1.504,1.03,3.887,1.013,2.301-1.193     c1.73,0.639,4.777,0.249,2.086-1.55c0.787-0.064,2.963-1.418,0.984-1.56C226.372,61.716,226.843,61.225,227.165,60.587     C227.439,60.041,226.827,61.257,227.165,60.587z M204.019,71.671c0.459-0.899,1.094-1.477,1.982-1.9     C205.478,70.502,204.929,71.371,204.019,71.671C204.208,71.306,204.892,71.383,204.019,71.671z"/>
			<path style="opacity:0.5;fill:#6B933E;" d="M233.597,68.48c-1.846-1.087-4.096-0.777-5.914,0.198     c0.617-3.524-1.805-2.76-2.363,0.201c-1.533-1.899-3.111-0.631-1.361,0.92c-1.916-0.08-5.383,0.967-1.883,2.189     c-2.416,1.002-4.26,4.021-0.467,3.16c-0.711,0.91-2.918,5.247,0.15,3.6c0.818-0.439,1.406-1.191,1.857-1.981     c1.055,0.741,1.986-0.192,2.521-1.03c0.32,0.712,1.264,2.075,2.209,1.914c-3.521,2.228,0.93,2.854,3.006,2.056     c3.135-1.204-0.328-3.396-2.549-2.312c0.521-0.583,0.164-1.943,0.029-2.595c3.02,1.828,4.734-1.874,1.795-3.382     C231.169,71.246,235.351,69.513,233.597,68.48C231.732,67.383,234.044,68.744,233.597,68.48z"/>
			<path style="opacity:0.5;fill:#6B933E;" d="M219.374,71.871c-0.813-0.352-6.033-0.475-5.637,1.882     C214.14,76.125,221.136,72.592,219.374,71.871C219.364,71.868,219.655,71.984,219.374,71.871z"/>
			<path style="opacity:0.5;fill:#6B933E;" d="M218.634,75.527c0.004-1.176-4.338,0.438-3.104,2.312     C216.626,79.503,220.122,75.945,218.634,75.527C218.634,75.334,218.985,75.625,218.634,75.527z"/>
			<path style="opacity:0.5;fill:#6B933E;" d="M257.108,58.342c-0.053-1.372-2.852-5.118-2.695-1.996     c-1.045-0.249-1-0.746-2.195-0.737c-1.686,0.016-0.066,1.606,0.432,1.83C253.185,57.682,257.503,59.419,257.108,58.342     C257.108,58.335,257.194,58.575,257.108,58.342z"/>
			<path style="opacity:0.5;fill:#6B933E;" d="M246.368,69.139c-0.248-0.347-1.014-1.455-1.313-1.655     c-0.5-0.331-1.258,0.699-1.086,1.126c0.525,1.294,0.379,2.645,1.889,3.394C247.398,72.764,246.743,69.664,246.368,69.139     C246.122,68.792,246.905,69.894,246.368,69.139z"/>
			<path style="opacity:0.5;fill:#6B933E;" d="M237.644,68.442c-0.775-1.08-2.205,1.836-2.232,1.894     C233.933,73.885,239.251,70.687,237.644,68.442C237.524,68.279,238.47,69.596,237.644,68.442z"/>
			<path style="opacity:0.5;fill:#6B933E;" d="M259.47,78.011c-1.029-1.13-2.984-1.352-4.301-0.639     c1.228-1.504-2.15-1.796-2.785-1.739c1.762-2.814-0.852-2.117-2.311-0.521c-0.555-1.467-2.984,0.989-3.537,1.415     c-0.004-0.873-0.291-2.342-1.406-1.252c0.602-4.657-2.832-2.126-2.42,1.105c-0.982-1.025-0.916-2.576-2.41-3.334     c-2.184-1.105-0.268,3.368,0.033,3.813c-1.101-0.65-2.857-1.429-4.17-1.32c-1.49,0.126-2.391,2.201-1.111,3.189     c-1.838,0.465-6.195,3.638-1.645,3.317c-0.484,0.588-3.793,2.476-2.01,3.52c1.074,0.628,2.682-1.529,3.051-2.226     c0.949-1.781,0.023-1.228,2.105-2.002c-0.682,1.974,0.24,2.606,2.045,1.643c-0.156,3.168,2.281,1.004,3.223-0.322     c1.01,2.677,2.316,1.118,2.809-0.74c0.838,0.992,0.111,2.796,1.367,4c2.002,1.919,1.4-3.873,1.48-4.571     c0.838,0.805,1.982,4.504,3.547,4.215c0.932-0.174,0.887-1.265,0.676-1.936c-0.777-2.455-0.598,0.187-0.115-1.66     c0.783,0.554,2.096,2.515,3.389,2.06c2.072-0.728-1.582-3.714-2.93-3.499c0.576-0.246,1.236-0.875,0.66-1.55     c1.703-0.754,0.984-0.077,2.367-0.003C255.247,78.981,261.53,80.276,259.47,78.011C258.485,76.93,259.903,78.487,259.47,78.011z"/>
			<path style="opacity:0.5;fill:#6B933E;" d="M228.509,80.852c-0.115-0.827-4.223,0.569-4.275,1.724     C224.153,84.335,228.767,82.665,228.509,80.852C228.482,80.639,228.624,81.652,228.509,80.852z"/>
			<path style="opacity:0.5;fill:#6B933E;" d="M237.478,84.455c-0.594,0.73-2.502,1.237-1.979,2.818     C236.786,91.159,239.487,81.983,237.478,84.455z"/>
			<path style="opacity:0.5;fill:#6B933E;" d="M274.982,80.46c-0.492-0.463-1.074-0.744-1.744-0.839     c0.338-0.605-0.02-1.38-0.795-1.358c-1.412,0.04-2.27-0.086-3.584,0.899c-0.652-1.683-1.646-0.671-1.66,0.786     c-3.273-1.568-5.035,0.801-1.354,2.318c-0.578,0.657-1.852,2.6-0.85,3.423c1.316,1.084,3.684-1.424,4.301-2.354     c1.688,2.852,4.844,2.695,2.559-0.813C272.704,82.735,276.528,81.931,274.982,80.46C274.472,79.976,275.251,80.718,274.982,80.46     z"/>
			<path style="opacity:0.5;fill:#6B933E;" d="M263.435,82.478c-0.449,0.123-4.605,0.467-3.148,2.064     C262.149,86.585,264.995,82.057,263.435,82.478C263.347,82.502,264.044,82.313,263.435,82.478z"/>
			<path style="opacity:0.5;fill:#6B933E;" d="M277.657,77.391c-1.07-0.017-4.92,2.442-2.516,2.84     C276.716,80.494,279.651,77.429,277.657,77.391C276.897,77.38,278.444,77.408,277.657,77.391z"/>
			<path style="opacity:0.6;fill:#DAE120;" d="M207.983,64.94c1.98-1.242-1.055-5.527-1.805-2.18     C205.645,65.142,208.597,66.29,207.983,64.94C209.005,64.3,208.003,64.979,207.983,64.94z"/>
			<path style="opacity:0.6;fill:#DAE120;" d="M206.265,65.457c-0.504-0.66-0.121-0.082-0.77-0.793     c-1.031-0.846,0.205-0.159-0.287-1.003c-0.582-1.002,0.777,0.729-0.652-1.511c-0.734-1.149-1.566,0.648-0.885,1.512     c-1.924-0.697-2.357,1.134-0.736,2.103C203.384,66.034,206.874,66.256,206.265,65.457     C206.165,65.328,206.532,65.81,206.265,65.457z"/>
			<path style="opacity:0.6;fill:#DAE120;" d="M204.464,66.331c-0.779,0.079-3.799-0.017-3.279,1.368     C202.191,70.385,206.675,66.109,204.464,66.331C204.142,66.363,205.183,66.259,204.464,66.331z"/>
			<path style="opacity:0.6;fill:#DAE120;" d="M207.052,66.793c-1.063-0.608-3.877,2.729-2.359,3.555     C206.085,71.104,208.564,67.659,207.052,66.793C206.645,66.56,207.538,67.071,207.052,66.793z"/>
			<path style="opacity:0.6;fill:#DAE120;" d="M212.128,66.609c-0.123-0.242-1.693-1.409-1.801-0.528     c-0.072,0.589,0.787,0.545,1.012,0.927c-1.318,1.937-3.275-2.442-3.076,1.423c-0.063,0.443,0.463,3.186,1.248,1.42     c-0.252-1.176,0.102-1.624,1.068-1.338C211.353,68.393,212.671,67.684,212.128,66.609z"/>
			<path style="opacity:0.6;fill:#DAE120;" d="M212.013,63.49C212.007,63.493,211.999,63.499,212.013,63.49     C212.011,63.492,212.013,63.49,212.013,63.49z"/>
			<path style="opacity:0.6;fill:#DAE120;" d="M213.968,62.652c-1.385-1.931-2.445-0.07-3.563,0.275     c-0.74,0.232-1.494,0.786-1.809,1.515c-0.842-0.508-1.479,0.396-1.721,1.058c0.018-1.108-3.084-4.272-3.492-2.194     c-0.115,0.574,2.459,4.147,3.373,2.606c-0.398,1.847,6.127,2.993,4.678,0.58c-0.586-0.97-1.162-2.366,0.334-1.966     C213.077,64.876,215.245,64.436,213.968,62.652C213.3,61.723,214.286,63.099,213.968,62.652z"/>
			<path style="opacity:0.6;fill:#DAE120;" d="M201.071,69.172c-0.553,0.128-3.174,1.507-1.555,2.174     C201.284,72.074,201.999,68.955,201.071,69.172C200.778,69.238,201.573,69.054,201.071,69.172z"/>
			<path style="opacity:0.6;fill:#DAE120;" d="M219.96,55.409c-0.588-1.509-1.713,1.948-1.412,2.839     c0.301,0.898,0.705-0.133,0.932-0.152C220.749,58.004,220.2,56.029,219.96,55.409C219.778,54.943,220.241,56.138,219.96,55.409z"/>
			<path style="opacity:0.6;fill:#DAE120;" d="M222.726,63.129c2.133-0.247,2.902-2.568-0.045-1.792     c0.705-1.388,0.018-1.344,0.201-2.416c0.145-0.829,1.518-1.535,2.006-2.686c0.555-1.317-4.17,0.325-3.023,2.883     c-0.656,0.089-0.223-1.643-1.375-1.035c-1.572,0.827-0.688,1.857-1.379,2.959c-0.713-0.62-3.457-4.323-4.318-1.24     c-0.607,2.176,3.102,1.863,3.65,2.658c0.232-0.703-6.807,1.25-3.688,2.175c1.816,0.537,2.99-0.177,4.316-0.743     c-2.109,2.252,1.838,4.676,1.699,1.319C224.171,66.373,222.224,63.186,222.726,63.129     C223.419,63.048,222.601,63.145,222.726,63.129z"/>
			<path style="opacity:0.6;fill:#DAE120;" d="M226.431,58.879c-0.84-0.203-4.709,0.387-2.605,1.725     C225.435,61.625,227.814,59.21,226.431,58.879C225.483,58.652,226.853,58.98,226.431,58.879z"/>
			<path style="opacity:0.6;fill:#DAE120;" d="M216.355,66.354c-0.621-0.515-3.516-1.378-3.293,0.239     C213.331,68.537,217.48,67.291,216.355,66.354z"/>
			<path style="opacity:0.6;fill:#DAE120;" d="M206.876,70.188c-1.336,1.569,0.018,3.535,0.623,2.083     C207.618,71.984,207.968,68.909,206.876,70.188C206.407,70.74,207.276,69.716,206.876,70.188z"/>
			<path style="opacity:0.6;fill:#DAE120;" d="M201.853,71.16c-0.703-1.595-1.523,1.659-1.543,1.797     C200.081,74.292,202.808,73.335,201.853,71.16C201.681,70.772,202.148,71.833,201.853,71.16z"/>
			<path style="opacity:0.6;fill:#DAE120;" d="M233.79,69.891c-0.578,0.008-3.832,0.906-2.832,2.06     C232.567,73.805,235.56,69.865,233.79,69.891C233.401,69.896,234.413,69.882,233.79,69.891z"/>
			<path style="opacity:0.6;fill:#DAE120;" d="M230.001,68.262c-0.773,0.795-1.541,1.982-1.617,3.118     c-0.576-0.354-0.123-4.545-2.271-2.511c0.018-0.878-1.219-3.767-2.547-2.456c-1.016,1.007,0.588,2.643,0.609,3.595     c-2.104-0.692-5.381,0.798-2.158,1.696c2.514,0.702,2.971-1.667,3.535,0.579c-2.115-1.096-4.25,1.125-5.949,0.566     c-2.258-0.744-5.713,2.534-2.855,2.525c-0.182,0.16-2.902,3.02-0.865,2.558c1.928-0.436,1.73-1.928,2.529-2.818     c0.02,1.452,2.434,0.863,3.098,0.361c-0.361,0.273,0.801-0.886,0.725-0.898c0.787,0.129,1.881,0.024,2.537-0.476     c-0.059,0.266,1.447,2.131,1.717,2.137c1.105,0.031,0.961-1.489,1.037-2.155c2.762,2.377,1.885-0.559,2.178-1.943     C231.694,71.819,231.226,67.008,230.001,68.262C229.429,68.85,230.61,67.639,230.001,68.262z M218.708,74.392     c-0.517-0.326-0.334-0.5,0.549-0.528C219.073,74.038,218.892,74.213,218.708,74.392     C218.657,74.267,218.872,74.218,218.708,74.392z"/>
			<path style="opacity:0.6;fill:#DAE120;" d="M223.2,52.122c-0.867-0.998-2.49,1.925-1.359,2.738     C221.435,56.233,225.196,54.409,223.2,52.122C222.991,51.881,223.683,52.675,223.2,52.122z"/>
			<path style="opacity:0.6;fill:#DAE120;" d="M220.335,71.8c-0.396-1.234-4.229-3.837-4.826-1.718     C214.833,72.476,220.523,72.373,220.335,71.8C220.286,71.646,220.48,72.239,220.335,71.8z"/>
			<path style="opacity:0.6;fill:#DAE120;" d="M213.202,74.674c-0.588,0.135-4.299-0.218-3.205,1.648     C211.503,78.894,214.995,74.251,213.202,74.674C213.145,74.686,213.843,74.523,213.202,74.674z"/>
			<path style="opacity:0.6;fill:#DAE120;" d="M227.835,55.057c-1.248,0.024-3.426,2.68-1.734,3.018     C227.577,58.37,229.222,55.031,227.835,55.057C226.753,55.079,228.274,55.048,227.835,55.057z"/>
			<path style="opacity:0.6;fill:#DAE120;" d="M243.243,59.742c-1.338,0.195-2.641,1.311-2.984,2.625     c-0.621-1.257,0.883-2.877-0.326-4.387c-1.584-1.975-1.535,3.386-1.557,3.546c-0.795-0.731-1.123-1.916-2.172-2.876     c-2.713-2.485-3.803,0.651-1.332,2.314c-1.564,0.098-5.543,2.269-1.979,2.525c-1.584,0.508-3.156,3.13-0.283,2.384     c0.664-0.172,2.254-0.968,2.197-1.866c0.311-0.195,0.369-0.439,0.162-0.734c0.652-0.175,1.25-0.463,1.791-0.862     c-0.014-0.049-1.684,2.004-1.807,2.294c-0.975,2.332,1.57,1.773,2.527,0.511c-0.17,0.889,0.314,3.478,1.846,2.824     c1.039-0.445,1.338-2.528,1.367-3.469c0.566,0.086,0.215,1.351,1.512,1.427c2.514,0.15,1.158-1.648-0.148-2.204     C242.476,63.407,245.845,59.366,243.243,59.742C241.95,59.929,243.857,59.654,243.243,59.742z"/>
			<path style="opacity:0.6;fill:#DAE120;" d="M243.667,56.061c-0.514,0.181-4.346,2.995-1.898,3.275     C243.069,61.691,245.788,55.303,243.667,56.061C242.915,56.328,244.263,55.846,243.667,56.061z"/>
			<path style="opacity:0.6;fill:#DAE120;" d="M248.302,59.911c-0.951-0.141-3.988,1.704-2.287,2.127     C247.419,62.391,249.982,60.164,248.302,59.911C247.433,59.782,248.677,59.969,248.302,59.911z"/>
			<path style="opacity:0.6;fill:#DAE120;" d="M224.136,75.343c-0.961-1.411-2.967,2.563-3.076,3.235     C220.796,80.158,226.032,78.121,224.136,75.343z"/>
			<path style="opacity:0.6;fill:#DAE120;" d="M244.829,79.598c-0.148-0.577-0.01-1.164-0.152-1.815     c-0.428-1.942-2.461-4.516-2.49-0.947c-0.455-0.39-1.785-1.512-2.332-0.619c0.152,0.875-0.129,1.244-0.844,1.111     c-0.461,0.19-0.668,0.544-0.615,1.056c0.471,2.145,3.494,1.084,4.154,1.168C239.476,83.174,245.792,83.368,244.829,79.598     C244.794,79.469,245.177,80.958,244.829,79.598z"/>
			<path style="opacity:0.6;fill:#DAE120;" d="M238.769,79.067c-0.666-0.565-5.211-1.955-4.828,0.04     C234.435,81.681,239.937,80.062,238.769,79.067C238.544,78.874,238.983,79.248,238.769,79.067z"/>
			<path style="opacity:0.6;fill:#DAE120;" d="M237.882,81.458c-1.109,0.012-6.457,2.761-3.916,2.99     c1.264,0.114,2.895-0.666,3.773-1.57C237.808,82.809,238.677,81.452,237.882,81.458     C236.429,81.474,238.183,81.457,237.882,81.458z"/>
			<path style="opacity:0.6;fill:#DAE120;" d="M241.478,81.756c0.113-0.147,0.109-0.323-0.01-0.525     c-0.645-0.726-2.996,2.347-2.201,3.264C240.29,85.672,242.407,82.921,241.478,81.756     C241.491,81.738,241.839,82.21,241.478,81.756z"/>
			<path style="opacity:0.6;fill:#DAE120;" d="M232.636,80.255c-1.1-0.497-5.238,0.608-3.436,1.6     C230.415,82.523,234.03,80.887,232.636,80.255C231.46,79.721,233.046,80.442,232.636,80.255z"/>
			<path style="opacity:0.6;fill:#DAE120;" d="M236.597,75.691c-0.852-0.604-1.922-1.625-3.098-1.199     c-1.07,0.387-0.424,1.469,0.227,1.808C234.239,76.573,237.624,76.419,236.597,75.691     C235.739,75.083,236.997,75.976,236.597,75.691z"/>
			<path style="opacity:0.6;fill:#DAE120;" d="M246.954,79.5c-0.043-0.058-0.205-0.454-0.119-0.497     c1.113-0.599,0.414-2.95-0.008-3.774c-0.449-0.886-3.256,2.259-0.611,3.765c-0.949,0.89-1.221,3.31-0.145,4.163     C247.616,84.384,247.562,80.289,246.954,79.5C246.923,79.46,247.778,80.565,246.954,79.5z"/>
			<path style="opacity:0.6;fill:#DAE120;" d="M248.31,78.442C248.399,78.381,248.314,78.437,248.31,78.442     C248.325,78.432,248.317,78.436,248.31,78.442z"/>
			<path style="opacity:0.6;fill:#DAE120;" d="M252.124,75.444c0.875-2.295-6.729,1.028-3.447,2.833     c-1.916,0.393,0.686,3.334,1.613,3.589c1.107,0.301,1.166-0.99,0.934-1.642c-0.447-1.246-1.244-1.084-2.031-1.823     C250.499,78.352,251.712,76.525,252.124,75.444C252.329,74.904,251.806,76.278,252.124,75.444z"/>
			<path style="opacity:0.6;fill:#DAE120;" d="M248.345,78.417c0.002-0.001,0.006-0.001,0.008-0.004     C248.382,78.392,248.378,78.395,248.345,78.417z"/>
			<path style="opacity:0.6;fill:#DAE120;" d="M256.554,79.222c-0.34-0.795-1.023-1.376-1.75-1.807     c0.326-0.519,0.373-1.36-0.482-1.435c-0.828-0.072-3.26,0.41-3.174,1.641c-1.389,2.18,3.285,0.454,3.221,1.351     C254.255,80.556,257.114,80.519,256.554,79.222C256.214,78.427,256.771,79.729,256.554,79.222z"/>
			<path style="opacity:0.6;fill:#DAE120;" d="M247.905,63.677c-0.557-0.315-2.818-0.964-3.186,0.059     C243.769,66.387,249.888,64.792,247.905,63.677C247.37,63.374,248.36,63.932,247.905,63.677z"/>
			<path style="opacity:0.6;fill:#DAE120;" d="M258.079,58.852c-0.688-1.093-5.344-3.835-3.943-0.881     C254.886,59.553,258.579,59.646,258.079,58.852C257.337,57.672,258.327,59.246,258.079,58.852z"/>
			<path style="opacity:0.6;fill:#DAE120;" d="M260.067,63.84c-0.844-0.635-1.744-1.335-2.826-1.501     c-1.471-0.224-2.275,0.813-1.074,1.92C257.22,65.223,261.187,64.687,260.067,63.84C258.896,62.958,260.401,64.093,260.067,63.84z     "/>
			<path style="opacity:0.6;fill:#DAE120;" d="M264.198,71.106c-0.008-0.043-0.664-1.326-0.738-1.326     c-0.559-0.004-1.033-1.943-1.305-2.68c1.254,1.173,1.523-3.248-0.109-4.384c-1.978-1.379-1.344,4.608-0.713,5.464     c-0.59-0.273-1.336,0.095-1.945,0.006c2.479-1.925-1.012-2.92-2.953-2.271c-1.488,0.496-2.477,2.106-0.479,2.737     c-0.262,1.751,3.055,1.315,3.932,1.128c-3.418,2.075-0.836,4.582,2.16,2.235C261.685,75.899,264.7,74.271,264.198,71.106     C264.153,70.827,264.368,72.172,264.198,71.106z"/>
			<path style="opacity:0.6;fill:#DAE120;" d="M268.103,65.341c-0.973,0.375-1.887,1.129-2.428,2.017     c0.104-2.438-1.525-3.322-2.275-0.568c-0.432,1.59,1.363,4.147,1.264,1.951c1.184,0.247,0.453-0.458,0.955,0.488     c0.281,0.529,1.014,0.661,1.438,0.25C267.478,69.074,270.72,64.339,268.103,65.341C267.167,65.7,268.772,65.086,268.103,65.341z"/>
			<path style="opacity:0.6;fill:#DAE120;" d="M268.077,70.625c-0.738-0.126-1.176,1.751-1.043,2.216     C267.901,75.922,270.442,71.039,268.077,70.625C267.88,70.591,269.189,70.819,268.077,70.625z"/>
			<path style="opacity:0.6;fill:#DAE120;" d="M273.644,70.004c-0.605-0.25-1.266-1.335-1.459-1.2     c1.025-1.335-3.309-1.994-3.77,0.398c-1.543,2.086,2.805,0.502,3.412-0.035c-0.412,0.577-0.309,1.298,0.256,1.716     c-1.17-0.737-1.273,1.154-0.572,1.713c1.594,1.268,2.299-0.605,0.67-1.649C273.062,71.497,274.81,70.486,273.644,70.004     C273.388,69.9,274.067,70.179,273.644,70.004z"/>
			<path style="opacity:0.6;fill:#DAE120;" d="M259.433,57.789c1.451-1.988-2.121-3.793-1.869-1.957     C257.802,57.574,258.392,59.208,259.433,57.789C260.107,56.865,259.417,57.811,259.433,57.789z"/>
			<path style="opacity:0.6;fill:#DAE120;" d="M247.204,56.779c-0.725,0.258-2.756,1.618-1.803,2.646     C246.286,60.379,249.095,56.107,247.204,56.779C246.605,56.994,247.802,56.567,247.204,56.779z"/>
			<path style="opacity:0.6;fill:#DAE120;" d="M247.052,66.723c-0.264-0.011-2.988-2.253-2.713-0.408     c0.146,0.955,1.01,1.606,1.961,1.565C246.726,67.862,248.339,66.772,247.052,66.723C246.954,66.72,247.517,66.741,247.052,66.723     z"/>
			<path style="opacity:0.6;fill:#DAE120;" d="M269.577,80.903c-0.355-0.632-0.662-0.648-1.254-0.589     c-0.061-4.286-6.578-2.366-3.418-0.608c-2.371-0.322-3.119,1.372-0.488,1.128c0.861-0.078,2.459-1.149,2.994-0.259     c-1.451,0.635-3.346,3.377-0.344,2.471C267.487,82.919,269.925,81.526,269.577,80.903     C269.483,80.737,269.747,81.209,269.577,80.903z"/>
			<path style="opacity:0.6;fill:#DAE120;" d="M272.194,81.209c-1.094-1.874-0.965-0.117-0.504-2.226     c0.477-2.172-0.914-3.834-2.098-1.206c-0.697,1.547,0.133,2.585,0.549,3.923C270.806,83.822,273.403,83.276,272.194,81.209     C271.966,80.818,272.478,81.691,272.194,81.209z"/>
			<path style="opacity:0.6;fill:#DAE120;" d="M278.62,79.17c-1.156-1.411-1.854-0.129-2.895-0.177     c0.537-2.45-6.57,1.05-3.381,1.797c1.74,0.407,2.328-1.07,3.73-0.373C276.769,80.761,279.651,80.427,278.62,79.17     C277.991,78.404,278.835,79.432,278.62,79.17z"/>
			<path style="opacity:0.6;fill:#DAE120;" d="M257.224,55.355c-0.406-0.737-0.887-1.532-1.65-1.958     c-0.486-0.274-2.086-0.354-1.49,0.785C254.351,54.693,257.952,56.672,257.224,55.355     C256.679,54.371,257.503,55.861,257.224,55.355z"/>
			<path style="opacity:0.6;fill:#DAE120;" d="M238.544,61.358c0.01-0.812,0.195-3.686-1.131-3.759     c-1.318-0.073-1.449,2.775-1.219,3.549c-0.939-0.924-6.584-3.681-4.943-0.206c0.682,1.449,5,3.182,5.057,0.494     C236.97,62.813,238.517,63.81,238.544,61.358C238.558,60.274,238.538,61.857,238.544,61.358z"/>
			<path style="opacity:0.6;fill:#DAE120;" d="M235.204,63.39c-1.828-0.322-3.742,0.02-5.4,0.829     c-1.826,0.892,1.367,1.827,1.85,1.843C232.882,66.105,236.519,63.622,235.204,63.39C233.376,63.068,235.718,63.481,235.204,63.39     z"/>
			<path style="opacity:0.6;fill:#DAE120;" d="M243.419,58.603c-0.145-1.956-3.5,1.787-3.15,3.581     C240.841,65.126,243.523,59.954,243.419,58.603C243.372,57.949,243.532,60.073,243.419,58.603z"/>
			<path style="opacity:0.6;fill:#DAE120;" d="M233.724,57.094c-0.094-0.081-2.637-3.173-2.668-1.349     C231.019,58.191,234.347,57.646,233.724,57.094C233.593,56.979,234.101,57.43,233.724,57.094z"/>
			<path style="opacity:0.6;fill:#DAE120;" d="M227.04,58.477c-1.256,0.125-4.986,2.646-1.738,2.705     C227.39,61.218,230.327,58.15,227.04,58.477C226.251,58.555,227.612,58.42,227.04,58.477z"/>
			<path style="opacity:0.6;fill:#DAE120;" d="M223.14,55.475c-1.256,0.595-2.604,4.899-0.887,4.463     C224.079,59.475,224.659,54.751,223.14,55.475C221.962,56.033,223.634,55.238,223.14,55.475z"/>
			<path style="opacity:0.6;fill:#DAE120;" d="M218.194,57.082c-1.764-0.981-1.988,5.131,1.686,4.346     C222.327,60.902,219.216,57.648,218.194,57.082C217.823,56.875,219.534,57.826,218.194,57.082z"/>
			<path style="opacity:0.6;fill:#DAE120;" d="M217.357,62.11c-1.129,0.014-1.799-0.323-2.887-0.453     c-0.693-0.084-3.32,0.958-1.463,1.686c1.063,0.415,2.25,0.514,3.371,0.324C216.808,63.594,219.062,62.089,217.357,62.11     C216.794,62.118,218.145,62.1,217.357,62.11z"/>
			<path style="opacity:0.6;fill:#DAE120;" d="M224.212,62.885c-0.549-0.603-3.604-3.083-3.475-0.221     C220.837,64.845,225.714,64.524,224.212,62.885C224.097,62.756,224.56,63.261,224.212,62.885z"/>
			<path style="opacity:0.6;fill:#DAE120;" d="M211.55,62.108c-0.604-1.78-3.879,1.858-2.799,3.893     C209.558,67.527,212.101,63.742,211.55,62.108C211.353,61.531,211.95,63.293,211.55,62.108z"/>
			<path style="opacity:0.6;fill:#DAE120;" d="M207.485,66.446c-0.77-2.898-4.645-2.37-3.24-0.519     C204.624,66.426,207.673,67.159,207.485,66.446C207.157,65.218,207.616,66.944,207.485,66.446z"/>
			<path style="opacity:0.6;fill:#DAE120;" d="M204.829,67.576c-0.83-0.347-3.641-0.816-3.248,1.056     C202.089,71.066,206.052,68.086,204.829,67.576C204.372,67.386,205.28,67.763,204.829,67.576z"/>
			<path style="opacity:0.6;fill:#DAE120;" d="M255.321,59.066c-0.709-1.204-2.053-2.06-3.482-1.902     c-0.664,0.074-2.41,1.028-1.102,1.816C251.294,59.315,255.903,60.058,255.321,59.066z"/>
			<path style="opacity:0.6;fill:#DAE120;" d="M260.565,67.659c-0.492-0.878-1.271-1.64-2.23-1.983     c-0.574-0.206-3.846,0.037-2.43,1.342C256.64,67.693,260.909,68.267,260.565,67.659     C259.726,66.164,260.808,68.089,260.565,67.659z"/>
			<path style="opacity:0.6;fill:#DAE120;" d="M262.69,64.958c-0.934-1.61-2.063,2.103-1.088,3.44     C262.386,70.192,263.503,66.357,262.69,64.958C262.478,64.589,263.216,65.866,262.69,64.958z"/>
			<path style="opacity:0.6;fill:#DAE120;" d="M268.411,64.834c-1.055-1.83-3.313,2.496-3.461,3.248     c-0.076,0.39-0.281,1.845,0.686,1.629c0.559-0.124,0.842-2.011,1.113-2.461C265.718,69.473,270.235,68,268.411,64.834     C268.151,64.386,269.085,66.006,268.411,64.834z"/>
			<path style="opacity:0.6;fill:#DAE120;" d="M271.732,66.363c-2.002,0.493-3.582,2.482-1.838,3.856     C271.854,71.76,273.868,65.838,271.732,66.363C270.292,66.717,272.276,66.23,271.732,66.363z"/>
			<path style="opacity:0.6;fill:#DAE120;" d="M273.907,70.05c-0.414,0.037-2.984,0.672-2.211,1.778     C273.214,74,275.497,69.918,273.907,70.05C273.478,70.087,274.528,70,273.907,70.05z"/>
			<path style="opacity:0.6;fill:#DAE120;" d="M241.167,74.125c-2.436-0.703-0.334,3.63,0.41,4.205     C242.778,79.263,243.792,74.884,241.167,74.125C240.591,73.958,242.595,74.539,241.167,74.125z"/>
			<path style="opacity:0.6;fill:#DAE120;" d="M239.437,78.388c-0.67-0.273-5.492-1.901-4.248,0.636     C236.511,81.722,239.845,78.554,239.437,78.388C238.427,77.977,239.837,78.553,239.437,78.388z"/>
			<path style="opacity:0.6;fill:#DAE120;" d="M246.774,75.946c-1.031-1.618-2.334,1.313-1.854,2.349     C245.501,79.546,247.696,77.385,246.774,75.946z"/>
			<path style="opacity:0.6;fill:#DAE120;" d="M224.706,68.054c-1.449-1.613-2.268,4.267-0.094,3.928     C226.882,71.631,225.78,69.252,224.706,68.054C224.317,67.622,225.366,68.789,224.706,68.054z"/>
			<path style="opacity:0.6;fill:#DAE120;" d="M223.237,72.11c-1.42-1.569-6.518-1.959-3.891,0.166     C220.138,72.916,223.878,72.819,223.237,72.11C222.233,71.002,223.56,72.466,223.237,72.11z"/>
			<path style="opacity:0.6;fill:#DAE120;" d="M229.364,68.44c-0.846-1.582-2.922,2.372-1.529,3.081     C229.745,72.494,229.942,69.522,229.364,68.44C229.167,68.072,229.86,69.369,229.364,68.44z"/>
			<path style="opacity:0.6;fill:#DAE120;" d="M217.814,74.87c-0.672-1.863-2.916-1.513-3.65,0.095     C213.278,76.894,218.185,75.899,217.814,74.87C217.544,74.117,217.97,75.3,217.814,74.87z"/>
			<path style="opacity:0.6;fill:#DAE120;" d="M268.261,78.795c-0.369-0.919-1.135-1.688-2.008-2.139     c-0.619-0.319-3.08-0.11-1.789,1.03C264.948,78.115,268.761,80.044,268.261,78.795C267.792,77.621,268.419,79.193,268.261,78.795     z"/>
			<path style="opacity:0.6;fill:#DAE120;" d="M271.601,77.061c0.063-2.127-2.129-1.202-2.119,0.71     C269.501,80.596,271.542,79.079,271.601,77.061C271.608,76.765,271.583,77.679,271.601,77.061z"/>
			<path style="opacity:0.6;fill:#DAE120;" d="M264.812,79.22c-2.356-0.307-2.711,1.842-1.096,1.597     C264.169,80.746,266.845,79.487,264.812,79.22C264.241,79.148,265.728,79.342,264.812,79.22z"/>
			<path style="opacity:0.6;fill:#DAE120;" d="M277.474,77.686c-0.311,0.255-1.807,2.224-0.068,1.762     C279.071,79.008,278.552,76.795,277.474,77.686C277.247,77.873,278.212,77.076,277.474,77.686z"/>
		</g>
</svg>