<?xml version="1.0" encoding="UTF-8" standalone="no"?>
<!-- Generator: Adobe Illustrator 27.5.0, SVG Export Plug-In . SVG Version: 6.00 Build 0)  -->

<svg
   version="1.1"
   id="Layer_1"
   x="0px"
   y="0px"
   viewBox="0 0 800 800"
   style="enable-background:new 0 0 800 800;"
   xml:space="preserve"
   sodipodi:docname="chãoBororo.svg"
   inkscape:version="1.4.2 (ebf0e940d0, 2025-05-08)"
   xmlns:inkscape="http://www.inkscape.org/namespaces/inkscape"
   xmlns:sodipodi="http://sodipodi.sourceforge.net/DTD/sodipodi-0.dtd"
   xmlns="http://www.w3.org/2000/svg"
   xmlns:svg="http://www.w3.org/2000/svg"><defs
   id="defs1574" /><sodipodi:namedview
   id="namedview1574"
   pagecolor="#ffffff"
   bordercolor="#000000"
   borderopacity="0.25"
   inkscape:showpageshadow="2"
   inkscape:pageopacity="0.0"
   inkscape:pagecheckerboard="0"
   inkscape:deskcolor="#d1d1d1"
   inkscape:zoom="0.63993164"
   inkscape:cx="1021.2028"
   inkscape:cy="400.04273"
   inkscape:window-width="1906"
   inkscape:window-height="1026"
   inkscape:window-x="0"
   inkscape:window-y="0"
   inkscape:window-maximized="1"
   inkscape:current-layer="Layer_1" />
<path
   style="fill:#dbd674;fill-opacity:1;stroke-width:2.43468"
   d="m 168.00671,87.804038 c 6.0296,-2.571846 13.40321,-2.838037 15.23972,-10.985743 0.1394,-0.618706 1.5061,-1.533206 1.98018,-1.354279 6.72446,2.54421 8.33706,-4.311679 12.3841,-6.653999 2.45739,-1.423116 5.40373,-1.972224 7.91794,-3.314935 2.30121,-1.233939 5.44735,-2.525441 6.24399,-4.627556 1.91527,-5.049059 4.19134,-7.516197 10.01908,-6.412053 5.9182,1.118732 10.97093,-0.145132 14.17089,-6.725308 2.43287,-5.000937 13.5376,-5.563933 21.32345,-2.158579 1.31302,0.57493 2.42013,1.658017 3.71711,2.291465 4.23977,2.069118 7.99448,1.924743 9.92467,-3.037064 2.03795,-5.240726 5.61584,-5.712438 10.81047,-5.830002 4.23469,-0.09638 9.5018,-2.670807 12.22367,-5.976562 8.04345,-9.773069 18.79842,-11.458645 30.13685,-12.089226 5.41828,-0.300188 11.5792,3.20465 15.61313,-3.300994 0.23359,-0.374887 1.03283,-0.495232 1.57852,-0.513461 8.75835,-0.294716 17.51655,-0.848696 26.27819,-0.645609 2.85395,0.06677 5.8733,1.82281 8.52916,3.353613 3.71389,2.142548 7.28055,4.623319 10.68541,7.271449 6.71587,5.227566 14.00534,5.138844 21.34092,2.969684 6.3422,-1.876608 11.71386,-0.503574 18.06721,1.763425 8.16727,2.91539 17.39244,2.499717 26.16819,3.454577 0.82069,0.09036 1.72955,-0.580261 2.50639,-0.406817 8.87409,1.972905 17.37275,2.38155 25.28997,-3.243942 0.86729,-0.615406 4.61005,2.112335 6.43292,3.914229 3.49226,3.459638 6.32351,7.645667 9.93474,10.943389 1.29272,1.179896 4.04711,0.659004 6.13607,0.914307 0.15185,-2.020603 0.48071,-4.046066 0.39509,-6.063952 -0.0564,-1.357824 -0.6997,-2.705479 -1.08333,-4.05891 1.36767,0.761667 3.22517,1.183845 4.0096,2.349795 2.00213,2.973347 4.13542,3.057831 7.39078,2.668979 2.64921,-0.315952 6.19491,0.897811 8.3284,2.709402 7.96033,6.755872 14.53676,16.559259 23.48568,20.365742 7.98224,3.396008 14.28556,10.251347 22.8008,11.57504 4.60359,0.714841 7.45176,2.751873 10.87884,5.935416 5.52935,5.139738 12.24169,9.060323 20.21324,4.255105 1.58303,-0.953448 5.39252,-0.889602 6.30979,0.258051 5.45661,6.840464 16.04269,9.413748 16.54084,20.382565 5.8159,3.7919 11.54416,7.74893 17.50998,11.26529 1.55334,0.91689 4.67966,-0.32896 5.67217,0.76593 8.71273,9.61269 22.05011,13.12345 29.60866,24.23898 1.59623,2.3485 4.06637,4.08963 6.18067,6.05907 4.18583,3.90243 8.29868,7.89833 12.64252,11.60475 3.52199,3.00614 7.12968,6.03789 11.08127,8.34229 4.19529,2.44648 6.87584,5.03045 8.62751,10.19526 2.84498,8.39258 4.86424,16.70074 6.50236,25.40392 1.50082,7.9732 6.97607,15.17788 10.04539,22.97737 2.8661,7.2822 6.78249,12.66028 14.85993,13.77206 0.72946,0.10023 1.58662,1.6587 1.89218,2.68409 2.09107,7.00707 3.80476,14.13648 6.15801,21.05276 1.09875,3.22773 2.89727,6.50433 5.16906,9.00079 6.05166,6.64478 7.41145,14.77447 9.18296,23.11572 1.67509,7.88324 3.22032,16.72081 7.7778,22.85622 5.01981,6.75621 6.63724,13.85995 7.5718,21.17666 1.39393,10.9221 0.80314,22.04854 1.95852,33.01285 0.88242,8.38177 2.98113,16.68243 4.88236,24.94283 0.99928,4.34216 1.95803,8.20867 -0.15937,12.64774 -2.85325,5.97974 -5.57007,12.30208 -6.7373,18.8206 -1.16343,6.4941 -0.60891,13.42112 -0.29158,20.1442 0.21844,4.64206 1.96462,9.25734 -1.57332,13.42237 -0.95625,1.12703 -1.382,3.38417 -1.04932,4.91729 1.90298,8.78677 -2.41748,15.10291 -8.20626,19.7242 -7.24364,5.77998 -9.02043,12.91452 -7.94645,21.65772 0.32196,2.62706 0.64731,5.25507 0.90179,7.88632 0.36272,3.76393 -0.47234,6.51393 -4.00812,8.79172 -2.63543,1.69561 -4.67229,4.99917 -5.94537,8.05901 -1.61716,3.88776 -1.76162,8.23174 -5.80883,11.0442 -1.53949,1.07123 -2.28211,4.92317 -1.76779,7.15225 1.46829,6.36593 -1.7796,9.69208 -6.44555,11.7022 -7.48334,3.22527 -12.16537,8.72851 -16.16314,15.86027 -2.46343,4.39161 -3.8252,9.90828 -9.23047,12.73828 -2.34927,1.22932 -3.8946,5.95106 -4.03145,9.21115 -0.46482,11.13669 -7.48733,15.92074 -16.00304,20.08603 -2.49374,1.21929 -5.85766,4.56487 -5.66184,6.71558 0.64524,7.09512 -4.88077,10.25811 -7.51779,15.1105 -2.27132,4.17806 -5.80181,7.64461 -8.96292,11.25241 -3.57112,4.0734 -5.10563,9.64569 -12.08095,10.99828 -5.13784,0.99522 -6.9356,7.70811 -8.46818,13.22095 -2.74674,9.8621 -2.93327,9.67936 -13.07831,9.37567 -7.70544,-0.22948 -11.47848,6.37849 -16.5256,10.57526 -2.34849,1.95451 -3.48681,5.38055 -5.72778,7.5366 -1.68341,1.61716 -4.45547,3.50313 -6.38206,3.11389 -5.73969,-1.15793 -7.64042,1.87996 -7.63319,6.53913 0.0106,5.77942 -2.28151,6.29295 -6.96562,4.67926 -5.85926,-2.01707 -10.4852,0.1035 -12.03109,6.16623 -1.44937,5.69303 -5.03523,7.03676 -9.61325,5.71157 -11.06914,-3.20301 -20.67924,-0.37576 -30.45931,4.62093 -6.49871,3.31741 -13.28117,5.50412 -18.49127,11.30846 -1.89407,2.11085 -6.93091,2.61308 -10.11377,1.83441 -7.42838,-1.81801 -14.05068,-1.42363 -20.6501,2.40812 -4.15134,2.4115 -8.71032,4.17315 -13.23214,5.83315 -4.02996,1.47785 -7.97543,2.08651 -12.28332,-0.70367 -3.1872,-2.06572 -6.47198,-1.54448 -7.76489,3.3311 -1.87963,7.09564 -8.69026,11.64744 -16.42184,10.70593 -11.20538,-1.36352 -22.3999,-1.97641 -32.3276,-9.86787 -3.6444,-2.89842 -11.18952,-3.31388 -15.73222,-1.61019 -7.41705,2.78038 -12.62282,-0.55903 -18.32362,-3.69042 -2.92481,-1.60674 -5.45517,-3.45068 -8.29177,-0.0802 -0.56025,0.66594 -2.4004,0.99117 -3.15954,0.55149 -6.5977,-3.83183 -15.18453,1.4194 -21.08285,-5.43573 -0.32714,-0.38091 -1.18756,-0.68707 -1.60082,-0.52399 -10.98447,4.33497 -23.73996,-1.96531 -34.46504,6.36847 -7.3167,5.68358 -11.26204,3.16955 -15.30187,-6.14644 -0.65778,-1.51884 -1.93435,-3.6669 -3.16317,-3.88913 -7.12792,-1.28388 -14.32359,-2.5271 -21.5076,-2.82774 -3.17542,-0.13512 -5.6122,0.71568 -6.12656,-3.6537 -0.54059,-4.59024 -3.005,-7.70437 -7.5765,-8.57262 -3.64823,-0.69188 -4.37508,-3.06515 -4.35437,-6.37982 0.029,-4.57168 -2.16164,-6.54365 -6.82548,-7.36687 -3.31846,-0.58598 -7.33905,-2.85197 -9.24441,-5.64088 -9.94483,-14.54631 -24.02992,-21.39066 -40.08879,-25.04497 -4.50066,-1.02469 -7.5767,-2.91895 -8.17728,-8.4939 -0.67159,-6.22751 -5.25171,-10.48172 -10.29975,-13.27481 -4.63374,-2.56052 -7.99595,-5.76921 -9.96199,-10.66982 -2.83791,-7.07909 -8.1091,-11.24992 -14.91749,-14.00189 -6.19523,-2.50492 -9.73489,-6.96696 -11.6444,-14.11805 -2.38851,-8.94074 -6.68128,-17.33917 -14.17602,-23.72154 -7.07346,-6.02227 -14.08722,-12.36003 -19.93948,-19.56815 -3.08948,-3.8072 -3.62118,-9.77486 -5.35906,-14.74865 -0.96745,-2.76807 -1.725105,-5.67804 -3.120352,-8.21686 -5.970717,-10.84989 -12.339421,-21.48048 -18.149832,-32.41592 -2.31717,-4.36214 -3.562665,-9.30555 -5.311197,-13.97802 -1.852073,-4.95113 -3.604439,-9.94267 -5.622714,-14.82461 -1.244229,-3.00755 -3.426214,-5.70106 -4.292104,-8.77835 -3.246636,-11.5253 -6.227553,-23.12927 -9.099332,-34.75046 -1.332217,-5.38972 -2.551383,-10.86303 -3.138482,-16.35849 -0.455148,-4.26312 -0.100035,-8.6517 0.347913,-12.92078 0.643869,-6.13388 0.838021,-10.71836 -5.304051,-15.78171 -6.894318,-5.68502 -8.375416,-15.22542 -7.052492,-24.77661 1.017299,-7.34228 -0.334646,-15.13282 0.976875,-22.37594 3.004899,-16.59778 -2.709105,-34.1545 4.40574,-50.21776 3.091489,-6.979 6.169485,-13.9846 8.807849,-21.15935 1.74251,-4.74497 4.388851,-9.56315 1.17946,-15.09147 -0.553578,-0.96154 0.04514,-3.47791 0.953154,-4.29831 6.072866,-5.48802 7.422475,-12.56104 6.748729,-20.47845 -0.948685,-11.14366 4.095265,-20.26093 8.90073,-29.43084 0.902542,-1.72452 2.930283,-3.11197 3.154457,-4.86292 0.797728,-6.1741 1.026369,-12.43961 1.497471,-18.6656 0.0661,-0.86858 -0.01108,-2.15132 0.489017,-2.51823 6.793827,-4.97571 6.373015,-13.21359 8.528955,-20.29832 0.488359,-1.60554 1.252118,-3.68259 2.511055,-4.36602 10.577323,-5.72941 15.498111,-16.37355 21.726151,-25.91518 2.02086,-3.09726 4.04522,-6.3302 6.66948,-8.84041 6.93403,-6.63862 14.54193,-12.56194 21.18541,-19.47749 3.45254,-3.59358 6.09901,-8.4008 7.91205,-13.16544 2.35559,-6.19438 7.00884,-9.487164 11.94077,-12.854074 3.49883,-2.403418 6.85075,-5.032873 10.0865,-7.420835 z"
   id="path1574-6-92" /><path
   style="fill:#b47934;fill-opacity:1;stroke-width:2.2095"
   d="m 636.61985,145.27827 c 3.32304,5.42374 4.88412,12.27384 12.29812,13.36972 0.56298,0.0831 1.60441,1.28749 1.53436,1.74272 -0.99908,6.45747 5.25128,7.4425 8.01757,11.03618 1.68022,2.18216 2.6889,4.88587 4.30951,7.12703 1.48765,2.05094 3.17769,4.88475 5.14873,5.46826 4.73454,1.40325 7.28967,3.33766 7.38075,8.85089 0.0947,5.59861 2.10455,10.21094 8.40177,12.69558 4.78604,1.88912 7.27796,12.19322 5.72169,19.70463 -0.26302,1.26678 -1.0049,2.38011 -1.32167,3.63637 -1.03413,4.10657 -0.23154,7.59402 4.42984,9.01777 4.92329,1.50306 5.97854,4.80107 7.01749,9.63218 0.84741,3.93829 4.03518,8.65139 7.39972,10.93782 9.94624,6.75634 13.35094,16.64974 15.94377,27.16647 1.23802,5.0257 -0.69774,11.03064 5.68507,14.29792 0.368,0.18934 0.61674,0.92493 0.731,1.43199 1.8356,8.13813 3.89652,16.25653 5.29996,24.43535 0.4566,2.66416 -0.52545,5.60996 -1.37727,8.20009 -1.19279,3.62212 -2.70615,7.1326 -4.39418,10.50497 -3.33329,6.6521 -1.94164,13.4372 1.26682,20.10817 2.77504,5.76749 2.55012,10.87609 1.72512,16.96686 -1.06158,7.82983 0.96334,16.39378 1.71579,24.64249 0.0695,0.77147 0.81633,1.56765 0.80564,2.30455 -0.11483,8.41721 1.06252,16.3665 7.38048,23.31841 0.69138,0.76161 -1.00492,4.45482 -2.24261,6.28929 -2.37771,3.51508 -5.50609,6.4691 -7.7216,10.08282 -0.79257,1.29355 0.15694,3.82057 0.3117,5.78619 1.7839,-0.011 3.60396,0.14235 5.34267,-0.0898 1.1702,-0.15497 2.2257,-0.85621 3.33307,-1.31585 -0.4155,1.33179 -0.44753,3.09436 -1.31965,3.91328 -2.22368,2.08997 -1.91243,4.08399 -0.98736,7.08774 0.75238,2.44449 0.33663,5.83977 -0.85345,7.9644 -4.43742,7.92699 -11.77361,14.79468 -13.46885,23.42006 -1.51273,7.69371 -6.33543,14.08433 -5.95059,22.11817 0.20876,4.34328 -1.04843,7.15083 -3.19788,10.58432 -3.47091,5.53996 -5.66863,12.09008 -0.054,19.15454 1.11431,1.40295 1.74575,4.95719 0.91352,5.89848 -4.96245,5.60062 -5.29045,15.65827 -14.73585,16.95066 -2.24751,5.70517 -4.6544,11.34114 -6.63539,17.16518 -0.51693,1.51654 1.12984,4.33535 0.35703,5.34276 -6.78517,8.84376 -7.43198,21.53567 -15.73172,29.41752 -1.75371,1.66458 -2.82185,4.09756 -4.15263,6.21621 -2.63755,4.19474 -5.36954,8.32852 -7.80822,12.65568 -1.97813,3.50852 -3.96307,7.09886 -5.2537,10.95465 -1.3702,4.09363 -3.13308,6.78629 -7.30698,8.80836 -6.78268,3.28445 -13.64085,5.79323 -20.91116,7.9767 -6.66047,2.00041 -11.93618,7.64589 -18.16283,11.09459 -5.81359,3.22033 -9.78254,7.27544 -9.29241,14.88535 0.0445,0.68723 -1.15581,1.60354 -1.99206,1.96568 -5.71421,2.47741 -11.60279,4.61245 -17.19078,7.32731 -2.60775,1.26744 -5.13179,3.1906 -6.89229,5.49581 -4.68503,6.14025 -11.50701,8.02102 -18.43862,10.3015 -6.55087,2.15598 -13.95474,4.26305 -18.46642,8.97269 -4.96798,5.18724 -10.85163,7.23065 -17.04353,8.65391 -9.24324,2.1235 -19.02203,2.41322 -28.34502,4.31763 -7.12717,1.45508 -13.96448,4.03731 -20.80245,6.43248 -3.59446,1.25894 -6.78271,2.44422 -11.02345,0.80657 -5.71275,-2.20692 -11.69869,-4.26085 -17.57575,-4.85618 -5.85514,-0.59362 -11.77683,0.44611 -17.56401,1.24943 -3.99597,0.55408 -7.69316,2.52952 -11.95182,-0.45238 -1.15218,-0.80584 -3.19108,-1.0321 -4.46382,-0.60637 -7.29523,2.43657 -13.56497,-1.11199 -18.62617,-6.15659 -6.3308,-6.31264 -12.85327,-7.42939 -20.26009,-5.76854 -2.22568,0.49836 -4.45154,0.99993 -6.693,1.43573 -3.20659,0.62217 -5.74776,0.0517 -8.36544,-3.0706 -1.94924,-2.32748 -5.18834,-3.97582 -8.07786,-4.93091 -3.67126,-1.21319 -7.47356,-1.01978 -10.64827,-4.5783 -1.20883,-1.35352 -4.69126,-1.75456 -6.53625,-1.10703 -5.26916,1.84874 -8.74629,-0.92624 -11.3351,-5.12186 -4.1532,-6.72888 -9.78151,-10.67571 -16.70207,-13.86203 -4.26187,-1.96361 -9.30308,-2.81584 -12.73794,-7.63839 -1.49232,-2.09605 -5.8756,-3.17933 -8.73429,-3.06067 -9.76498,0.40787 -15.19014,-5.77396 -20.34668,-13.39375 -1.50954,-2.23149 -5.02454,-5.11307 -6.85887,-4.7682 -6.05145,1.13694 -9.79754,-3.77295 -14.49128,-5.86354 -4.04159,-1.80076 -7.69172,-4.82844 -11.39802,-7.50131 -4.185,-3.01974 -9.30574,-4.02869 -11.73941,-10.42567 -1.79164,-4.71192 -7.95135,-5.88003 -13.02007,-6.89173 -9.06848,-1.8145 -8.94325,-2.0021 -10.50871,-11.47742 -1.19003,-7.19671 -7.61476,-10.2132 -12.17316,-14.59883 -2.12255,-2.04056 -5.3061,-2.84247 -7.58446,-4.76764 -1.70938,-1.44637 -3.84875,-3.88673 -3.8578,-5.71121 -0.0285,-5.43524 -3.01204,-6.97682 -7.06095,-6.61826 -5.0223,0.44576 -5.88194,-1.65056 -5.32383,-6.13673 0.69685,-5.61156 -1.98079,-9.76153 -7.5299,-10.74406 -5.21032,-0.92055 -7.02508,-4.16014 -6.69863,-8.52567 0.78831,-10.55528 -3.40242,-19.29577 -9.50969,-28.03084 -4.05574,-5.80452 -7.17974,-11.9588 -13.16501,-16.37492 -2.17652,-1.60537 -3.52139,-6.26039 -3.41846,-9.28476 0.24085,-7.05851 -1.29619,-13.19889 -5.81721,-19.05842 -2.84491,-3.68582 -5.19845,-7.80052 -7.4569,-11.8883 -2.01142,-3.64322 -3.25202,-7.27337 -1.60335,-11.49784 1.221,-3.12558 0.17553,-6.14672 -4.29598,-6.98322 -6.507191,-1.21548 -11.69226,-7.21746 -12.268023,-14.49226 -0.835347,-10.54331 -2.321277,-21.01984 2.748556,-30.86563 1.8624,-3.61447 0.862959,-10.67584 -1.437243,-14.77974 -3.754491,-6.70074 -1.790301,-11.80326 -0.09622,-17.35129 0.869301,-2.84647 2.015952,-5.34331 -1.425543,-7.73175 -0.679909,-0.47169 -1.29448,-2.16165 -1.049157,-2.90216 2.141281,-6.4366 -3.972117,-14.04067 0.923442,-20.05395 0.27211,-0.33359 0.383124,-1.15836 0.166838,-1.53108 -5.749228,-9.90719 -2.572557,-22.26758 -11.75118,-31.63114 -6.260184,-6.38801 -4.786193,-10.25381 2.58373,-14.72132 1.201713,-0.72755 2.838784,-2.07922 2.810433,-3.24086 -0.169291,-6.73823 -0.386145,-13.53651 -1.420281,-20.25275 -0.45517,-2.96882 -1.634189,-5.17499 2.071368,-5.98418 3.892817,-0.85031 6.155549,-3.38162 6.085936,-7.70656 -0.05647,-3.45141 1.87559,-4.30784 4.76078,-4.53883 3.979402,-0.31825 5.298623,-2.50818 5.173219,-6.91577 -0.08893,-3.13615 1.155785,-7.05335 3.236585,-9.03921 10.85181,-10.36429 14.26169,-24.00457 14.54251,-39.24301 0.0792,-4.27076 1.17115,-7.27982 5.90917,-8.26038 5.2925,-1.09599 8.16476,-5.68464 9.68251,-10.59895 1.39026,-4.51072 3.57327,-7.88567 7.47886,-10.08755 5.64212,-3.1787 8.31728,-8.40496 9.48183,-14.95633 1.06036,-5.9614 4.30093,-9.59634 10.17305,-11.91547 7.3415,-2.90055 13.86818,-7.53443 18.06487,-14.99942 3.95964,-7.04528 8.20427,-14.05876 13.41498,-20.05578 2.75249,-3.16603 7.84432,-4.11205 11.85467,-6.10686 2.23182,-1.11041 4.62484,-2.03608 6.58024,-3.52778 8.35515,-6.38236 16.44791,-13.11899 24.90634,-19.35845 3.37417,-2.488339 7.44689,-4.0221 11.19336,-6.004076 3.97005,-2.099494 7.99321,-4.109135 11.87315,-6.35826 2.39012,-1.38638 4.33811,-3.622775 6.85704,-4.661926 9.43354,-3.895258 18.98337,-7.548899 28.56784,-11.102143 4.44506,-1.648235 8.98319,-3.197465 13.65454,-4.159444 3.62386,-0.745995 7.50292,-0.746513 11.29482,-0.651501 5.44829,0.136729 9.46863,-0.02859 12.7626,-6.133631 3.69879,-6.852904 11.72519,-8.953274 20.26663,-8.441891 6.56613,0.393418 13.09468,-1.454501 19.62764,-0.779444 14.97039,1.546433 29.20209,-5.103189 44.44896,0.312955 6.62435,2.353426 13.2694,4.692289 19.98221,6.608744 4.43905,1.265264 9.10473,3.367101 13.33175,-0.04066 0.73606,-0.588383 3.03149,-0.220566 3.90841,0.563511 5.86588,5.243848 12.25786,5.967223 19.019,4.74163 9.51613,-1.725383 18.35137,2.285739 27.18938,6.0707 1.66188,0.710698 3.23368,2.495242 4.79619,2.571898 5.51102,0.277043 10.99889,0.017 16.4961,-0.01416 0.76701,-0.0038 1.86817,-0.172766 2.27731,0.265473 5.55053,5.954288 12.63587,4.940157 19.18341,6.413914 1.48378,0.333802 3.42707,0.888564 4.24822,2.009953 6.888,9.422554 17.02835,13.203628 26.44601,18.285965 3.05688,1.649018 6.23234,3.29105 8.88771,5.546603 7.02138,5.95934 13.54245,12.60054 20.75218,18.26827 3.74653,2.94547 8.40268,5.04825 12.87156,6.37775 5.80956,1.72701 9.51111,5.81394 13.32734,10.15492 2.72025,3.07846 5.6105,6.00298 8.26985,8.83752 z"
   id="path1574-6-23" /><path
   style="fill:#974704;fill-opacity:1;stroke-width:1.79023"
   d="m 347.87356,147.95015 c 5.43391,0.31308 10.997,2.36081 15.42003,-1.80253 0.33583,-0.31616 1.69212,-0.43694 1.97612,-0.19191 4.02579,3.4791 7.79742,-0.004 11.67623,-0.15018 2.35554,-0.0892 4.74483,0.47297 7.11225,0.44719 2.16874,-0.0265 4.9851,0.16609 6.36541,-0.81167 3.31674,-2.34792 5.93037,-3.09502 9.83306,-0.71644 3.96424,2.41403 8.18279,3.19183 13.02683,0.34209 3.68214,-2.16555 12.12112,0.82459 16.60963,5.11859 0.7567,0.72452 1.16987,1.68142 1.8927,2.435 2.3635,2.46247 5.19957,3.50009 8.49458,1.20707 3.47967,-2.42213 6.30778,-1.6266 10.20062,-0.14355 3.17365,1.20868 8.04362,1.29261 11.30273,0.19365 9.63261,-3.24995 18.23438,-1.01342 26.87191,2.00743 4.12717,1.44421 7.37439,5.31058 12.80831,2.75293 0.31397,-0.14704 0.95136,0.022 1.36252,0.1744 6.59973,2.44468 13.29679,4.7394 19.71187,7.47294 2.08937,0.89076 3.66635,2.80778 5.05867,4.48602 1.94628,2.34792 3.65635,4.84746 5.18365,7.39548 3.01088,5.02827 8.44493,7.15351 14.69507,8.0894 5.40421,0.80849 8.86794,3.20638 12.72299,6.41438 4.95526,4.12455 11.94631,6.63867 18.08927,9.81116 0.57408,0.2973 1.4995,0.18086 2.00986,0.51311 5.83318,3.79058 11.97615,6.56447 19.95633,5.6753 0.87387,-0.0969 2.62159,2.59802 3.29488,4.18431 1.28704,3.04339 1.8113,6.30948 3.24736,9.29476 0.51427,1.06831 2.75076,1.58951 4.20248,2.36088 0.87197,-1.12314 1.8769,-2.19626 2.57192,-3.38873 0.46865,-0.80202 0.49848,-1.77346 0.72295,-2.67067 0.72701,0.84883 1.94453,1.64759 2.08747,2.55606 0.36581,2.31726 1.91457,3.00307 4.47259,3.75021 2.08153,0.60832 4.25229,2.3689 5.15206,4.05354 3.35846,6.28365 4.54615,13.91643 9.7456,18.78968 4.63753,4.34724 6.73094,10.19364 12.54226,13.50165 3.14207,1.78795 4.48661,3.81635 5.82913,6.68062 2.16482,4.62322 5.66431,8.89464 13.37643,8.49603 1.53122,-0.0787 4.32963,1.0957 4.57787,2.03325 1.47168,5.585 8.34759,10.23394 4.59393,16.72577 2.88372,3.92933 5.64042,7.92799 8.73876,11.74276 0.80624,0.99403 3.59076,1.20706 3.91457,2.13656 2.84216,8.16036 11.4041,14.17293 12.82626,22.85774 0.29992,1.83471 1.47561,3.57914 2.30182,5.34933 1.63448,3.50653 3.17973,7.04534 5.00494,10.48571 1.47952,2.79002 3.0129,5.62044 5.07445,8.13293 2.18872,2.66741 3.2035,4.96205 2.56005,8.4718 -1.04664,5.70277 -2.67329,11.11016 -4.73079,16.63221 -1.88487,5.05889 -0.53629,10.86007 -1.19377,16.28685 -0.61363,5.06697 0.26658,9.3464 5.83318,12.40112 0.5028,0.27576 0.55207,1.43295 0.39306,2.11714 -1.08444,4.67646 -2.49444,9.31096 -3.35049,14.0132 -0.39914,2.1946 -0.29816,4.62642 0.44665,6.74841 1.98611,5.6495 -0.062,10.75679 -1.88473,16.10936 -1.72194,5.05891 -3.89878,10.63092 -2.82825,15.53974 1.17973,5.40584 -0.29196,9.99676 -2.3496,14.50695 -3.07243,6.73229 -7.69214,12.99013 -10.95717,19.67561 -2.4966,5.11052 -4.06157,10.5373 -5.75773,15.88184 -0.89169,2.80938 -1.63462,5.33158 -4.87186,7.2664 -4.36148,2.60606 -8.75065,5.45097 -12.0655,8.87201 -3.30284,3.40805 -5.4956,7.57941 -7.78743,11.56201 -1.58292,2.74966 -2.0239,5.94 -6.21059,7.29217 -1.13208,0.36623 -2.29588,1.54437 -2.62564,2.53028 -1.8927,5.64946 -7.46766,8.01196 -13.49346,8.95594 -7.5392,1.17962 -11.53719,4.77488 -14.02771,10.15162 -0.74888,1.61533 -1.49559,3.23221 -2.29603,4.8298 -1.14597,2.28493 -2.79828,3.62588 -6.27403,3.88734 -2.58986,0.19365 -5.34063,1.49586 -7.43391,2.88522 -2.65938,1.76537 -4.39915,4.23428 -8.45478,4.65224 -1.54322,0.1598 -3.5412,2.16559 -3.99798,3.6082 -1.30485,4.11972 -4.96134,5.07342 -9.17382,4.84265 -6.75658,-0.36929 -12.29388,1.41517 -17.93634,4.34567 -3.47575,1.80406 -6.55816,4.58765 -11.62655,4.61027 -2.20261,0.01 -5.12224,2.27853 -6.44896,4.12294 -4.53022,6.30138 -11.53126,6.9711 -19.40601,6.83716 -2.30587,-0.0396 -6.05564,0.89076 -6.71893,2.19297 -2.18871,4.29565 -7.47171,4.47477 -11.24927,6.49346 -3.25317,1.73792 -7.17179,2.68842 -10.86985,3.83089 -4.17683,1.2893 -7.40816,4.05349 -13.08449,2.75295 -4.18063,-0.95858 -8.03567,2.3866 -11.24321,5.11698 -5.7418,4.88296 -5.81131,4.7216 -13.21351,1.51682 -5.62261,-2.43344 -10.9017,0.26127 -16.21845,1.1812 -2.4746,0.42904 -4.60566,2.07037 -7.07636,2.64807 -1.85503,0.43253 -4.61767,0.69546 -5.89877,-0.1049 -3.81725,-2.38339 -6.36731,-1.19416 -8.11315,1.50232 -2.16481,3.34515 -4.05561,2.9579 -6.9195,0.62611 -3.58292,-2.91593 -7.80727,-3.07085 -11.23132,-0.0265 -3.21361,2.85943 -6.37541,2.5658 -9.26912,0.43253 -6.99711,-5.15733 -15.17977,-6.39182 -24.30377,-6.42249 -6.06171,-0.022 -11.90866,-0.78262 -17.95038,1.01827 -2.19668,0.65513 -6.11719,-0.55835 -8.18266,-1.95901 -4.82029,-3.26934 -9.8749,-5.01859 -16.20454,-4.77323 -3.98207,0.155 -8.0219,-0.18751 -11.99599,-0.57772 -3.54121,-0.34867 -6.69315,-1.17474 -8.8361,-4.07454 -1.58494,-2.14622 -4.21449,-2.82558 -7.00494,-0.39215 -4.05954,3.54206 -10.8164,4.14074 -16.19068,1.28774 -7.78945,-4.13427 -15.85299,-7.83121 -20.24221,-15.35898 -1.61071,-2.76428 -7.04465,-5.25739 -11.05064,-5.62856 -6.54023,-0.60678 -9.14198,-4.09228 -12.18867,-7.60528 -1.56306,-1.80246 -2.74471,-3.6243 -6.11315,-2.52219 -0.66535,0.21783 -2.15095,-0.14353 -2.54813,-0.62447 -3.44793,-4.18586 -11.78354,-3.71305 -13.57698,-9.43843 -0.0992,-0.31795 -0.62161,-0.75191 -0.98908,-0.781 -9.76761,-0.77295 -16.84998,-8.22491 -27.92841,-6.60797 -7.5571,1.10206 -9.53523,-1.52977 -9.02679,-8.1233 0.0835,-1.07473 -0.055,-2.69808 -0.88178,-3.19351 -4.79844,-2.87073 -9.66235,-5.73819 -14.87189,-8.05709 -2.30185,-1.02627 -4.42703,-1.26186 -3.16584,-3.94217 1.32477,-2.81589 0.66939,-5.35257 -2.39124,-7.21965 -2.44288,-1.48941 -2.08939,-3.07886 -0.82818,-4.9895 1.73976,-2.6351 0.85796,-4.42953 -2.28801,-6.29814 -2.23836,-1.32971 -4.36547,-3.84058 -4.7289,-6.02228 -1.90065,-11.38128 -9.76359,-19.54486 -20.28792,-26.45305 -2.94935,-1.93639 -4.51638,-3.95027 -2.86593,-7.3535 1.84309,-3.80181 0.0487,-7.6295 -2.64151,-10.75197 -2.47068,-2.86427 -3.75569,-5.72371 -3.37035,-9.1447 0.55816,-4.94109 -1.77955,-8.9269 -5.78946,-12.55121 -3.64847,-3.29836 -4.59386,-6.93558 -3.32079,-11.64111 1.59085,-5.88345 1.56701,-12.0219 -1.58687,-17.95054 -2.97712,-5.59462 -5.79142,-11.35385 -7.41805,-17.2696 -0.85798,-3.12411 0.99109,-6.73387 1.57296,-10.12905 0.32364,-1.8896 0.85603,-3.79861 0.77656,-5.68337 -0.34559,-8.0571 -1.06848,-16.1062 -1.26315,-24.1649 -0.0772,-3.21442 0.85805,-6.445 1.31877,-9.66911 0.48875,-3.41617 1.06656,-6.82593 1.40617,-10.2517 0.20859,-2.11073 -0.39564,-4.31985 0.11946,-6.35794 1.92651,-7.6343 4.07946,-15.23476 6.31973,-22.81258 1.03875,-3.51457 2.19268,-7.04373 3.82323,-10.39697 1.26512,-2.60119 3.17772,-5.03302 5.11418,-7.368 2.78251,-3.35488 4.64948,-5.94804 2.002,-10.71003 -2.97115,-5.34611 -0.48262,-11.30541 4.08742,-16.43369 3.51338,-3.94219 5.4399,-8.85101 9.13398,-12.64798 8.46474,-8.70102 10.83017,-20.55991 22.13902,-27.72466 4.91358,-3.11277 9.82715,-6.24496 14.47857,-9.60622 3.07448,-2.22366 6.84607,-4.21978 6.54615,-8.37499 -0.0487,-0.72134 1.34065,-1.99774 2.32174,-2.20105 6.56205,-1.36037 10.22042,-5.04761 12.69709,-9.8273 3.48559,-6.72747 10.64941,-10.49378 17.65633,-14.36176 1.31685,-0.72777 3.34069,-0.92467 4.16488,-1.87028 2.91162,-3.33219 5.43597,-6.88717 8.12511,-10.3469 0.37546,-0.48256 0.8004,-1.24739 1.30881,-1.31024 6.90365,-0.84884 9.68816,-5.73832 13.94834,-9.19159 0.96528,-0.78264 2.31181,-1.75572 3.50143,-1.77503 9.99007,-0.15499 17.63653,-4.84106 25.83713,-8.49923 2.66137,-1.18769 5.37633,-2.45282 8.2641,-3.12086 7.63253,-1.76861 15.49547,-2.92237 23.01685,-4.93787 3.90862,-1.04725 7.6762,-3.03698 10.81031,-5.25094 4.07345,-2.87878 8.75862,-3.39356 13.67812,-3.86798 3.4956,-0.34516 6.96729,-0.8649 10.26217,-1.27967 z"
   id="path1574-6-59" />
</svg>
