<?xml version="1.0" encoding="UTF-8" standalone="no"?>
<!-- Generator: Adobe Illustrator 27.5.0, SVG Export Plug-In . SVG Version: 6.00 Build 0)  -->

<svg
   version="1.1"
   id="Layer_1"
   x="0px"
   y="0px"
   viewBox="0 0 1365.9999 768"
   xml:space="preserve"
   sodipodi:docname="chãoBororoFloresta.svg"
   inkscape:version="1.4.2 (ebf0e940d0, 2025-05-08)"
   width="1366"
   height="768"
   xmlns:inkscape="http://www.inkscape.org/namespaces/inkscape"
   xmlns:sodipodi="http://sodipodi.sourceforge.net/DTD/sodipodi-0.dtd"
   xmlns="http://www.w3.org/2000/svg"
   xmlns:svg="http://www.w3.org/2000/svg"><defs
   id="defs1574" /><sodipodi:namedview
   id="namedview1574"
   pagecolor="#ffffff"
   bordercolor="#000000"
   borderopacity="0.25"
   inkscape:showpageshadow="2"
   inkscape:pageopacity="0.0"
   inkscape:pagecheckerboard="0"
   inkscape:deskcolor="#d1d1d1"
   inkscape:zoom="0.4525"
   inkscape:cx="458.56354"
   inkscape:cy="519.33702"
   inkscape:window-width="1906"
   inkscape:window-height="1026"
   inkscape:window-x="0"
   inkscape:window-y="0"
   inkscape:window-maximized="1"
   inkscape:current-layer="Layer_1" />
<path
   style="fill:#0b1f0b;fill-opacity:1;stroke-width:5.94817"
   d="m 998.80179,-476.76863 c 13.63151,9.19244 24.42861,24.07421 43.60391,17.56219 1.456,-0.49462 5.2222,1.16974 5.5165,2.37448 4.161,17.0955 20.3902,11.75389 30.796,17.14577 6.3205,3.27233 11.538,8.65895 17.7735,12.1502 5.7174,3.18918 12.7272,8.04943 18.1233,7.03559 12.9637,-2.43136 21.1618,-0.85337 27.0137,12.57058 5.9478,13.62909 15.5525,22.45925 33.4263,20.74338 13.5851,-1.3023 30.1763,20.90477 34.0566,41.27979 0.6529,3.43689 -0.016,7.09141 0.4945,10.56915 1.675,11.36677 7.1909,18.93348 19.9972,16.64323 13.5252,-2.42054 19.463,4.36737 26.9267,14.93989 6.0855,8.61809 18.6621,16.23357 29.1909,17.67123 31.1228,4.24329 49.5175,24.30901 66.5716,46.91296 8.1472,10.80317 9.5649,27.95033 28.4462,28.04987 1.0895,0.008 2.4465,1.50537 3.2425,2.60866 12.7809,17.70359 26.0905,35.07904 37.8604,53.41892 3.8326,5.9747 4.4491,14.42672 5.0195,21.84374 0.794,10.37422 0.693,20.87218 0.025,31.2479 -1.3249,20.470807 8.9931,35.403313 23.6193,47.800342 12.6479,10.716726 17.317,23.539367 21.5275,39.51855 5.4101,20.5426732 19.0871,39.056884 29.343,58.376386 0.9568,1.807969 3.5887,2.83581 4.3153,4.658549 8.3157,20.809685 19.3007,38.866706 41.7867,48.093823 2.4615,1.011819 2.1017,12.18561 0.9608,18.22622 -2.2013,11.58216 -6.8037,22.71856 -8.5093,34.34154 -0.6091,4.15997 4.2838,9.18617 6.6682,13.82048 4.333,-2.24169 8.9223,-4.12405 12.9199,-6.85222 2.6914,-1.83322 4.546,-4.86515 6.7737,-7.36815 0.348,3.78573 2.0699,8.15324 0.7822,11.24653 -3.2815,7.89175 -0.4872,12.40147 4.8331,18.62847 4.3285,5.06818 6.7833,13.92096 6.0545,20.61478 -2.7121,24.97176 -13.5659,50.94063 -8.8864,74.22343 4.1723,20.76842 -1.0469,42.44615 8.0942,61.69439 4.9435,10.40505 4.7488,18.85917 3.0203,29.9578 -2.7961,17.91085 -1.4598,36.72167 19.4285,47.09819 4.1466,2.06176 9.3139,10.00476 8.2482,13.34898 -6.3664,19.91133 3.1052,45.01358 -18.5785,59.91124 0.3523,16.79813 0.2459,33.62401 1.3686,50.38309 0.2899,4.36537 7.1789,9.24239 6.3254,12.67516 -7.4937,30.13695 3.8915,62.103 -8.2729,91.75818 -2.5714,6.26385 -2.6881,13.56364 -3.7656,20.41751 -2.14,13.57361 -4.5723,27.11467 -6.0927,40.76644 -1.2347,11.07017 -2.4029,22.34942 -1.6085,33.41896 0.8432,11.75202 -0.7006,20.5516 -8.8008,30.69757 -13.1648,16.48362 -27.3057,31.1564 -42.7823,45.54209 -14.1783,13.17922 -21.2617,33.58956 -32.9043,49.78647 -10.8703,15.1232 -16.3955,30.0065 -7.4307,48.08323 0.8097,1.63206 -1.1775,5.3719 -2.8443,7.29909 -11.3866,13.17587 -23.5474,25.72755 -34.3845,39.32964 -5.0567,6.34887 -9.24,14.20395 -11.173,22.04963 -5.1402,20.89173 -19.8345,33.97731 -34.387,48.18091 -13.7521,13.4253 -29.6321,27.7891 -35.8106,44.9533 -6.8022,18.9031 -19.0445,31.2237 -32.6712,42.4041 -20.3427,16.6874 -43.8628,29.5367 -64.6232,45.7853 -15.8716,12.4195 -29.8869,27.2467 -44.0944,41.6155 -7.4684,7.5528 -14.0227,14.4206 -26.0228,15.6637 -16.1669,1.672 -32.8426,4.0591 -47.7638,9.8924 -14.8658,5.8104 -28.2259,15.7137 -41.4999,24.8696 -9.1662,6.3205 -16.1532,15.7601 -29.5697,13.7247 -3.6291,-0.5485 -8.8257,1.4268 -11.4906,4.052 -15.2789,15.0379 -34.1721,14.1074 -51.6498,8.0034 -21.86441,-7.6416 -38.88977,-2.2874 -55.23257,10.9845 -4.91162,3.9862 -9.82043,7.9807 -14.83413,11.833 -7.17421,5.5079 -13.94534,7.2618 -23.50902,2.8445 -7.12414,-3.2954 -16.69583,-3.322 -24.70831,-2.0803 -10.18024,1.578 -19.24287,6.7725 -30.60845,1.9759 -4.32611,-1.8228 -13.21677,1.5151 -17.04914,5.395 -10.94468,11.0798 -22.24659,8.5823 -32.83575,1.4941 -16.98632,-11.3666 -34.72406,-14.0713 -54.83243,-13.3045 -12.38465,0.4687 -25.53258,4.6337 -38.82241,-2.9438 -5.77461,-3.2944 -17.55626,-0.5132 -24.39726,3.3266 -23.36539,13.1224 -42.89072,4.6779 -63.23019,-7.6308 -5.95512,-3.6053 -17.45824,-6.3176 -21.57352,-3.1939 -13.57681,10.3031 -27.71399,2.8975 -41.28008,3.5905 -11.68191,0.5952 -23.66329,-2.308 -35.41919,-4.2703 -13.27593,-2.2198 -26.77742,1.659 -39.23692,-11.027 -9.17505,-9.3455 -25.36945,-4.5678 -38.74705,-0.7601 -23.93858,6.8011 -23.82513,6.1849 -37.31366,-15.1371 -10.24724,-16.1935 -28.97456,-15.6253 -44.55476,-20.7352 -7.25308,-2.3757 -15.82518,-0.3931 -23.34001,-2.292 -5.64002,-1.4295 -13.34233,-4.766 -15.22743,-9.2345 -5.61961,-13.3103 -14.46018,-13.3919 -23.9549,-7.4857 -11.77613,7.3285 -16.01054,3.2484 -19.23243,-8.4596 -4.03317,-14.6434 -14.7923,-21.5093 -29.3102,-17.0336 -13.62939,4.2071 -21.35724,-1.4947 -25.02017,-12.6187 -8.85896,-26.8956 -27.9907,-43.1548 -51.78452,-57.0218 -15.80529,-9.2173 -29.69776,-20.4512 -48.78402,-23.8651 -6.94014,-1.24 -14.96907,-11.0005 -17.8068,-18.5541 -6.62135,-17.6302 -16.63507,-30.7992 -33.629276,-39.5746 -10.692506,-5.5187 -20.626147,-12.7004 -30.300729,-19.934 -8.61912,-6.4488 -15.347422,-13.8221 -15.646313,-26.24128 -0.217963,-9.18995 -5.849185,-15.31024 -17.593564,-11.81384 -17.08901,5.09278 -35.8458266,-3.20809 -44.676878,-20.35574 -12.801004,-24.85074 -27.118187,-48.72998 -24.82523,-79.19794 0.844766,-11.18659 -8.80014,-27.28424 -18.59301,-34.50568 -15.98633,-11.79231 -16.413232,-26.75899 -17.952864,-42.48426 -0.789583,-8.06817 -0.546724,-15.62207 -11.367196,-17.21475 -2.137564,-0.31421 -5.360072,-3.70087 -5.518786,-5.82358 -1.357972,-18.46208 -24.011714,-29.54445 -18.229524,-50.38592 0.32219,-1.15676 -0.24989,-3.31976 -1.15724,-3.96647 -24.11873,-17.18941 -29.00428,-51.48171 -60.91997,-63.07947 -21.76946,-7.91428 -22.12735,-19.23583 -8.74052,-39.35326 2.18384,-3.27803 4.79062,-8.62887 3.53514,-11.44604 -7.29319,-16.33462 -14.76357,-32.7577 -24.14059,-47.96483 -4.14019,-6.72458 -9.26452,-10.67804 -1.06621,-17.26449 8.61239,-6.91983 11.53815,-15.9438 6.95214,-26.4767 -3.66187,-8.40442 0.16883,-12.90547 6.95962,-17.05387 9.36655,-5.7209 10.34311,-12.73554 5.5368,-23.40216 -3.41935,-7.58982 -4.38783,-18.75313 -1.34809,-26.21201 15.84509,-38.91812 10.22047,-76.64253 -4.65666,-114.407 -4.16836,-10.58451 -4.58168,-19.32832 5.95611,-27.61707 11.77032,-9.26056 14.07982,-24.09242 12.75763,-38.04289 -1.2203,-12.80117 0.64986,-23.79764 7.91313,-34.05193 10.49493,-14.80827 11.67326,-30.96121 7.81932,-48.49274 -3.50518,-15.95358 0.67508,-28.9011 12.60801,-41.8843 14.91768,-16.23474 26.08095,-35.71394 28.67864,-59.252435 2.44893,-22.213681 5.62452,-44.70313 12.19084,-65.895835 3.4704,-11.190345 14.905097,-19.8335715 22.635034,-29.7094243 4.301526,-5.4967929 9.184247,-10.7400507 12.423224,-16.8298757 13.830899,-26.042078 26.660923,-52.628182 40.889257,-78.447571 5.676637,-10.297989 14.029118,-19.119319 21.1294811,-28.636219 7.52480888,-10.08292 15.2706926,-20.01116 22.4232909,-30.34959 4.405207,-6.37088 6.86562,-14.28005 11.939233,-19.95819 18.996936,-21.27389 38.523859,-42.09883 58.237684,-62.72028 9.142436,-9.56455 18.612706,-19.0015 29.007066,-27.16196 8.06391,-6.32987 17.51054,-11.14613 26.84244,-15.61964 13.40863,-6.42707 23.03102,-11.82321 24.81893,-30.90212 2.01012,-21.4176 19.413,-36.53769 40.73727,-45.8843 16.39309,-7.18439 30.40583,-19.82541 47.00575,-26.27714 38.03847,-14.78523 65.90833,-48.77793 108.57184,-54.4048 18.53637,-2.44412 37.10825,-4.94967 55.41382,-8.57652 12.10307,-2.40338 25.61234,-3.03403 32.42708,-16.64808 1.1916,-2.35846 7.15775,-4.30446 10.09411,-3.46781 19.64084,5.59441 35.94665,-0.56358 51.1614,-11.96534 21.41398,-16.04858 47.0276,-17.16675 72.41705,-18.84367 4.77308,-0.31781 10.42345,2.11289 14.30705,0.36154 13.70462,-6.16042 26.80435,-13.61096 40.16061,-20.51111 1.8639,-0.96183 4.37331,-2.74306 5.81727,-2.17488 19.59825,7.73018 35.81848,-3.5547 53.26954,-8.06338 3.95448,-1.0222 9.2538,-2.0722 12.39872,-0.33807 26.39725,14.58588 54.95451,11.28292 83.0805,12.07199 9.1287,0.25448 18.53912,0.34464 27.30937,2.58683 23.1856,5.91689 45.84905,14.12902 69.19543,19.09603 12.1322,2.58174 25.61928,1.96532 37.86049,-0.3174 15.91247,-2.97076 29.10079,2.46947 42.82786,8.39118 9.76861,4.18219 19.794,7.77534 29.1652,11.43413 z"
   id="path1574-6-8-2" /><path
   style="fill:#303a16;fill-opacity:1;stroke-width:3.2132"
   d="m 852.76802,-92.307113 c 7.36374,4.965748 13.1963,13.004872 23.55482,9.487083 0.78653,-0.267195 2.82103,0.631894 2.97997,1.282693 2.24779,9.234978 11.01479,6.349446 16.636,9.262133 3.41432,1.767711 6.23279,4.67756 9.60122,6.563528 3.08853,1.722795 6.87522,4.348299 9.79023,3.800622 7.00293,-1.313421 11.43159,-0.460992 14.5927,6.790617 3.21301,7.362426 8.40153,12.132471 18.05689,11.205558 7.33865,-0.7035 16.30123,11.292744 18.39734,22.299317 0.35271,1.856602 -0.009,3.830777 0.26712,5.709451 0.90484,6.1403176 3.88453,10.2278522 10.8025,8.990659 7.30632,-1.3075721 10.51389,2.3592523 14.54579,8.0705209 3.28736,4.6554842 10.0812,8.7693627 15.7689,9.5459861 16.8125,2.292224 26.7493,13.131707 35.9619,25.342347 4.4011,5.83586 5.167,15.098748 15.3666,15.152518 0.5886,0.0044 1.3216,0.813201 1.7517,1.409197 6.9042,9.563464 14.094,18.949669 20.4521,28.856863 2.0703,3.227525 2.4034,7.793303 2.7115,11.799976 0.429,5.604137 0.3744,11.275134 0.014,16.880084 -0.7158,11.05832 4.8581,19.12485 12.7592,25.82172 6.8323,5.78917 9.3546,12.71594 11.6291,21.34788 2.9224,11.09715 10.3108,21.09851 15.851,31.53489 0.5169,0.97667 1.9386,1.5319 2.3311,2.51654 4.4922,11.24138 10.4263,20.99577 22.5732,25.98026 1.3297,0.54658 1.1354,6.58264 0.519,9.84578 -1.1891,6.25668 -3.6754,12.27255 -4.5967,18.55128 -0.329,2.24721 2.3141,4.96237 3.6021,7.46582 2.3407,-1.21097 4.8199,-2.22782 6.9794,-3.70157 1.4538,-0.9903 2.4557,-2.62816 3.6591,-3.98027 0.188,2.04504 1.1182,4.40437 0.4225,6.07536 -1.7726,4.26312 -0.2631,6.69927 2.6109,10.0631 2.3383,2.73782 3.6644,7.52009 3.2706,11.13608 -1.4651,13.48973 -7.3282,27.5181 -4.8004,40.09544 2.2539,11.2191 -0.5655,22.92938 4.3725,33.32727 2.6704,5.6208 2.5653,10.18771 1.6316,16.18319 -1.5105,9.67542 -0.7886,19.83701 10.4952,25.4424 2.2401,1.11376 5.0314,5.40457 4.4557,7.21111 -3.4392,10.75609 1.6775,24.3163 -10.036,32.36402 0.1902,9.07433 0.1327,18.16366 0.7392,27.2169 0.1566,2.35817 3.8781,4.99273 3.417,6.84712 -4.048,16.27995 2.1022,33.548 -4.469,49.5677 -1.3891,3.38373 -1.4522,7.32707 -2.0342,11.02953 -1.156,7.33244 -2.4699,14.64732 -3.2913,22.02199 -0.667,5.9801 -1.298,12.07315 -0.8689,18.05291 0.4555,6.34842 -0.3784,11.10195 -4.7542,16.5828 -7.1116,8.90444 -14.7505,16.83066 -23.1109,24.6018 -7.6591,7.11941 -11.4856,18.14506 -17.7749,26.89461 -5.8722,8.16955 -8.8568,16.2095 -4.0141,25.97454 0.4374,0.88164 -0.636,2.90189 -1.5364,3.94296 -6.151,7.11759 -12.7204,13.89801 -18.5745,21.24585 -2.7316,3.42966 -4.9915,7.67296 -6.0357,11.91118 -2.7767,11.2857 -10.7146,18.35455 -18.5758,26.02728 -7.4289,7.25238 -16.0072,15.01169 -19.3449,24.28374 -3.6745,10.21146 -10.2878,16.86706 -17.6489,22.90667 -10.9892,9.01452 -23.6947,15.95572 -34.90945,24.73318 -8.57384,6.70906 -16.14486,14.71867 -23.81975,22.48066 -4.03447,4.08006 -7.57505,7.79004 -14.05753,8.46155 -8.73334,0.90323 -17.74153,2.19274 -25.80193,5.34388 -8.03052,3.13876 -15.24763,8.4885 -22.41823,13.43451 -4.95153,3.41434 -8.72595,8.5136 -15.97354,7.4141 -1.96042,-0.29633 -4.76764,0.77074 -6.2072,2.18888 -8.25365,8.12349 -18.45975,7.62082 -27.90115,4.32341 -11.81116,-4.12795 -21.00825,-1.23565 -29.83662,5.93384 -2.65325,2.15335 -5.30499,4.31114 -8.01339,6.39221 -3.8755,2.97533 -7.53326,3.92276 -12.69955,1.53654 -3.84846,-1.78013 -9.01908,-1.79451 -13.34742,-1.12379 -5.49936,0.85247 -10.39498,3.65858 -16.53465,1.06739 -2.33697,-0.9847 -7.13969,0.81848 -9.20994,2.9144 -5.91231,5.98532 -12.01759,4.63619 -17.73785,0.80713 -9.176,-6.14026 -18.75791,-7.60131 -29.62044,-7.1871 -6.69018,0.25321 -13.79268,2.50311 -20.97184,-1.59022 -3.11944,-1.77965 -9.48388,-0.27724 -13.17937,1.797 -12.62197,7.08874 -23.16955,2.52702 -34.15691,-4.12213 -3.21696,-1.94759 -9.43093,-3.41277 -11.65401,-1.72535 -7.33418,5.56574 -14.97107,1.56521 -22.29946,1.9396 -6.31057,0.32151 -12.78289,-1.24681 -19.13343,-2.30682 -7.17165,-1.19916 -14.46514,0.89619 -21.19576,-5.95679 -4.95635,-5.04846 -13.70455,-2.46754 -20.93112,-0.41063 -12.9316,3.67397 -12.87032,3.34111 -20.15681,-8.17705 -5.53556,-8.7477 -15.65204,-8.44075 -24.06846,-11.20113 -3.9181,-1.28335 -8.54874,-0.21234 -12.60824,-1.2381 -3.04675,-0.77225 -7.20753,-2.57462 -8.22586,-4.98849 -3.03571,-7.19021 -7.81137,-7.23432 -12.94042,-4.04376 -6.36146,3.95881 -8.64888,1.75477 -10.38934,-4.56987 -2.17872,-7.91036 -7.99079,-11.61932 -15.83335,-9.20158 -7.36259,2.27273 -11.53717,-0.80741 -13.51588,-6.81659 -4.7856,-14.52898 -15.12055,-23.31221 -27.97396,-30.80312 -8.538,-4.9792 -16.04271,-11.04775 -26.35309,-12.89191 -3.74907,-0.66985 -8.08628,-5.94248 -9.61923,-10.02291 -3.57685,-9.52382 -8.98624,-16.63772 -18.1665,-21.37821 -5.77609,-2.98118 -11.14224,-6.86075 -16.36843,-10.76832 -4.65605,-3.48361 -8.29067,-7.46668 -8.45213,-14.17551 -0.11775,-4.9644 -3.15973,-8.27058 -9.50403,-6.38183 -9.23147,2.75111 -19.36389,-1.73301 -24.13443,-10.99615 -6.91509,-13.42435 -14.64922,-26.3239 -13.41056,-42.78268 0.45633,-6.04298 -4.75383,-14.73893 -10.04394,-18.63994 -8.6358,-6.3702 -8.86641,-14.45519 -9.69812,-22.94997 -0.42654,-4.35842 -0.29535,-8.43903 -6.14055,-9.29939 -1.15471,-0.16973 -2.89551,-1.99921 -2.98125,-3.1459 -0.73357,-9.9732 -12.9711,-15.95989 -9.84757,-27.21843 0.17405,-0.62488 -0.13499,-1.79333 -0.62514,-2.14268 -13.02892,-9.28572 -15.6681,-27.81039 -32.90893,-34.07549 -11.75984,-4.27529 -11.95317,-10.39118 -4.72161,-21.25861 1.1797,-1.77079 2.58789,-4.66131 1.90967,-6.18314 -3.93978,-8.82395 -7.97527,-17.69568 -13.04073,-25.91056 -2.23652,-3.63262 -5.00469,-5.76828 -0.57597,-9.32628 4.65241,-3.73808 6.2329,-8.61282 3.75555,-14.30268 -1.97814,-4.54007 0.0912,-6.97154 3.75958,-9.21249 5.05981,-3.09044 5.58734,-6.87974 2.99098,-12.64183 -1.84714,-4.10002 -2.37031,-10.13043 -0.72824,-14.15971 8.5595,-21.02354 5.52109,-41.40224 -2.51553,-61.80259 -2.25175,-5.71773 -2.47501,-10.44114 3.21748,-14.91872 6.35833,-5.00254 7.60591,-13.0147 6.89166,-20.55074 -0.65919,-6.91518 0.35107,-12.85546 4.27468,-18.39483 5.66935,-7.99941 6.30589,-16.72522 4.22399,-26.19574 -1.8935,-8.61811 0.36468,-15.61235 6.81084,-22.62587 8.05851,-8.76999 14.08891,-19.29265 15.49217,-32.00812 1.32292,-11.99982 3.03837,-24.14861 6.58549,-35.59689 1.87471,-6.04502 8.05173,-10.71408 12.22743,-16.049 2.32368,-2.96938 4.96132,-5.80178 6.71102,-9.0915 7.47144,-14.0679 14.40221,-28.4297 22.08835,-42.37731 3.06651,-5.56297 7.57852,-10.32824 11.41413,-15.469268 4.06489,-5.446783 8.24922,-10.810016 12.11304,-16.394829 2.3797,-3.441547 3.70881,-7.714074 6.44957,-10.781399 10.26213,-11.492142 20.81056,-22.741757 31.45995,-33.881451 4.93874,-5.166767 10.05458,-10.264595 15.6696,-14.672872 4.35612,-3.419389 9.45918,-6.021132 14.50026,-8.437719 7.24333,-3.4718989 12.44134,-6.3868902 13.40718,-16.6933026 1.08586,-11.5697734 10.48689,-19.7376374 22.00624,-24.7866694 8.85554,-3.881001 16.4252,-10.709673 25.39247,-14.194894 20.54836,-7.986969 35.60363,-26.3498 58.65044,-29.389433 10.01333,-1.320313 20.04585,-2.673806 29.9345,-4.633029 6.53807,-1.298306 13.83577,-1.63898 17.51709,-8.993282 0.6437,-1.274038 3.8666,-2.325266 5.45283,-1.873308 10.60996,3.022098 19.41835,-0.304445 27.63735,-6.463666 11.56781,-8.669438 25.40427,-9.273468 39.11964,-10.179338 2.57841,-0.17168 5.63074,1.14138 7.72865,0.1953 7.40323,-3.32785 14.4797,-7.35263 21.69474,-11.08008 1.00687,-0.51959 2.36246,-1.4818 3.14248,-1.17487 10.58696,4.17583 19.34912,-1.92026 28.77617,-4.35583 2.13621,-0.5522 4.99889,-1.11941 6.69777,-0.18263 14.25979,7.87928 29.6864,6.09502 44.88003,6.52128 4.93133,0.13747 10.01483,0.18617 14.75251,1.39741 12.52484,3.19629 24.76762,7.63248 37.37932,10.31566 6.5538,1.39465 13.83952,1.06166 20.45221,-0.17146 8.59591,-1.6048 15.72023,1.334 23.13558,4.532907 5.277,2.259212 10.69271,4.200232 15.75502,6.176708 z"
   id="path1574-6-8" /><path
   style="fill:#567030;fill-opacity:1;stroke-width:2.84809"
   d="m 979.04806,46.836281 c 4.44059,6.483045 6.62737,15.024694 16.27774,15.429982 0.73271,0.03075 2.11295,1.429549 2.03256,2.020518 -1.14608,8.383489 6.99194,8.802673 10.66634,13.023133 2.2323,2.562291 3.6048,5.880995 5.7611,8.526704 1.9792,2.420482 4.2394,5.813987 6.8118,6.294962 6.1792,1.157482 9.5415,3.28585 9.7886,10.31689 0.2538,7.13959 2.9708,12.76225 11.2038,15.09152 6.2573,1.77125 9.7332,14.60054 7.8885,24.40526 -0.3118,1.65361 -1.2484,3.17561 -1.6307,4.82283 -1.2464,5.38493 -0.123,9.73252 5.9616,10.92594 6.4265,1.25968 7.8735,5.33132 9.3352,11.36373 1.1921,4.91754 5.4406,10.51092 9.8618,12.98042 13.07,7.29685 17.7212,19.47902 21.3331,32.56638 1.7248,6.25428 -0.6478,14.18538 7.7145,17.50304 0.4822,0.19244 0.8224,1.09879 0.9825,1.73129 2.5732,10.15025 5.4385,20.24514 7.4516,30.50535 0.6551,3.34225 -0.5508,7.23732 -1.5962,10.6605 -1.4637,4.78735 -3.3462,9.47508 -5.4589,14.0098 -4.1713,8.94536 -2.2062,17.42674 2.115,25.51851 3.7373,6.99569 3.5648,13.55223 2.6361,21.44394 -1.1951,10.14506 1.6339,20.814 2.8036,31.25085 0.1079,0.9762 1.0964,1.89314 1.0999,2.83605 0.047,10.76841 1.7618,20.76575 10.1263,28.79925 0.9153,0.8802 -1.2004,5.82595 -2.7643,8.33557 -3.0045,4.80954 -6.9966,9.00308 -9.7882,13.91689 -0.9988,1.75884 0.293,4.85978 0.54,7.35019 2.3154,-0.2536 4.6818,-0.30171 6.9336,-0.83151 1.5155,-0.35512 2.8693,-1.39256 4.2963,-2.12819 -0.5084,1.75706 -0.5089,4.01305 -1.6219,5.17624 -2.8379,2.96828 -2.3872,5.47391 -1.1159,9.18712 1.0337,3.02187 0.5735,7.41527 -0.9217,10.2891 -5.5754,10.72223 -14.9384,20.48002 -16.9374,31.72659 -1.7841,10.03167 -7.8952,18.84292 -7.2079,29.05458 0.3726,5.52049 -1.1937,9.27586 -3.9038,13.95066 -4.3765,7.54297 -7.0764,16.20563 0.3778,24.47732 1.4792,1.64286 2.3822,6.09869 1.3237,7.41283 -6.3111,7.82065 -6.5019,20.71339 -18.7334,23.63171 -2.7844,7.59001 -5.777,15.11297 -8.2127,22.81903 -0.6354,2.00681 1.5682,5.38684 0.5884,6.77745 -8.6014,12.20845 -9.1445,28.50922 -19.7347,39.69205 -2.2376,2.36171 -3.5675,5.61323 -5.2455,8.49838 -3.326,5.71275 -6.7759,11.36023 -9.8406,17.21539 -2.4858,4.74764 -4.9788,9.60054 -6.564,14.69959 -1.6832,5.41345 -3.9089,9.08979 -9.28,12.23306 -8.7284,5.10592 -17.57292,9.23097 -26.96002,12.99585 -8.59957,3.44922 -15.31634,11.36924 -23.31905,16.61048 -7.47189,4.8939 -12.52941,10.60687 -11.7152,20.26289 0.0736,0.87185 -1.46295,2.2036 -2.54017,2.77839 -7.36007,3.93162 -14.95458,7.44924 -22.14541,11.66715 -3.35568,1.969 -6.58736,4.76451 -8.81867,7.94587 -5.93871,8.47263 -14.75098,11.79044 -23.69612,15.63381 -8.45368,3.63339 -18.01595,7.31853 -23.7628,13.94047 -6.32806,7.29329 -13.91826,10.69326 -21.9233,13.3421 -11.94967,3.95298 -24.63768,5.63495 -36.69598,9.31882 -9.21826,2.81516 -18.0341,7.03121 -26.85501,11.00852 -4.63683,2.09051 -8.74797,4.03251 -14.29149,2.50952 -7.46785,-2.05308 -15.28672,-3.87388 -22.93015,-3.84596 -7.61486,0.0274 -15.27798,2.15007 -22.77201,3.95272 -5.17453,1.24389 -9.92802,4.26357 -15.5262,1.02562 -1.51461,-0.87493 -4.16678,-0.89043 -5.80907,-0.17578 -9.41353,4.09148 -17.6358,0.39931 -24.3241,-5.36612 -8.36609,-7.21515 -16.85954,-7.76666 -26.43614,-4.65115 -2.87764,0.93518 -5.75554,1.87457 -8.65509,2.7321 -4.14825,1.22501 -7.46048,0.83735 -10.9317,-2.80033 -2.58492,-2.71192 -6.82835,-4.3831 -10.60177,-5.21548 -4.79444,-1.05742 -9.72594,-0.30018 -13.93046,-4.42028 -1.60095,-1.56693 -6.1311,-1.61202 -8.51116,-0.53735 -6.79708,3.06875 -11.3759,-0.01 -14.83468,-5.02234 -5.549,-8.03903 -12.9478,-12.32602 -22.00651,-15.46813 -5.57858,-1.93676 -12.14295,-2.34916 -16.71473,-8.04907 -1.98612,-2.47759 -7.70193,-3.27338 -11.41027,-2.73826 -12.66717,1.83117 -19.85453,-5.33831 -26.72683,-14.38088 -2.01182,-2.64815 -6.64229,-5.85788 -9.01562,-5.17116 -7.82921,2.2643 -12.80715,-3.50554 -18.94936,-5.54653 -5.2888,-1.75825 -10.09811,-5.13644 -14.97207,-8.05377 -5.50349,-3.29626 -12.17471,-3.89818 -15.48368,-11.74385 -2.43601,-5.77914 -10.45976,-6.44504 -17.06354,-7.05739 -11.81495,-1.10141 -11.65675,-1.3579 -13.91056,-13.25271 -1.71309,-9.03423 -10.12408,-12.02588 -16.14432,-17.01688 -2.80315,-2.32213 -6.95467,-2.91946 -9.95746,-5.07323 -2.25288,-1.61838 -5.08725,-4.44893 -5.14164,-6.77852 -0.16399,-6.93985 -4.07329,-8.50892 -9.32116,-7.50764 -6.50937,1.2433 -7.67441,-1.3194 -7.05475,-7.12545 0.77345,-7.2623 -2.79968,-12.20468 -10.02649,-12.71532 -6.78548,-0.47694 -9.21707,-4.37212 -8.89538,-9.99287 0.77653,-13.5903 -4.86814,-24.19413 -13.00072,-34.53388 -5.40109,-6.871 -9.60022,-14.31426 -17.47341,-19.15291 -2.86308,-1.75882 -4.71779,-7.52527 -4.65491,-11.4027 0.14765,-9.04967 -1.99127,-16.68788 -7.99737,-23.56693 -3.77942,-4.32698 -6.93093,-9.26781 -9.95838,-14.18697 -2.6964,-4.38445 -4.39176,-8.85549 -2.35033,-14.4736 1.51204,-4.15671 0.0842,-7.876 -5.74022,-8.34476 -8.47594,-0.67974 -15.3474,-7.65162 -16.26494,-16.86805 -1.33095,-13.35713 -3.5049,-26.54165 2.84643,-39.79994 2.33323,-4.86742 0.87069,-13.75431 -2.21137,-18.68852 -5.03066,-8.05651 -2.60009,-14.83857 -0.53056,-22.15355 1.06198,-3.75304 2.49212,-7.09661 -2.03137,-9.68613 -0.89369,-0.51136 -1.73102,-2.58788 -1.42986,-3.5668 2.62927,-8.51013 -5.48479,-17.40421 0.72991,-25.74304 0.34551,-0.46261 0.47024,-1.53124 0.18076,-1.97838 -7.69515,-11.88523 -3.86027,-28.10194 -15.99472,-38.83256 -8.27622,-7.32084 -6.45313,-12.45722 3.00994,-19.15329 1.54307,-1.09066 3.63672,-3.03703 3.57268,-4.51733 -0.37733,-8.58545 -0.81781,-17.24125 -2.31734,-25.68256 -0.6603,-3.73165 -2.2425,-6.39189 2.54908,-7.92279 5.03371,-1.60854 7.91193,-5.14592 7.72049,-10.66174 -0.15396,-4.40165 2.33407,-5.75502 6.0742,-6.43715 5.15854,-0.94044 6.81993,-3.91511 6.55409,-9.52908 -0.1889,-3.99449 1.33551,-9.16579 3.99033,-11.98192 13.84529,-14.69647 17.95299,-32.57956 17.96124,-52.08455 0.002,-5.46654 1.35019,-9.45718 7.47804,-11.34551 6.84502,-2.11025 10.46647,-8.35757 12.3218,-14.83936 1.69938,-5.94904 4.45443,-10.55349 9.47308,-13.8904 7.25016,-4.81781 10.60083,-11.85333 11.95944,-20.37903 1.23717,-7.75801 5.35901,-12.83647 12.92788,-16.58702 9.46274,-4.69049 17.82721,-11.48599 23.10073,-21.58565 4.97558,-9.531678 10.32194,-19.060991 16.94615,-27.421331 3.49919,-4.413933 10.08718,-6.305672 15.24672,-9.392072 2.87138,-1.718012 5.95628,-3.22165 8.45987,-5.38965 10.6973,-9.274544 21.04562,-18.966408 31.88029,-28.072252 4.32216,-3.631536 9.57339,-6.137387 14.39067,-9.172049 5.10473,-3.21477 10.28052,-6.321897 15.26481,-9.715708 3.07038,-2.091804 5.54692,-5.2102 8.7927,-6.875642 12.15535,-6.2419284 24.46733,-12.19075126 36.82664,-18.0159772 5.73191,-2.7020353 11.58702,-5.2900398 17.62878,-7.1457378 4.687,-1.439198 9.72272,-1.96031 14.64751,-2.347686 7.07609,-0.556278 12.2913,-1.306824 16.42476,-9.548079 4.64147,-9.250937 15.01206,-13.011042 26.11235,-13.50371 8.53323,-0.378361 16.96525,-3.615018 25.46203,-3.629144 19.47043,-0.03292 37.79027,-10.437314 57.71012,-5.563701 8.65463,2.11776 17.33577,4.214147 26.09501,5.761799 5.7923,1.020827 11.89835,3.079962 17.30612,-1.840553 0.94171,-0.850503 3.93027,-0.688491 5.087,0.195504 7.7376,5.912093 16.05242,5.978636 24.80096,3.505788 12.31335,-3.48095 23.87686,0.457927 35.43871,4.107508 2.17401,0.684949 4.25622,2.753868 6.28645,2.642129 7.16079,-0.385449 14.27893,-1.454005 21.41458,-2.231401 0.99563,-0.107975 2.42121,-0.471324 2.96256,0.03363 7.34486,6.861983 16.51918,4.615805 25.05351,5.620084 1.93407,0.227362 4.46978,0.675363 5.56199,1.997768 9.16216,11.113274 22.41462,14.583204 34.75926,19.8124077 4.00696,1.6964949 8.16763,3.3681491 11.66755,5.8934126 9.25433,6.6710933 17.87518,14.2804107 27.36718,20.5536457 4.93252,3.260223 11.02625,5.321886 16.85874,6.42075 7.58227,1.42687 12.48309,6.151327 17.53879,11.184994 3.60333,3.56781 7.42378,6.916136 10.94223,10.180472 z"
   id="path1574-6-8-9" /><path
   style="fill:#9c8936;fill-opacity:1;stroke-width:2.57471"
   d="m 1076.3126,263.36767 c 0.4528,7.08932 -1.7972,14.73602 5.5125,19.51216 0.555,0.36262 0.9806,2.08737 0.6451,2.50932 -4.7661,5.98307 1.3623,10.07086 2.2659,15.04825 0.5496,3.02257 0.081,6.23526 0.5336,9.28744 0.4188,2.79537 0.6058,6.47656 2.3819,8.03945 4.2653,3.75579 5.8935,6.96361 2.835,12.54004 -3.1034,5.66387 -3.5919,11.288 1.7272,16.9036 4.0424,4.26874 0.8118,15.84229 -5.154,22.60649 -1.0067,1.1405 -2.4377,1.88997 -3.4963,2.99287 -3.4577,3.6072 -4.5948,7.50406 -0.4196,11.24404 4.4103,3.94949 3.6521,7.7816 1.9988,13.14371 -1.3471,4.37143 -0.6322,10.68087 1.6608,14.64322 6.7804,11.71086 4.7621,23.32504 1.518,35.16197 -1.5515,5.65607 -7.0614,10.72065 -2.0985,17.16394 0.2856,0.37236 0.1308,1.23379 -0.036,1.79919 -2.6933,9.075 -5.1343,18.242 -8.3136,27.14351 -1.0362,2.89932 -3.7735,5.36781 -6.1683,7.54393 -3.3503,3.04246 -6.9797,5.81404 -10.7172,8.36027 -7.3761,5.0209 -9.7704,12.51832 -10.1542,20.80224 -0.3306,7.16247 -3.4956,12.17633 -7.8654,17.87785 -5.6184,7.32892 -8.3527,16.92512 -12.269,25.57393 -0.3674,0.80824 -0.024,1.97759 -0.4565,2.71168 -4.9407,8.38796 -8.2312,16.94676 -5.4468,27.05465 0.3042,1.10693 -3.626,3.97102 -6.001,5.19772 -4.5576,2.34743 -9.5975,3.75975 -14.0379,6.2866 -1.5889,0.90472 -2.019,3.91088 -2.9785,5.95976 1.9162,0.87346 3.7768,1.93 5.771,2.55939 1.3414,0.42467 2.8728,0.24462 4.3215,0.33277 -1.2073,1.12997 -2.2504,2.88247 -3.6528,3.27161 -3.5769,0.994 -4.3852,3.14889 -5.1142,6.62121 -0.5939,2.82553 -2.9824,6.02587 -5.47255,7.56725 -9.28809,5.75236 -21.07294,9.00442 -27.82511,16.81745 -6.02354,6.96852 -14.84445,10.98864 -19.03124,19.23952 -2.26269,4.46091 -5.21561,6.65423 -9.48208,9.03312 -6.88698,3.83671 -12.98917,9.31831 -11.02215,19.19034 0.38971,1.96017 -0.96867,5.83923 -2.39846,6.37082 -8.51847,3.15798 -14.62682,13.08584 -25.47828,9.69844 -5.67183,4.60929 -11.47458,9.07016 -16.92919,13.93079 -1.4215,1.2652 -1.27202,4.90982 -2.67602,5.53723 -12.32615,5.50795 -20.28381,17.92047 -33.6807,21.71237 -2.83019,0.80026 -5.36641,2.71152 -8.00382,4.17718 -5.22478,2.9005 -10.51568,5.69299 -15.60337,8.8249 -4.12599,2.53911 -8.30613,5.15671 -11.89494,8.38517 -3.81017,3.42745 -7.23879,5.25457 -12.86454,5.21347 -9.14126,-0.0685 -17.9193,-0.95255 -26.95234,-2.36731 -8.27529,-1.29591 -17.15473,1.75184 -25.79474,2.124 -8.06711,0.34775 -14.63721,2.44794 -18.46856,10.32583 -0.34583,0.71135 -2.15524,1.03558 -3.25782,0.98413 -7.53538,-0.34812 -15.06151,-1.12628 -22.59773,-1.17377 -3.51718,-0.0216 -7.32014,0.65613 -10.52429,2.09616 -8.53043,3.83669 -16.91021,2.34036 -25.63619,1.19092 -8.2471,-1.08541 -17.37936,-2.64311 -24.90519,-0.15542 -8.2877,2.74054 -15.75608,1.87296 -23.1995,0.23014 -11.11079,-2.45329 -21.74528,-7.01219 -32.81604,-9.72475 -8.46282,-2.07449 -17.26064,-2.87464 -25.952,-3.86265 -4.56867,-0.51951 -8.66026,-0.91136 -12.26279,-4.65724 -4.85243,-5.0473 -10.08491,-10.07642 -16.0358,-13.58824 -5.92843,-3.49897 -12.86296,-5.39255 -19.51821,-7.45656 -4.59499,-1.42578 -9.68378,-1.27738 -12.53599,-6.38084 -0.77218,-1.3799 -2.82542,-2.61801 -4.43162,-2.82204 -9.20456,-1.17325 -13.88536,-7.84267 -16.41595,-15.41361 -3.1639,-9.47281 -9.50724,-13.82771 -18.3873,-15.83454 -2.66788,-0.6038 -5.3379,-1.20446 -7.98692,-1.87869 -3.78895,-0.96605 -6.18292,-2.79841 -7.19793,-7.22913 -0.75444,-3.3018 -3.27849,-6.56178 -5.82515,-8.95286 -3.2358,-3.03792 -7.41701,-4.72944 -8.7787,-9.87392 -0.51935,-1.95739 -4.01784,-4.08668 -6.36364,-4.35208 -6.69912,-0.75822 -8.83337,-5.26612 -9.20285,-10.75965 -0.59446,-8.81056 -4.36056,-15.5614 -9.94542,-22.19018 -3.43848,-4.08354 -8.34751,-7.43857 -9.26418,-13.98015 -0.39759,-2.84294 -4.47014,-6.10353 -7.59843,-7.40216 -10.68728,-4.43332 -12.95653,-13.32574 -14.11512,-23.52764 -0.33872,-2.98735 -2.45216,-7.6215 -4.6134,-8.18518 -7.12905,-1.8603 -8.32892,-8.64399 -12.1571,-13.06907 -3.29587,-3.81091 -5.47037,-8.65862 -7.90816,-13.1782 -2.75166,-5.10499 -7.65609,-8.65665 -6.59972,-16.28142 0.77917,-5.6158 -5.14639,-9.84242 -9.99361,-13.37101 -8.66952,-6.3176 -8.42803,-6.44374 -4.6801,-16.72639 2.84561,-7.81037 -2.30563,-14.0228 -4.67527,-20.68328 -1.1042,-3.09986 -4.05325,-5.48313 -5.39034,-8.54451 -1.00204,-2.29874 -1.89543,-5.80802 -0.86073,-7.64296 3.08082,-5.46717 0.76917,-8.49336 -3.77062,-10.14154 -5.63171,-2.04333 -5.3521,-4.57283 -2.1866,-8.79691 3.95816,-5.2843 3.46713,-10.77573 -1.91112,-14.51332 -5.05094,-3.50739 -5.13926,-7.65754 -2.29092,-11.87543 6.88595,-10.19892 7.40281,-21.0462 5.86482,-32.8385 -1.01952,-7.83474 -0.84074,-15.55843 -4.72033,-22.95713 -1.41115,-2.68994 -0.18625,-8.02715 1.6551,-11.01035 4.29831,-6.96215 6.16772,-13.88488 4.68187,-22.00555 -0.93579,-5.10871 -1.1,-10.40401 -1.17785,-15.62512 -0.0679,-4.65266 0.682,-8.90987 4.8651,-12.33066 3.09629,-2.53023 3.70645,-6.07972 -0.60169,-9.13645 -6.27046,-4.44641 -8.38566,-13.03928 -4.83778,-20.62343 5.14089,-10.99207 9.54711,-22.23972 20.61049,-29.60355 4.06278,-2.70271 7.03491,-10.2828 6.92157,-15.54085 -0.18372,-8.58449 4.83985,-12.72965 9.82922,-17.45569 2.56003,-2.42469 5.21676,-4.36106 2.89973,-8.46396 -0.45789,-0.81043 -0.14844,-2.81071 0.53808,-3.43198 5.97675,-5.39577 3.78482,-16.05638 12.46782,-19.66157 0.48227,-0.19966 1.0732,-0.97219 1.05503,-1.45336 -0.48371,-12.79072 9.99235,-23.61615 5.52611,-37.56212 -3.04517,-9.51337 0.74565,-12.66088 11.19275,-13.48817 1.70297,-0.13395 4.22925,-0.67816 4.86384,-1.85775 3.67582,-6.84421 7.33515,-13.77227 10.07256,-21.02332 1.21214,-3.20425 1.21278,-6.00234 5.64294,-4.97655 4.65415,1.07741 8.52547,-0.3401 10.92664,-4.7137 1.91526,-3.49066 4.47377,-3.39186 7.69472,-2.19277 4.44226,1.65414 7.10812,0.11132 9.49689,-4.37295 1.69986,-3.19052 5.27478,-6.50323 8.63912,-7.46372 17.55003,-5.01667 29.00836,-17.010588 38.03178,-32.1596 2.52894,-4.245731 5.4209,-6.722842 11.05441,-5.356985 6.29326,1.525012 11.99473,-1.654162 16.43256,-5.832004 4.07038,-3.836019 8.33929,-6.139434 13.78079,-6.411695 7.85966,-0.391144 13.71516,-4.307831 18.71197,-10.303142 4.54758,-5.455033 10.09745,-7.494857 17.71132,-6.909516 9.51972,0.73065 19.15931,-0.68176 27.92515,-6.089972 8.2718,-5.104714 16.83057,-10.036192 25.84163,-13.468778 4.75895,-1.811393 10.75147,-0.235472 16.18659,-0.248002 3.0249,-0.0079 6.11659,0.250754 9.06382,-0.276118 12.59794,-2.259856 25.1177,-5.005243 37.74442,-7.07051 5.03658,-0.823148 10.27456,-0.34227 15.41984,-0.472831 5.45189,-0.137573 10.90919,-0.15869 16.35027,-0.491062 3.35231,-0.20564 6.71787,-1.483344 10.00934,-1.276683 12.32874,0.770154 24.64365,1.840412 36.93818,3.028556 5.70209,0.550686 11.44716,1.246916 16.99869,2.598324 4.30653,1.048684 8.45952,2.971829 12.46454,4.947574 5.75437,2.839063 10.15288,4.666932 17.1739,0.1754 7.88245,-5.041067 17.67734,-3.167939 26.52858,1.580889 6.80413,3.650902 14.851,5.034486 21.45843,8.951504 15.14122,8.975437 34.18323,9.36168 47.40534,22.356638 5.74449,5.646173 11.51948,11.288001 17.60881,16.539654 4.02796,3.470793 7.81966,7.893256 14.29548,6.570599 1.12478,-0.225381 3.3716,1.282053 3.86157,2.50356 3.278,8.16996 9.70678,12.065539 17.64645,14.188812 11.17508,2.988112 18.33754,11.393818 25.63241,19.574028 1.3723,1.53714 2.03345,4.10702 3.66233,4.95877 5.7412,3.01092 11.76505,5.47144 17.66792,8.16626 0.8234,0.37639 2.09884,0.75314 2.28597,1.3957 2.5338,8.72635 10.6994,11.22257 16.8652,15.94811 1.3975,1.07073 3.1603,2.59101 3.3974,4.12326 1.9803,12.86917 10.6716,21.69138 17.8444,31.4606 2.3286,3.17034 4.7881,6.39244 6.3397,9.97222 4.1054,9.46078 7.2849,19.35759 11.7589,28.61915 2.3247,4.81303 6.1057,9.23175 10.1288,12.78173 5.2309,4.61371 6.8541,10.54961 8.4548,16.79732 1.15,4.43753 2.5699,8.80489 3.7943,12.96743 z"
   id="path1574-6-8-9-3" /><path
   style="fill:#957b25;fill-opacity:0.47815505;stroke-width:2.19848"
   d="m 951.74798,603.86161 c -4.90832,3.52753 -11.41024,5.31651 -11.62796,12.84936 -0.0165,0.57199 -1.07155,1.66231 -1.52354,1.60543 -6.4128,-0.8127 -6.65549,5.54042 -9.84332,8.44822 -1.93548,1.76636 -4.45668,2.86941 -6.4565,4.57734 -1.82946,1.56773 -4.3994,3.36399 -4.7422,5.37566 -0.82511,4.83201 -2.41835,7.47595 -7.78515,7.737 -5.44961,0.26733 -9.71734,2.44182 -11.41773,8.88756 -1.293,4.89908 -11.0568,7.73543 -18.56152,6.39151 -1.26569,-0.22718 -2.43683,-0.94297 -3.69836,-1.22529 -4.12396,-0.92011 -7.43318,-9.6e-4 -8.28663,4.75724 -0.90072,5.02608 -3.99626,6.19449 -8.5889,7.39343 -3.7438,0.97791 -7.97462,4.34699 -9.81836,7.82023 -5.44775,10.26772 -14.70615,14.01485 -24.66564,16.96 -4.75955,1.4063 -10.83858,-0.36775 -13.29247,6.18866 -0.14236,0.37799 -0.83131,0.65219 -1.31248,0.78375 -7.72654,2.10618 -15.40804,4.43963 -23.22388,6.10996 -2.546,0.54354 -5.5318,-0.35932 -8.15587,-1.14171 -3.66966,-1.09546 -7.26726,-2.51842 -10.75014,-4.12251 -6.87064,-3.16757 -13.3286,-1.55204 -19.46658,1.89791 -5.30657,2.9837 -10.315,2.91284 -16.35017,2.26502 -7.75836,-0.83369 -15.87857,1.4771 -23.83735,2.491 -0.7444,0.0937 -1.43537,0.87357 -2.15519,0.88573 -8.22263,0.1422 -15.84057,1.57626 -21.89565,8.18013 -0.66341,0.72269 -4.46025,-0.87994 -6.39151,-2.07558 -3.70136,-2.29741 -6.94162,-5.37111 -10.72048,-7.5013 -1.35262,-0.76201 -3.70828,0.27587 -5.60768,0.49271 0.21569,1.80412 0.27496,3.64978 0.70091,5.40134 0.28562,1.17885 1.09066,2.22497 1.66602,3.3311 -1.34657,-0.37958 -3.06932,-0.35786 -3.96817,-1.21488 -2.29362,-2.18518 -4.20275,-1.80931 -7.02614,-0.78148 -2.2978,0.83588 -5.65701,0.51965 -7.86579,-0.61895 -8.24089,-4.24553 -15.78126,-11.4555 -24.38847,-12.90568 -7.67744,-1.29443 -14.46412,-5.97648 -22.2555,-5.341 -4.21205,0.34428 -7.09465,-0.84126 -10.69026,-2.9101 -5.80166,-3.34106 -12.4424,-5.36328 -18.68797,0.53264 -1.24048,1.17007 -4.63451,1.91787 -5.64806,1.10486 -6.03212,-4.84786 -15.87921,-4.87131 -18.22409,-14.38564 -5.82241,-2.09846 -11.59564,-4.36016 -17.50337,-6.18547 -1.53849,-0.47637 -4.09861,1.2758 -5.16987,0.52495 -9.40453,-6.59201 -21.85745,-6.85732 -30.49773,-15.01073 -1.82475,-1.72283 -4.32035,-2.72866 -6.5395,-4.0098 -4.39407,-2.53927 -8.73946,-5.17589 -13.23977,-7.50999 -3.64908,-1.89324 -7.37862,-3.79099 -11.28747,-4.97823 -4.14988,-1.2605 -6.97842,-2.9612 -9.42981,-7.121 -3.98192,-6.76009 -7.21621,-13.62016 -10.18048,-20.90711 -2.71571,-6.67561 -8.82759,-11.83885 -12.90607,-18.03136 -3.80822,-5.78177 -8.21889,-9.67197 -15.58477,-8.9429 -0.66508,0.066 -1.69665,-1.11995 -2.14583,-1.95478 -3.07232,-5.7039 -5.83071,-11.59472 -9.12003,-17.16378 -1.53553,-2.59885 -3.701,-5.09296 -6.15161,-6.80282 -6.52643,-4.55086 -9.14384,-11.39368 -12.16385,-18.33504 -2.85498,-6.56001 -5.76002,-13.9844 -10.87142,-18.40353 -5.62956,-4.86606 -8.29807,-10.75466 -10.39697,-16.97419 -3.13231,-9.2844 -4.53737,-19.16684 -7.46522,-28.53856 -2.23744,-7.16442 -5.5408,-14.00133 -8.66187,-20.84447 -1.64049,-3.59721 -3.16258,-6.78572 -2.05233,-11.12539 1.49676,-5.84615 2.81279,-11.96388 2.71875,-17.92681 -0.0933,-5.9406 -1.78718,-11.89851 -3.23504,-17.72761 -0.99911,-4.02492 -3.35021,-7.70408 -0.93088,-12.10309 0.65371,-1.19017 0.64029,-3.25947 0.0789,-4.53377 -3.21393,-7.30438 -0.47271,-13.75506 3.86632,-19.02906 5.4301,-6.59712 5.77046,-13.22881 3.30025,-20.66991 -0.74149,-2.23597 -1.48621,-4.47208 -2.16866,-6.72589 -0.97489,-3.22445 -0.71037,-5.8123 2.03445,-8.55579 2.0463,-2.04303 3.28209,-5.36987 3.88183,-8.32189 0.76188,-3.75074 0.13672,-7.59081 3.24291,-10.91109 1.18134,-1.26423 1.17264,-4.79896 0.32938,-6.64534 -2.40806,-5.27306 -0.10119,-8.87524 3.69407,-11.62241 6.08604,-4.40729 9.28934,-10.22128 11.60256,-17.31915 1.42589,-4.37106 1.67835,-9.49641 5.98746,-13.11856 1.87308,-1.57361 2.4264,-6.04063 1.98249,-8.92858 -1.51886,-9.86474 3.88759,-15.54175 10.72737,-20.99121 2.00308,-1.59533 4.41006,-5.23905 3.86308,-7.084 -1.80357,-6.0861 2.5551,-10.02582 4.05522,-14.83764 1.29234,-4.14323 3.82627,-7.92813 6.00767,-11.75901 2.46475,-4.32569 2.86094,-9.53624 8.82064,-12.19403 4.38993,-1.95668 4.82211,-8.22304 5.22688,-13.38107 0.72867,-9.22837 0.92605,-9.10742 9.98784,-10.98143 6.88248,-1.42428 9.08696,-8.01537 12.84095,-12.76068 1.74659,-2.2095 2.16323,-5.4542 3.77937,-7.81781 1.21439,-1.77337 3.34893,-4.01215 5.12734,-4.07724 5.29791,-0.19539 6.45891,-3.26056 5.64438,-7.34504 -1.01136,-5.06632 0.93452,-6.00018 5.37408,-5.57317 5.55305,0.53285 9.2932,-2.30286 9.6144,-7.94595 0.29964,-5.29846 3.25098,-7.23338 7.54623,-7.03703 10.38533,0.47373 18.42899,-4.03314 26.24737,-10.47843 5.1955,-4.28053 10.83946,-7.62893 14.45949,-13.818364 1.31584,-2.250771 5.70162,-3.753842 8.66313,-3.742462 6.91198,0.02727 12.72441,-1.715718 17.92028,-6.468349 3.26827,-2.990667 7.01125,-5.497386 10.73885,-7.90712 3.32237,-2.146315 6.72054,-3.512398 11.03009,-1.974335 3.18857,1.139257 6.01515,-0.01127 6.31768,-4.559439 0.43844,-6.619284 5.697,-12.047953 12.72621,-12.853366 10.18722,-1.168214 20.23463,-2.992395 30.41945,1.833865 3.7391,1.773009 10.51148,0.545621 14.25004,-1.906882 6.10433,-4.003081 11.30646,-2.172731 16.91203,-0.629238 2.87604,0.792043 5.44287,1.875295 7.37731,-1.678948 0.38198,-0.702234 1.95972,-1.375636 2.7101,-1.150213 6.52356,1.968553 13.23817,-4.448257 19.66507,0.319237 0.35654,0.265068 1.17376,0.351998 1.51242,0.121815 9.00273,-6.119058 21.42274,-3.284813 29.5015,-12.856049 5.51169,-6.52799 9.45135,-5.155592 14.65467,2.162103 0.84754,1.193258 2.35376,2.807733 3.48353,2.743408 6.5525,-0.377834 13.15814,-0.805605 19.5899,-2.057528 2.84331,-0.551418 4.85967,-1.811667 6.07432,1.911696 1.2762,3.91152 4.00482,6.122642 8.21507,5.919661 3.35974,-0.162861 4.41689,1.765052 4.97338,4.676349 0.7672,4.015389 3.05453,5.282669 7.339,5.020697 3.04852,-0.186199 7.01196,0.952836 9.1877,2.996678 11.35435,10.658842 25.04946,13.689702 39.94411,13.506574 4.17443,-0.05127 7.23463,0.961455 8.73491,5.723876 1.67657,5.319775 6.48162,8.084407 11.44899,9.468859 4.55901,1.267983 8.10131,3.372665 10.69721,7.255645 3.74801,5.6095 9.15238,8.15522 15.6758,9.13229 5.93601,0.88979 9.85327,4.05618 12.78929,9.92472 3.67182,7.33697 8.94063,13.79663 16.70317,17.81272 7.326,3.78914 14.65373,7.8676 21.10096,12.95436 3.40388,2.68707 4.91113,7.8084 7.31708,11.80375 1.33967,2.22317 2.5168,4.61559 4.19618,6.54774 7.18406,8.25556 14.68348,16.23479 21.74005,24.59921 2.81426,3.3367 4.77776,7.40922 7.1409,11.138 2.50356,3.95133 4.92549,7.95911 7.56442,11.8147 1.62666,2.3751 4.03146,4.27691 5.33412,6.79299 4.88215,9.42257 9.54196,18.97019 14.10787,28.55593 2.11786,4.44562 4.14988,8.98842 5.62442,13.68399 1.14361,3.64268 1.58941,7.56629 1.93213,11.40475 0.49214,5.51513 1.11478,9.57657 7.44743,12.72128 7.1084,3.5312 10.0785,11.5855 10.5602,20.24083 0.3702,6.65369 2.922,13.20062 3.0137,19.82944 0.2102,15.1899 8.3296,29.38137 4.7975,44.9696 -1.5348,6.77265 -3.0532,13.56581 -4.1517,20.41453 -0.7245,4.52891 -2.2387,9.3127 1.5702,13.48382 0.6583,0.72644 0.5631,3.05958 -0.101,3.97063 -4.4411,6.09411 -4.4127,12.58173 -2.4411,19.38305 2.7752,9.57267 -0.1225,18.63244 -2.7995,27.68814 -0.5024,1.70275 -2.0625,3.34732 -1.9579,4.93021 0.3624,5.58286 1.2463,11.12579 1.9078,16.68531 0.092,0.77565 0.3829,1.88433 0,2.31157 -5.1702,5.79701 -3.3676,12.93263 -4.0533,19.60064 -0.1552,1.51115 -0.4733,3.49376 -1.4727,4.35865 -8.39919,7.25617 -10.92288,17.62902 -14.79857,27.31082 -1.25744,3.14256 -2.49438,6.4048 -4.38935,9.1599 -5.00637,7.28476 -10.73499,14.08448 -15.43515,21.5508 -2.44262,3.87986 -3.959,8.65407 -4.74266,13.21511 -1.01741,5.92931 -4.57855,9.79875 -8.37429,13.79197 -2.69019,2.84594 -5.21077,5.85896 -7.67001,8.63574 z"
   id="path1574-6-8-9-3-1" />
</svg>
