<?xml version="1.0" encoding="UTF-8" standalone="no"?>
<!-- Generator: Adobe Illustrator 27.5.0, SVG Export Plug-In . SVG Version: 6.00 Build 0)  -->

<svg
   version="1.1"
   id="Layer_1"
   x="0px"
   y="0px"
   viewBox="0 0 1365.9999 768"
   xml:space="preserve"
   sodipodi:docname="chãoBororoFloresta.svg"
   inkscape:version="1.4.2 (ebf0e940d0, 2025-05-08)"
   width="1366"
   height="768"
   xmlns:inkscape="http://www.inkscape.org/namespaces/inkscape"
   xmlns:sodipodi="http://sodipodi.sourceforge.net/DTD/sodipodi-0.dtd"
   xmlns="http://www.w3.org/2000/svg"
   xmlns:svg="http://www.w3.org/2000/svg"><defs
   id="defs1574" /><sodipodi:namedview
   id="namedview1574"
   pagecolor="#ffffff"
   bordercolor="#000000"
   borderopacity="0.25"
   inkscape:showpageshadow="2"
   inkscape:pageopacity="0.0"
   inkscape:pagecheckerboard="0"
   inkscape:deskcolor="#d1d1d1"
   inkscape:zoom="0.4525"
   inkscape:cx="458.56354"
   inkscape:cy="519.33702"
   inkscape:window-width="1906"
   inkscape:window-height="1026"
   inkscape:window-x="0"
   inkscape:window-y="0"
   inkscape:window-maximized="1"
   inkscape:current-layer="Layer_1"
   showgrid="false" />
<path
   style="fill:#0b1f0b;fill-opacity:1;stroke-width:5.94817"
   d="m 998.80179,-476.76863 c 13.63151,9.19244 24.42861,24.07421 43.60391,17.56219 1.456,-0.49462 5.2222,1.16974 5.5165,2.37448 4.161,17.0955 20.3902,11.75389 30.796,17.14577 6.3205,3.27233 11.538,8.65895 17.7735,12.1502 5.7174,3.18918 12.7272,8.04943 18.1233,7.03559 12.9637,-2.43136 21.1618,-0.85337 27.0137,12.57058 5.9478,13.62909 15.5525,22.45925 33.4263,20.74338 13.5851,-1.3023 30.1763,20.90477 34.0566,41.27979 0.6529,3.43689 -0.016,7.09141 0.4945,10.56915 1.675,11.36677 7.1909,18.93348 19.9972,16.64323 13.5252,-2.42054 19.463,4.36737 26.9267,14.93989 6.0855,8.61809 18.6621,16.23357 29.1909,17.67123 31.1228,4.24329 49.5175,24.30901 66.5716,46.91296 8.1472,10.80317 9.5649,27.95033 28.4462,28.04987 1.0895,0.008 2.4465,1.50537 3.2425,2.60866 12.7809,17.70359 26.0905,35.07904 37.8604,53.41892 3.8326,5.9747 4.4491,14.42672 5.0195,21.84374 0.794,10.37422 0.693,20.87218 0.025,31.2479 -1.3249,20.470807 8.9931,35.403313 23.6193,47.800342 12.6479,10.716726 17.317,23.539367 21.5275,39.51855 5.4101,20.5426732 19.0871,39.056884 29.343,58.376386 0.9568,1.807969 3.5887,2.83581 4.3153,4.658549 8.3157,20.809685 19.3007,38.866706 41.7867,48.093823 2.4615,1.011819 2.1017,12.18561 0.9608,18.22622 -2.2013,11.58216 -6.8037,22.71856 -8.5093,34.34154 -0.6091,4.15997 4.2838,9.18617 6.6682,13.82048 4.333,-2.24169 8.9223,-4.12405 12.9199,-6.85222 2.6914,-1.83322 4.546,-4.86515 6.7737,-7.36815 0.348,3.78573 2.0699,8.15324 0.7822,11.24653 -3.2815,7.89175 -0.4872,12.40147 4.8331,18.62847 4.3285,5.06818 6.7833,13.92096 6.0545,20.61478 -2.7121,24.97176 -13.5659,50.94063 -8.8864,74.22343 4.1723,20.76842 -1.0469,42.44615 8.0942,61.69439 4.9435,10.40505 4.7488,18.85917 3.0203,29.9578 -2.7961,17.91085 -1.4598,36.72167 19.4285,47.09819 4.1466,2.06176 9.3139,10.00476 8.2482,13.34898 -6.3664,19.91133 3.1052,45.01358 -18.5785,59.91124 0.3523,16.79813 0.2459,33.62401 1.3686,50.38309 0.2899,4.36537 7.1789,9.24239 6.3254,12.67516 -7.4937,30.13695 3.8915,62.103 -8.2729,91.75818 -2.5714,6.26385 -2.6881,13.56364 -3.7656,20.41751 -2.14,13.57361 -4.5723,27.11467 -6.0927,40.76644 -1.2347,11.07017 -2.4029,22.34942 -1.6085,33.41896 0.8432,11.75202 -0.7006,20.5516 -8.8008,30.69757 -13.1648,16.48362 -27.3057,31.1564 -42.7823,45.54209 -14.1783,13.17922 -21.2617,33.58956 -32.9043,49.78647 -10.8703,15.1232 -16.3955,30.0065 -7.4307,48.08323 0.8097,1.63206 -1.1775,5.3719 -2.8443,7.29909 -11.3866,13.17587 -23.5474,25.72755 -34.3845,39.32964 -5.0567,6.34887 -9.24,14.20395 -11.173,22.04963 -5.1402,20.89173 -19.8345,33.97731 -34.387,48.18091 -13.7521,13.4253 -29.6321,27.7891 -35.8106,44.9533 -6.8022,18.9031 -19.0445,31.2237 -32.6712,42.4041 -20.3427,16.6874 -43.8628,29.5367 -64.6232,45.7853 -15.8716,12.4195 -29.8869,27.2467 -44.0944,41.6155 -7.4684,7.5528 -14.0227,14.4206 -26.0228,15.6637 -16.1669,1.672 -32.8426,4.0591 -47.7638,9.8924 -14.8658,5.8104 -28.2259,15.7137 -41.4999,24.8696 -9.1662,6.3205 -16.1532,15.7601 -29.5697,13.7247 -3.6291,-0.5485 -8.8257,1.4268 -11.4906,4.052 -15.2789,15.0379 -34.1721,14.1074 -51.6498,8.0034 -21.86441,-7.6416 -38.88977,-2.2874 -55.23257,10.9845 -4.91162,3.9862 -9.82043,7.9807 -14.83413,11.833 -7.17421,5.5079 -13.94534,7.2618 -23.50902,2.8445 -7.12414,-3.2954 -16.69583,-3.322 -24.70831,-2.0803 -10.18024,1.578 -19.24287,6.7725 -30.60845,1.9759 -4.32611,-1.8228 -13.21677,1.5151 -17.04914,5.395 -10.94468,11.0798 -22.24659,8.5823 -32.83575,1.4941 -16.98632,-11.3666 -34.72406,-14.0713 -54.83243,-13.3045 -12.38465,0.4687 -25.53258,4.6337 -38.82241,-2.9438 -5.77461,-3.2944 -17.55626,-0.5132 -24.39726,3.3266 -23.36539,13.1224 -42.89072,4.6779 -63.23019,-7.6308 -5.95512,-3.6053 -17.45824,-6.3176 -21.57352,-3.1939 -13.57681,10.3031 -27.71399,2.8975 -41.28008,3.5905 -11.68191,0.5952 -23.66329,-2.308 -35.41919,-4.2703 -13.27593,-2.2198 -26.77742,1.659 -39.23692,-11.027 -9.17505,-9.3455 -25.36945,-4.5678 -38.74705,-0.7601 -23.93858,6.8011 -23.82513,6.1849 -37.31366,-15.1371 -10.24724,-16.1935 -28.97456,-15.6253 -44.55476,-20.7352 -7.25308,-2.3757 -15.82518,-0.3931 -23.34001,-2.292 -5.64002,-1.4295 -13.34233,-4.766 -15.22743,-9.2345 -5.61961,-13.3103 -14.46018,-13.3919 -23.9549,-7.4857 -11.77613,7.3285 -16.01054,3.2484 -19.23243,-8.4596 -4.03317,-14.6434 -14.7923,-21.5093 -29.3102,-17.0336 -13.62939,4.2071 -21.35724,-1.4947 -25.02017,-12.6187 -8.85896,-26.8956 -27.9907,-43.1548 -51.78452,-57.0218 -15.80529,-9.2173 -29.69776,-20.4512 -48.78402,-23.8651 -6.94014,-1.24 -14.96907,-11.0005 -17.8068,-18.5541 -6.62135,-17.6302 -16.63507,-30.7992 -33.629276,-39.5746 -10.692506,-5.5187 -20.626147,-12.7004 -30.300729,-19.934 -8.61912,-6.4488 -15.347422,-13.8221 -15.646313,-26.24128 -0.217963,-9.18995 -5.849185,-15.31024 -17.593564,-11.81384 -17.08901,5.09278 -35.8458266,-3.20809 -44.676878,-20.35574 -12.801004,-24.85074 -27.118187,-48.72998 -24.82523,-79.19794 0.844766,-11.18659 -8.80014,-27.28424 -18.59301,-34.50568 -15.98633,-11.79231 -16.413232,-26.75899 -17.952864,-42.48426 -0.789583,-8.06817 -0.546724,-15.62207 -11.367196,-17.21475 -2.137564,-0.31421 -5.360072,-3.70087 -5.518786,-5.82358 -1.357972,-18.46208 -24.011714,-29.54445 -18.229524,-50.38592 0.32219,-1.15676 -0.24989,-3.31976 -1.15724,-3.96647 -24.11873,-17.18941 -29.00428,-51.48171 -60.91997,-63.07947 -21.76946,-7.91428 -22.12735,-19.23583 -8.74052,-39.35326 2.18384,-3.27803 4.79062,-8.62887 3.53514,-11.44604 -7.29319,-16.33462 -14.76357,-32.7577 -24.14059,-47.96483 -4.14019,-6.72458 -9.26452,-10.67804 -1.06621,-17.26449 8.61239,-6.91983 11.53815,-15.9438 6.95214,-26.4767 -3.66187,-8.40442 0.16883,-12.90547 6.95962,-17.05387 9.36655,-5.7209 10.34311,-12.73554 5.5368,-23.40216 -3.41935,-7.58982 -4.38783,-18.75313 -1.34809,-26.21201 15.84509,-38.91812 10.22047,-76.64253 -4.65666,-114.407 -4.16836,-10.58451 -4.58168,-19.32832 5.95611,-27.61707 11.77032,-9.26056 14.07982,-24.09242 12.75763,-38.04289 -1.2203,-12.80117 0.64986,-23.79764 7.91313,-34.05193 10.49493,-14.80827 11.67326,-30.96121 7.81932,-48.49274 -3.50518,-15.95358 0.67508,-28.9011 12.60801,-41.8843 14.91768,-16.23474 26.08095,-35.71394 28.67864,-59.252435 2.44893,-22.213681 5.62452,-44.70313 12.19084,-65.895835 3.4704,-11.190345 14.905097,-19.8335715 22.635034,-29.7094243 4.301526,-5.4967929 9.184247,-10.7400507 12.423224,-16.8298757 13.830899,-26.042078 26.660923,-52.628182 40.889257,-78.447571 5.676637,-10.297989 14.029118,-19.119319 21.1294811,-28.636219 7.52480888,-10.08292 15.2706926,-20.01116 22.4232909,-30.34959 4.405207,-6.37088 6.86562,-14.28005 11.939233,-19.95819 18.996936,-21.27389 38.523859,-42.09883 58.237684,-62.72028 9.142436,-9.56455 18.612706,-19.0015 29.007066,-27.16196 8.06391,-6.32987 17.51054,-11.14613 26.84244,-15.61964 13.40863,-6.42707 23.03102,-11.82321 24.81893,-30.90212 2.01012,-21.4176 19.413,-36.53769 40.73727,-45.8843 16.39309,-7.18439 30.40583,-19.82541 47.00575,-26.27714 38.03847,-14.78523 65.90833,-48.77793 108.57184,-54.4048 18.53637,-2.44412 37.10825,-4.94967 55.41382,-8.57652 12.10307,-2.40338 25.61234,-3.03403 32.42708,-16.64808 1.1916,-2.35846 7.15775,-4.30446 10.09411,-3.46781 19.64084,5.59441 35.94665,-0.56358 51.1614,-11.96534 21.41398,-16.04858 47.0276,-17.16675 72.41705,-18.84367 4.77308,-0.31781 10.42345,2.11289 14.30705,0.36154 13.70462,-6.16042 26.80435,-13.61096 40.16061,-20.51111 1.8639,-0.96183 4.37331,-2.74306 5.81727,-2.17488 19.59825,7.73018 35.81848,-3.5547 53.26954,-8.06338 3.95448,-1.0222 9.2538,-2.0722 12.39872,-0.33807 26.39725,14.58588 54.95451,11.28292 83.0805,12.07199 9.1287,0.25448 18.53912,0.34464 27.30937,2.58683 23.1856,5.91689 45.84905,14.12902 69.19543,19.09603 12.1322,2.58174 25.61928,1.96532 37.86049,-0.3174 15.91247,-2.97076 29.10079,2.46947 42.82786,8.39118 9.76861,4.18219 19.794,7.77534 29.1652,11.43413 z"
   id="path1574-6-8-2" /><path
   style="fill:#303a16;fill-opacity:1;stroke-width:2.98535"
   d="m 841.27477,-59.02392 c 6.84158,4.613628 12.26056,12.082701 21.88456,8.814357 0.73076,-0.248248 2.62099,0.587086 2.76866,1.191737 2.0884,8.580129 10.23374,5.899209 15.45635,8.605359 3.17221,1.642363 5.79082,4.345875 8.9204,6.09811 2.86952,1.600632 6.3877,4.039962 9.09601,3.531121 6.50635,-1.220287 10.62098,-0.428303 13.55793,6.309097 2.98518,6.840358 7.80578,11.272161 16.77648,10.410975 6.81827,-0.653615 15.14532,10.4919792 17.09279,20.7180797 0.3277,1.7249509 -0.008,3.5591383 0.24818,5.3045953 0.84068,5.70491 3.60908,9.502599 10.0365,8.353135 6.78823,-1.214853 9.76835,2.191958 13.51435,7.498242 3.05426,4.325366 9.36635,8.147531 14.65074,8.869084 15.62028,2.129683 24.85248,12.200542 33.41188,23.545329 4.089,5.422041 4.8006,14.028101 14.2769,14.078058 0.5469,0.0041 1.2279,0.755537 1.6275,1.309271 6.4146,8.885322 13.0946,17.605954 19.0019,26.81063 1.9235,2.99866 2.2329,7.24068 2.5192,10.96325 0.3986,5.20675 0.3478,10.47561 0.013,15.68312 -0.665,10.27418 4.5136,17.76871 11.8544,23.99071 6.3479,5.37866 8.6913,11.81426 10.8045,19.83411 2.7152,10.31025 9.5797,19.60242 14.727,29.29876 0.4803,0.90741 1.8012,1.42327 2.1658,2.33809 4.1737,10.44426 9.687,19.50697 20.9726,24.13801 1.2354,0.50782 1.0549,6.11587 0.4822,9.14762 -1.1048,5.81302 -3.4148,11.40231 -4.2708,17.23581 -0.3056,2.08786 2.15,4.61049 3.3467,6.93642 2.1747,-1.1251 4.4781,-2.06984 6.4845,-3.43909 1.3507,-0.92008 2.2816,-2.4418 3.3996,-3.69803 0.1747,1.90003 1.0389,4.09206 0.3926,5.64456 -1.6469,3.96082 -0.2445,6.22423 2.4257,9.34953 2.1725,2.54368 3.4046,6.98684 3.0387,10.34642 -1.3612,12.53318 -6.8085,25.5668 -4.46,37.25229 2.0941,10.42355 -0.5254,21.30346 4.0625,30.96404 2.481,5.22223 2.3834,9.4653 1.5159,15.03565 -1.4034,8.98934 -0.7327,18.43037 9.751,23.63828 2.0812,1.03479 4.6746,5.02134 4.1397,6.69978 -3.1953,9.99338 1.5586,22.59204 -9.3243,30.06909 0.1767,8.43088 0.1232,16.87569 0.6867,25.28696 0.1455,2.19096 3.6031,4.6387 3.1747,6.3616 -3.7609,15.12554 1.9532,31.16912 -4.1521,46.05287 -1.2906,3.14379 -1.3492,6.80751 -1.8899,10.24743 -1.074,6.81249 -2.2948,13.60868 -3.0579,20.46041 -0.6197,5.55606 -1.206,11.21705 -0.8073,16.77279 0.4232,5.89825 -0.3516,10.31471 -4.4171,15.40692 -6.6073,8.27303 -13.7045,15.6372 -21.4721,22.85729 -7.116,6.61458 -10.6712,16.8584 -16.5145,24.98752 -5.4558,7.59025 -8.2288,15.06009 -3.7295,24.1327 0.4064,0.81912 -0.5909,2.69611 -1.4274,3.66336 -5.7149,6.61289 -11.8184,12.91251 -17.2574,19.73932 -2.5379,3.18646 -4.6376,7.12887 -5.6077,11.06656 -2.5798,10.48543 -9.9548,17.05303 -17.2586,24.18169 -6.9021,6.73812 -14.8721,13.94722 -17.9732,22.56179 -3.4139,9.48737 -9.5583,15.67102 -16.3974,21.28237 -10.20995,8.3753 -22.01451,14.8243 -32.43402,22.97935 -7.96588,6.23333 -15.00004,13.67498 -22.1307,20.88657 -3.74839,3.79074 -7.03791,7.23765 -13.06072,7.86154 -8.11406,0.83918 -16.48348,2.03725 -23.97232,4.96495 -7.46108,2.91619 -14.16643,7.88658 -20.82856,12.48187 -4.60042,3.17223 -8.1072,7.90991 -14.84086,6.88837 -1.82141,-0.27532 -4.42957,0.71609 -5.76705,2.03367 -7.66839,7.54745 -17.15078,7.08043 -25.92269,4.01684 -10.97364,-3.83524 -19.51856,-1.14803 -27.72092,5.51307 -2.46511,2.00066 -4.92881,4.00544 -7.44516,5.93894 -3.60069,2.76435 -6.99908,3.6446 -11.79903,1.42758 -3.57557,-1.6539 -8.37954,-1.66726 -12.40096,-1.0441 -5.1094,0.79202 -9.65787,3.39915 -15.36218,0.9917 -2.17126,-0.91487 -6.63342,0.76045 -8.55687,2.70774 -5.49307,5.56091 -11.16542,4.30744 -16.48006,0.7499 -8.52534,-5.70486 -17.4278,-7.0623 -27.52007,-6.67746 -6.21578,0.23525 -12.81464,2.32561 -19.48473,-1.47746 -2.89824,-1.65346 -8.81138,-0.25758 -12.24483,1.66957 -11.72695,6.58608 -21.5266,2.34783 -31.73485,-3.82983 -2.98885,-1.80949 -8.76219,-3.17077 -10.82763,-1.603 -6.81411,5.17107 -13.90947,1.45422 -20.71821,1.80206 -5.86309,0.29871 -11.87646,-1.1584 -17.77668,-2.14324 -6.66312,-1.11413 -13.43943,0.83264 -19.69278,-5.5344 -4.6049,-4.69048 -12.73276,-2.29257 -19.4469,-0.38151 -12.01463,3.41345 -11.95769,3.10419 -18.7275,-7.59722 -5.14303,-8.1274 -14.54216,-7.84222 -22.36177,-10.40686 -3.64027,-1.19235 -7.94255,-0.19729 -11.7142,-1.15031 -2.8307,-0.71749 -6.69644,-2.39205 -7.64256,-4.63476 -2.82045,-6.68035 -7.25747,-6.72133 -12.02282,-3.75702 -5.91037,3.6781 -8.03559,1.63034 -9.65264,-4.24582 -2.02422,-7.34944 -7.42416,-10.79539 -14.71061,-8.5491 -6.84051,2.11158 -10.71907,-0.75015 -12.55747,-6.33322 -4.44626,-13.49874 -14.04836,-21.65915 -25.99034,-28.61888 -7.93257,-4.62613 -14.90512,-10.26436 -24.4844,-11.97775 -3.48322,-0.62235 -7.51288,-5.5211 -8.93713,-9.31219 -3.32322,-8.84849 -8.34903,-15.45795 -16.87832,-19.86229 -5.36651,-2.76979 -10.35215,-6.37426 -15.20775,-10.00474 -4.32589,-3.23659 -7.70278,-6.93722 -7.85279,-13.17033 -0.1094,-4.61238 -2.93568,-7.68412 -8.83011,-5.9293 -8.57686,2.55603 -17.9908,-1.61012 -22.42306,-10.21641 -6.42474,-12.47244 -13.61045,-24.45728 -12.45962,-39.74898 0.42397,-5.61447 -4.41674,-13.6938 -9.33173,-17.31819 -8.02344,-5.91849 -8.2377,-13.43017 -9.01043,-21.32259 -0.39629,-4.04937 -0.27441,-7.84062 -5.70512,-8.63997 -1.07283,-0.1577 -2.6902,-1.85745 -2.76986,-2.92283 -0.68155,-9.266 -12.05132,-14.82818 -9.14928,-25.28838 0.16171,-0.58057 -0.12542,-1.66616 -0.58081,-1.99074 -12.10504,-8.62728 -14.55708,-25.83837 -30.57537,-31.65921 -10.92595,-3.97213 -11.10557,-9.65435 -4.3868,-19.75117 1.09605,-1.64522 2.40438,-4.33078 1.77426,-5.74469 -3.66041,-8.19825 -7.40975,-16.44089 -12.11602,-24.07326 -2.07793,-3.37503 -4.64981,-5.35925 -0.53513,-8.66495 4.32251,-3.47302 5.79093,-8.00209 3.48925,-13.28848 -1.83787,-4.21814 0.0847,-6.47719 3.49299,-8.55924 4.70102,-2.8713 5.19114,-6.3919 2.77889,-11.7454 -1.71616,-3.80929 -2.20223,-9.41209 -0.6766,-13.15565 7.95255,-19.53277 5.12959,-38.46642 -2.33716,-57.42019 -2.09208,-5.31229 -2.29951,-9.70076 2.98933,-13.86084 5.90746,-4.64781 7.06658,-12.09183 6.40298,-19.09349 -0.61245,-6.42483 0.32617,-11.94388 3.97156,-17.09046 5.26734,-7.43217 5.85874,-15.53924 3.92447,-24.33821 -1.75923,-8.007 0.33882,-14.50528 6.32788,-21.02147 7.48709,-8.14812 13.08987,-17.92462 14.39363,-29.73844 1.22911,-11.14892 2.82292,-22.43624 6.11851,-33.07272 1.74178,-5.61637 7.48079,-9.95435 11.36039,-14.91098 2.15891,-2.75882 4.60952,-5.39037 6.23514,-8.44682 6.94165,-13.07035 13.38096,-26.41376 20.52208,-39.37235 2.84906,-5.1685 7.04113,-9.59587 10.60475,-14.37235 3.77665,-5.06055 7.66428,-10.04348 11.25411,-15.23227 2.21096,-3.197511 3.44582,-7.167074 5.99224,-10.016896 9.53444,-10.677238 19.33489,-21.129146 29.22913,-31.478928 4.58854,-4.800394 9.34161,-9.536736 14.55847,-13.632424 4.04723,-3.176921 8.78844,-5.594175 13.47206,-7.839403 6.7297,-3.225707 11.55912,-5.933998 12.45648,-15.509586 1.00886,-10.749364 9.74327,-18.3380476 20.44578,-23.02905434 8.2276,-3.60580046 15.2605,-9.95025356 23.5919,-13.18833866 19.09128,-7.420616 33.07899,-24.481344 54.49156,-27.305438 9.30328,-1.22669 18.6244,-2.484207 27.81185,-4.304502 6.07446,-1.206244 12.85468,-1.522761 16.27496,-8.355571 0.59805,-1.183697 3.59242,-2.160383 5.06617,-1.740473 9.85761,2.807802 18.0414,-0.282857 25.6776,-6.005329 10.74754,-8.054691 23.60286,-8.61589 36.34567,-9.457525 2.39558,-0.159506 5.23147,1.060445 7.18062,0.181452 6.87827,-3.091874 13.45295,-6.831258 20.15637,-10.294395 0.93547,-0.482746 2.19494,-1.376726 2.91965,-1.091561 9.83624,3.879723 17.97708,-1.784095 26.73566,-4.046959 1.98473,-0.513044 4.64442,-1.040033 6.22283,-0.16968 13.24864,7.320563 27.58135,5.662824 41.6976,6.058858 4.58166,0.127722 9.30469,0.172969 13.70642,1.29832 11.63671,2.969642 23.01135,7.091263 34.72876,9.58418 6.08908,1.295756 12.85817,0.986378 19.00195,-0.159302 7.98638,-1.491004 14.60552,1.239407 21.49505,4.21148 4.90281,2.099012 9.93449,3.902395 14.63783,5.73872 z"
   id="path1574-6-8" /><path
   style="fill:#567030;fill-opacity:1;stroke-width:2.70686"
   d="m 964.589,64.218137 c 4.22039,6.161575 6.29874,14.279677 15.47059,14.664869 0.69637,0.02923 2.00817,1.358663 1.93177,1.920328 -1.08925,7.967784 6.64524,8.366183 10.13744,12.377366 2.12161,2.435237 3.42605,5.58938 5.47543,8.1039 1.88105,2.30046 4.02917,5.52569 6.47407,5.98282 5.8728,1.10008 9.0683,3.12291 9.3032,9.80531 0.2412,6.78557 2.8235,12.12942 10.6482,14.34319 5.947,1.68342 9.2506,13.87656 7.4974,23.1951 -0.2964,1.57161 -1.1865,3.01814 -1.5499,4.58369 -1.1846,5.11791 -0.1169,9.24992 5.666,10.38416 6.1078,1.19722 7.4831,5.06696 8.8723,10.80025 1.133,4.6737 5.1708,9.98972 9.3728,12.33677 12.4219,6.93503 16.8425,18.51313 20.2753,30.95154 1.6393,5.94415 -0.6157,13.48198 7.3319,16.63513 0.4583,0.1829 0.7817,1.04431 0.9338,1.64544 2.4456,9.64694 5.1689,19.24126 7.0821,28.99271 0.6226,3.17652 -0.5235,6.87845 -1.517,10.13189 -1.3911,4.54996 -3.1803,9.00524 -5.1882,13.31511 -3.9645,8.50179 -2.0968,16.56261 2.0101,24.25314 3.552,6.6488 3.388,12.88023 2.5054,20.38062 -1.1359,9.64201 1.5529,19.78191 2.6646,29.70124 0.1025,0.9278 1.042,1.79927 1.0453,2.69542 0.045,10.23445 1.6745,19.73606 9.6242,27.37121 0.8699,0.83655 -1.1409,5.53706 -2.6272,7.92224 -2.8556,4.57105 -6.6497,8.55665 -9.3029,13.22681 -0.9492,1.67162 0.2785,4.6188 0.5133,6.98572 2.2005,-0.24103 4.4496,-0.28675 6.5897,-0.79028 1.4404,-0.33751 2.7271,-1.32351 4.0833,-2.02266 -0.4832,1.66993 -0.4837,3.81406 -1.5415,4.91957 -2.6972,2.82109 -2.2688,5.20248 -1.0605,8.73157 0.9824,2.87202 0.545,7.04757 -0.876,9.7789 -5.299,10.19056 -14.1977,19.46449 -16.0976,30.15339 -1.6956,9.53424 -7.5037,17.90857 -6.8505,27.61388 0.3542,5.24675 -1.1345,8.8159 -3.7102,13.2589 -4.1595,7.16894 -6.7255,15.40205 0.3591,23.26358 1.4058,1.5614 2.2641,5.79628 1.258,7.04526 -5.9981,7.43285 -6.1795,19.68629 -17.8044,22.4599 -2.6464,7.21365 -5.4906,14.36358 -7.8055,21.68753 -0.6039,1.9073 1.4904,5.11972 0.5592,6.44138 -8.1749,11.60308 -8.691,27.09556 -18.7561,37.72387 -2.1267,2.24461 -3.3906,5.3349 -4.9854,8.07698 -3.1611,5.42948 -6.4399,10.79692 -9.3527,16.36175 -2.3625,4.51222 -4.7319,9.12449 -6.2385,13.97069 -1.5997,5.14502 -3.715,8.63907 -8.81981,11.62647 -8.2956,4.85274 -16.70155,8.77324 -25.62318,12.35144 -8.17315,3.27819 -14.55686,10.80548 -22.16275,15.78683 -7.10139,4.65123 -11.90813,10.08092 -11.13429,19.25813 0.07,0.82862 -1.39041,2.09433 -2.41421,2.64062 -6.99511,3.73667 -14.21304,7.07986 -21.04731,11.08862 -3.18928,1.87137 -6.26072,4.52826 -8.38138,7.55187 -5.64424,8.0525 -14.01954,11.2058 -22.52112,14.85859 -8.0345,3.45322 -17.12261,6.95563 -22.5845,13.24921 -6.01428,6.93165 -13.22811,10.16303 -20.83621,12.68052 -11.35713,3.75697 -23.41599,5.35554 -34.87637,8.85674 -8.76116,2.67556 -17.13986,6.68256 -25.52337,10.46265 -4.40691,1.98685 -8.31419,3.83255 -13.58283,2.38508 -7.09755,-1.95128 -14.52871,-3.68179 -21.79313,-3.65525 -7.23727,0.026 -14.52041,2.04345 -21.64284,3.75672 -4.91794,1.18221 -9.43573,4.05215 -14.75631,0.97476 -1.43951,-0.83155 -3.96017,-0.84628 -5.52103,-0.16706 -8.94674,3.8886 -16.7613,0.37951 -23.11796,-5.10004 -7.95125,-6.85738 -16.02354,-7.38154 -25.12527,-4.42052 -2.73495,0.88881 -5.47015,1.78162 -8.22592,2.59663 -3.94255,1.16427 -7.09054,0.79583 -10.38964,-2.66147 -2.45674,-2.57745 -6.48976,-4.16576 -10.07607,-4.95687 -4.5567,-1.00498 -9.24367,-0.28529 -13.2397,-4.20109 -1.52157,-1.48923 -5.82708,-1.53209 -8.08913,-0.51071 -6.46003,2.91658 -10.81181,-0.01 -14.09908,-4.7733 -5.27385,-7.6404 -12.30577,-11.71482 -20.91529,-14.70112 -5.30196,-1.84073 -11.54083,-2.23268 -15.88592,-7.64995 -1.88763,-2.35474 -7.32002,-3.11107 -10.84447,-2.60248 -12.03906,1.74037 -18.87003,-5.07361 -25.40155,-13.66779 -1.91207,-2.51684 -6.31293,-5.56741 -8.56857,-4.91474 -7.44099,2.15202 -12.1721,-3.33172 -18.00974,-5.2715 -5.02655,-1.67107 -9.59738,-4.88175 -14.22966,-7.65442 -5.2306,-3.13281 -11.57102,-3.70488 -14.71591,-11.16152 -2.31521,-5.49257 -9.9411,-6.12545 -16.21742,-6.70744 -11.22909,-1.04679 -11.07874,-1.29056 -13.22079,-12.59556 -1.62815,-8.58625 -9.62207,-11.42956 -15.34379,-16.17307 -2.66415,-2.20699 -6.60981,-2.7747 -9.46371,-4.82167 -2.14116,-1.53813 -4.83499,-4.22833 -4.88668,-6.4424 -0.15586,-6.59573 -3.87131,-8.087 -8.85896,-7.13537 -6.1866,1.18165 -7.29387,-1.25397 -6.70493,-6.77212 0.73509,-6.9022 -2.66086,-11.5995 -9.52932,-12.08482 -6.44901,-0.45329 -8.76003,-4.15532 -8.45429,-9.49736 0.73802,-12.91641 -4.62675,-22.99444 -12.35607,-32.82148 -5.13327,-6.5303 -9.12418,-13.60447 -16.60697,-18.20319 -2.72111,-1.67161 -4.48385,-7.15212 -4.42409,-10.83729 0.14033,-8.60093 -1.89253,-15.86039 -7.60081,-22.39834 -3.59201,-4.11242 -6.58725,-8.80825 -9.46458,-13.48349 -2.5627,-4.16704 -4.17399,-8.41638 -2.23379,-13.75591 1.43706,-3.95059 0.08,-7.48546 -5.45558,-7.93097 -8.05565,-0.64604 -14.58639,-7.27221 -15.45843,-16.03163 -1.26495,-12.69481 -3.3311,-25.22556 2.70529,-37.82642 2.21753,-4.62606 0.82751,-13.07229 -2.10172,-17.76183 -4.78121,-7.65702 -2.47116,-14.10278 -0.50425,-21.05504 1.00932,-3.56694 2.36855,-6.74472 -1.93064,-9.20583 -0.84938,-0.48601 -1.64519,-2.45956 -1.35896,-3.38994 2.49889,-8.08814 -5.21282,-16.5412 0.69372,-24.46654 0.32837,-0.43967 0.44692,-1.45531 0.17179,-1.88028 -7.31358,-11.29589 -3.66885,-26.70847 -15.2016,-36.907 -7.86584,-6.95783 -6.13315,-11.83952 2.86069,-18.20356 1.46655,-1.03658 3.45639,-2.88643 3.39552,-4.29333 -0.35862,-8.15973 -0.77726,-16.38632 -2.20243,-24.40906 -0.62756,-3.54661 -2.1313,-6.07494 2.42268,-7.52993 4.78411,-1.52878 7.51961,-4.89075 7.33766,-10.13307 -0.14632,-4.18339 2.21833,-5.46965 5.77301,-6.11795 4.90274,-0.89381 6.48175,-3.72098 6.22909,-9.05657 -0.17953,-3.79642 1.26929,-8.7113 3.79247,-11.38779 13.15875,-13.96773 17.06277,-30.96406 17.07061,-49.50188 0.002,-5.19547 1.28324,-8.98823 7.10723,-10.78293 6.50561,-2.00561 9.94748,-7.94315 11.71081,-14.10353 1.61512,-5.65405 4.23356,-10.03018 9.00335,-13.20163 6.89065,-4.57891 10.07518,-11.26557 11.36642,-19.36851 1.17582,-7.37332 5.09328,-12.19996 12.28683,-15.76454 8.99352,-4.4579 16.94323,-10.91644 21.95526,-20.5153 4.72886,-9.05904 9.81011,-18.11583 16.10585,-26.06161 3.32568,-4.195063 9.587,-5.992998 14.4907,-8.926356 2.729,-1.632822 5.66093,-3.061901 8.04038,-5.122398 10.16686,-8.814655 20.00205,-18.025937 30.29947,-26.680258 4.10784,-3.451462 9.09868,-5.833058 13.67709,-8.717242 4.85161,-3.055362 9.77075,-6.008419 14.50789,-9.233944 2.91813,-1.98808 5.27187,-4.951847 8.3567,-6.534706 11.55261,-5.932415 23.25409,-11.586259 35.00055,-17.122634 5.44769,-2.568052 11.01247,-5.0277277 16.75464,-6.7914089 4.45459,-1.3678337 9.24061,-1.8631058 13.92119,-2.2312733 6.72522,-0.5286944 11.68183,-1.2420237 15.61032,-9.0746268 4.41132,-8.792219 14.26767,-12.365875 24.81754,-12.834113 8.1101,-0.3596 16.12401,-3.435764 24.19947,-3.449189 18.50497,-0.03129 35.9164,-9.919768 54.8485,-5.287819 8.22548,2.012749 16.47616,4.005184 24.80106,5.476094 5.50508,0.970208 11.30836,2.927238 16.44798,-1.749287 0.89501,-0.80833 3.73538,-0.654352 4.83475,0.185809 7.35392,5.618936 15.25644,5.682179 23.57118,3.33195 11.70278,-3.308343 22.6929,0.43522 33.68144,3.903833 2.06621,0.650985 4.04517,2.617314 5.97473,2.511116 6.80571,-0.366336 13.57089,-1.381907 20.35271,-2.120755 0.94626,-0.102621 2.30116,-0.447953 2.81566,0.03196 6.98066,6.5217235 15.70006,4.3869247 23.81121,5.3414054 1.83816,0.216088 4.24814,0.6418744 5.28619,1.8987065 8.70784,10.5622098 21.30316,13.8600795 33.03568,18.8299871 3.80827,1.612372 7.76263,3.201136 11.089,5.601181 8.79545,6.3403 16.98882,13.572301 26.01015,19.53447 4.68794,3.098562 10.4795,5.057995 16.02278,6.10237 7.2063,1.356117 11.8641,5.846307 16.66911,10.630374 3.42466,3.390896 7.05566,6.573192 10.39965,9.675662 z"
   id="path1574-6-8-9" /><path
   style="fill:#9c8936;fill-opacity:1;stroke-width:2.3732"
   d="m 1046.8545,274.72232 c 0.4173,6.53447 -1.6566,13.58269 5.081,17.98502 0.5116,0.33423 0.9039,1.92399 0.5946,2.31292 -4.393,5.5148 1.2557,9.28265 2.0886,13.87048 0.5066,2.786 0.075,5.74724 0.4918,8.56054 0.386,2.57659 0.5584,5.96966 2.1955,7.41023 3.9315,3.46184 5.4322,6.41859 2.6131,11.55858 -2.8605,5.22057 -3.3108,10.40452 1.592,15.58061 3.726,3.93464 0.7483,14.60237 -4.7506,20.83716 -0.9279,1.05123 -2.2469,1.74205 -3.2226,2.75863 -3.1871,3.32487 -4.2352,6.91674 -0.3868,10.364 4.0651,3.64038 3.3663,7.17257 1.8424,12.115 -1.2417,4.0293 -0.5828,9.84492 1.5308,13.49715 6.2497,10.79429 4.3894,21.49947 1.3992,32.40996 -1.4301,5.21339 -6.5088,9.88158 -1.9343,15.82058 0.2633,0.34322 0.1206,1.13723 -0.033,1.65837 -2.4825,8.36474 -4.7324,16.81427 -7.6629,25.01909 -0.9551,2.6724 -3.4782,4.94769 -5.6855,6.95349 -3.0881,2.80434 -6.4334,5.35899 -9.8784,7.70594 -6.7988,4.62793 -9.0057,11.53855 -9.3595,19.17412 -0.3047,6.60189 -3.222,11.22333 -7.2498,16.47861 -5.1787,6.75531 -7.699,15.60045 -11.3087,23.57235 -0.3387,0.74498 -0.022,1.82281 -0.4208,2.49945 -4.55402,7.73146 -7.58699,15.62039 -5.02051,24.93717 0.28039,1.0203 -3.34221,3.66023 -5.53133,4.79092 -4.20089,2.1637 -8.84633,3.46548 -12.9392,5.79457 -1.46454,0.83391 -1.86098,3.60479 -2.74538,5.49331 1.76622,0.80509 3.4812,1.77894 5.31932,2.35907 1.23641,0.39143 2.64796,0.22548 3.98327,0.30673 -1.11281,1.04153 -2.07427,2.65687 -3.36691,3.01555 -3.29694,0.9162 -4.04198,2.90244 -4.71392,6.10299 -0.54742,2.60439 -2.74898,5.55425 -5.04424,6.97499 -8.56114,5.30214 -19.42363,8.29967 -25.64733,15.50121 -5.5521,6.42311 -13.68263,10.12859 -17.54173,17.73371 -2.0856,4.11177 -4.80741,6.13342 -8.73995,8.32612 -6.34796,3.53643 -11.97256,8.589 -10.15949,17.68838 0.35921,1.80676 -0.89285,5.38222 -2.21074,5.8722 -7.85176,2.91082 -13.48203,12.06166 -23.48418,8.93938 -5.22792,4.24853 -10.57651,8.36027 -15.6042,12.84047 -1.31025,1.16618 -1.17247,4.52555 -2.46658,5.10385 -11.36143,5.07687 -18.69627,16.5179 -31.04463,20.01302 -2.60868,0.73763 -4.9464,2.4993 -7.37739,3.85025 -4.81585,2.67349 -9.69265,5.24742 -14.38215,8.1342 -3.80306,2.34039 -7.65604,4.75312 -10.96396,7.7289 -3.51196,3.15919 -6.67224,4.84331 -11.85768,4.80543 -8.4258,-0.0631 -16.51682,-0.878 -24.84287,-2.18203 -7.62762,-1.19449 -15.81209,1.61473 -23.77588,1.95776 -7.43572,0.32053 -13.49161,2.25635 -17.02309,9.51766 -0.31876,0.65568 -1.98656,0.95453 -3.00284,0.90711 -6.94561,-0.32088 -13.8827,-1.03813 -20.82909,-1.08191 -3.2419,-0.0199 -6.74721,0.60478 -9.70059,1.93211 -7.86278,3.5364 -15.5867,2.15718 -23.62973,1.09771 -7.60163,-1.00046 -16.01914,-2.43625 -22.95595,-0.14326 -7.63905,2.52605 -14.5229,1.72637 -21.38375,0.21213 -10.24119,-2.26128 -20.04336,-6.46337 -30.24765,-8.96363 -7.80046,-1.91213 -15.90971,-2.64965 -23.92082,-3.56033 -4.2111,-0.47885 -7.98246,-0.84003 -11.30303,-4.29274 -4.47264,-4.65226 -9.2956,-9.28777 -14.78073,-12.52473 -5.46443,-3.22512 -11.85622,-4.9705 -17.99059,-6.87296 -4.23535,-1.31419 -8.92586,-1.17741 -11.55484,-5.88144 -0.71174,-1.2719 -2.60428,-2.4131 -4.08477,-2.60117 -8.48415,-1.08142 -12.7986,-7.22885 -15.13113,-14.20724 -2.91628,-8.7314 -8.76315,-12.74546 -16.94819,-14.59522 -2.45908,-0.55654 -4.92012,-1.11019 -7.36182,-1.73165 -3.4924,-0.89044 -5.699,-2.57939 -6.63457,-6.66333 -0.69539,-3.04338 -3.02189,-6.04822 -5.36923,-8.25216 -2.98255,-2.80015 -6.83651,-4.35928 -8.09163,-9.10112 -0.4787,-1.80419 -3.70337,-3.76683 -5.86558,-4.01146 -6.1748,-0.69887 -8.14201,-4.85396 -8.48257,-9.91753 -0.54793,-8.12098 -4.01927,-14.34346 -9.16703,-20.45343 -3.16936,-3.76393 -7.69418,-6.85638 -8.5391,-12.88597 -0.36647,-2.62043 -4.12028,-5.62583 -7.00373,-6.82282 -9.85082,-4.08634 -11.94247,-12.28278 -13.01038,-21.68621 -0.31221,-2.75354 -2.26024,-7.02499 -4.25232,-7.54456 -6.57109,-1.7147 -7.67705,-7.96745 -11.20561,-12.0462 -3.03791,-3.51264 -5.04222,-7.98094 -7.28922,-12.14678 -2.53629,-4.70544 -7.05687,-7.97913 -6.08318,-15.00713 0.71819,-5.17627 -4.7436,-9.07209 -9.21144,-12.32451 -7.99099,-5.82314 -7.7684,-5.93941 -4.31381,-15.41727 2.6229,-7.19908 -2.12517,-12.92529 -4.30935,-19.06448 -1.01778,-2.85724 -3.73602,-5.05398 -4.96846,-7.87576 -0.92361,-2.11882 -1.74708,-5.35344 -0.79336,-7.04477 2.83969,-5.03927 0.70897,-7.82861 -3.47551,-9.3478 -5.19093,-1.8834 -4.93321,-4.21493 -2.01546,-8.1084 3.64837,-4.87072 3.19577,-9.93235 -1.76154,-13.37742 -4.65562,-3.23287 -4.73703,-7.05821 -2.11162,-10.94598 6.34701,-9.40068 6.82342,-19.39898 5.4058,-30.26834 -0.93973,-7.22154 -0.77494,-14.34073 -4.35089,-21.16036 -1.3007,-2.47941 -0.17167,-7.39889 1.52556,-10.14861 3.9619,-6.41724 5.685,-12.79815 4.31544,-20.28325 -0.86255,-4.70887 -1.01391,-9.58972 -1.08566,-14.40219 -0.0626,-4.28852 0.62862,-8.21253 4.48432,-11.36559 2.85396,-2.33219 3.41636,-5.60388 -0.5546,-8.42137 -5.77969,-4.0984 -7.72934,-12.01874 -4.45914,-19.0093 4.73853,-10.13176 8.79989,-20.4991 18.99738,-27.28659 3.7448,-2.49118 6.48431,-9.478 6.37984,-14.32452 -0.16934,-7.91261 4.46105,-11.73334 9.05992,-16.08949 2.35967,-2.23492 4.80847,-4.01974 2.67278,-7.80152 -0.42205,-0.747 -0.13682,-2.59072 0.49597,-3.16337 5.50897,-4.97346 3.48859,-14.7997 11.49201,-18.12273 0.44452,-0.18403 0.9892,-0.8961 0.97245,-1.33961 -0.44585,-11.78963 9.21029,-21.76779 5.0936,-34.62226 -2.80683,-8.76879 0.68729,-11.66996 10.31673,-12.4325 1.56969,-0.12346 3.89825,-0.62508 4.48317,-1.71235 3.38813,-6.30854 6.76105,-12.69436 9.28421,-19.3779 1.11727,-2.95346 1.11786,-5.53255 5.20129,-4.58705 4.28989,0.99309 7.85821,-0.31348 10.07145,-4.34477 1.76536,-3.21746 4.12362,-3.1264 7.09248,-2.02115 4.09458,1.52467 6.55179,0.1026 8.7536,-4.0307 1.56682,-2.94081 4.86194,-5.99424 7.96297,-6.87956 16.17645,-4.62403 26.73798,-15.67923 35.05516,-29.64258 2.33101,-3.913431 4.99663,-6.196667 10.18922,-4.937711 5.80071,1.405655 11.05595,-1.524697 15.14645,-5.375553 3.7518,-3.535788 7.6866,-5.658922 12.70221,-5.909874 7.24451,-0.360531 12.64172,-3.970672 17.24745,-9.496751 4.19166,-5.028087 9.30716,-6.908261 16.32512,-6.368733 8.77464,0.673465 17.65977,-0.628401 25.73954,-5.613331 7.6244,-4.705185 15.5133,-9.250694 23.8191,-12.414623 4.38648,-1.669622 9.90999,-0.217043 14.91972,-0.228592 2.78815,-0.0073 5.63787,0.231128 8.35443,-0.254507 11.61194,-2.082985 23.15182,-4.6135 34.79029,-6.517126 4.64239,-0.758723 9.47041,-0.315482 14.21298,-0.435824 5.02519,-0.126806 10.05537,-0.14627 15.0706,-0.452628 3.08993,-0.189546 6.19208,-1.367248 9.22594,-1.176762 11.36381,0.709877 22.71488,1.69637 34.04716,2.791522 5.2558,0.507585 10.55123,1.149324 15.66826,2.394962 3.96947,0.966607 7.79742,2.739234 11.48898,4.560344 5.304,2.61686 9.35825,4.301668 15.82976,0.161672 7.26552,-4.64652 16.2938,-2.919995 24.45228,1.457159 6.2716,3.365158 13.68866,4.640454 19.77895,8.250901 13.95617,8.272961 31.50783,8.628974 43.69509,20.606861 5.29489,5.204267 10.61789,10.404529 16.23063,15.245153 3.71271,3.199151 7.20765,7.275481 13.17663,6.056341 1.03674,-0.20774 3.10771,1.18171 3.55933,2.30762 3.02145,7.53052 8.94707,11.12121 16.26533,13.0783 10.30044,2.75424 16.90232,10.50206 23.62625,18.04204 1.26489,1.41683 1.8743,3.78557 3.37569,4.57066 5.29186,2.77527 10.84424,5.04321 16.28511,7.52711 0.75896,0.34694 1.93457,0.6942 2.10706,1.28647 2.33549,8.04337 9.86199,10.34422 15.54522,14.69991 1.28812,0.98692 2.91295,2.38822 3.1315,3.80054 1.8253,11.86195 9.83635,19.99367 16.44775,28.99829 2.1464,2.92221 4.4134,5.89213 5.8435,9.19173 3.7841,8.72032 6.7148,17.84254 10.8386,26.37923 2.1428,4.43633 5.6278,8.50921 9.3361,11.78135 4.8215,4.25261 6.3176,9.72393 7.793,15.48265 1.06,4.09022 2.3688,8.11576 3.4974,11.95251 z"
   id="path1574-6-8-9-3" />
</svg>
