<?xml version="1.0" encoding="utf-8"?>
<!-- Generator: Adobe Illustrator 27.5.0, SVG Export Plug-In . SVG Version: 6.00 Build 0)  -->
<svg version="1.1" id="Layer_1" xmlns="http://www.w3.org/2000/svg" xmlns:xlink="http://www.w3.org/1999/xlink" x="0px" y="0px"
	 viewBox="150 0 150 227.654" style="enable-background:new 0 0 331.06 227.654;" xml:space="preserve">

<g xmlns="http://www.w3.org/2000/svg" style="opacity:0.5;">
			<path style="fill:#779900;" d="M178.015,208.973c0.223-0.022,1.833,0.701,0.201,1.806c-0.693,0.471-0.986-0.132-1.122-0.372     C177.018,210.278,177.404,209.04,178.015,208.973C178.581,208.915,177.749,209.002,178.015,208.973z"/>
			<path style="fill:#779900;" d="M179.717,196.026c0.128,0.08-0.512,0.822-0.639,0.742     C178.95,196.688,179.59,195.946,179.717,196.026z"/>
			<path style="fill:#779900;" d="M191.38,207.322c0.454,0.072,0.809,0.264,1.076,0.555c0.091,0.101,0.463,0.175,0.23,0.602     c-0.178,0.327-0.576,0.681-0.706,0.667c-0.467-0.056-0.861-0.204-1.157-0.461c-0.105-0.094-0.497-0.149-0.25-0.601     C190.778,207.712,191.235,207.302,191.38,207.322C192.011,207.421,191.147,207.286,191.38,207.322z"/>
			<path style="fill:#779900;" d="M193.337,206.495c0.683,0.028,0.979,0.528,1.096,1.198c0.031,0.188,0.317,1.736-0.543,2.398     c-0.627,0.484-0.823-1.273-0.955-1.514c-0.184-0.326-0.362-0.661-0.49-1.048C192.386,207.355,193.128,206.486,193.337,206.495     C194.452,206.544,193.131,206.485,193.337,206.495z"/>
			<path style="fill:#779900;" d="M153.35,199.145c0.844,0.133,1.505,0.489,2.001,1.03c0.169,0.186,0.861,0.326,0.426,1.122     c-0.333,0.612-1.069,1.265-1.311,1.238c-0.874-0.098-1.6-0.376-2.152-0.857c-0.195-0.173-0.924-0.274-0.469-1.112     C152.226,199.872,153.08,199.104,153.35,199.145C154.525,199.326,152.917,199.074,153.35,199.145z"/>
			<path style="fill:#779900;" d="M173.763,196.333c0.569-0.114,0.812,0.187,0.884,0.647c0.028,0.167,0.192,1.483-0.755,2.161     c-0.479,0.344-0.321-1.148-0.439-1.322c-0.142-0.212-0.329-0.376-0.346-0.724C173.1,196.928,173.576,196.37,173.763,196.333     C174.739,196.136,173.574,196.371,173.763,196.333z"/>
			<path style="fill:#779900;" d="M178.422,187.87c0.383,0.279,0.478,0.882,0.555,1.494c0.021,0.162,0.269,0.402-0.023,0.852     c-0.212,0.328-0.651,0.752-0.735,0.662c-0.323-0.349-0.525-0.83-0.626-1.419c-0.029-0.166-0.258-0.41,0.048-0.887     C177.875,188.212,178.319,187.799,178.422,187.87C178.919,188.234,178.274,187.765,178.422,187.87z"/>
			<path style="fill:#779900;" d="M176.776,191.633c0.266-0.03,1.456,0.988,0.978,1.508c-0.269,0.294-0.723-0.39-0.815-0.447     c-0.176-0.11-0.423-0.138-0.567-0.283C176.392,192.429,176.328,191.684,176.776,191.633     C177.16,191.589,176.642,191.648,176.776,191.633z"/>
			<path style="fill:#779900;" d="M178.47,186.442c0.764-0.323,1.143-0.137,1.421,0.143c0.068,0.071,0.96,0.539-0.1,1.365     c-0.599,0.466-0.992-0.253-1.206-0.342c-0.253-0.103-0.515-0.194-0.795-0.266C177.64,187.306,178.198,186.556,178.47,186.442z"/>
			<path style="fill:#779900;" d="M201.575,168.482c0.224-0.023,1.834,0.7,0.2,1.806c-0.692,0.47-0.985-0.133-1.123-0.373     C200.577,169.786,200.964,168.549,201.575,168.482C202.141,168.424,201.308,168.512,201.575,168.482z"/>
			<path style="fill:#779900;" d="M203.278,155.536c0.128,0.079-0.512,0.821-0.64,0.742     C202.511,156.197,203.149,155.456,203.278,155.536z"/>
			<path style="fill:#779900;" d="M214.94,166.832c0.454,0.07,0.809,0.264,1.076,0.555c0.09,0.1,0.462,0.176,0.23,0.602     c-0.179,0.326-0.577,0.68-0.706,0.666c-0.468-0.056-0.861-0.202-1.157-0.461c-0.105-0.094-0.497-0.148-0.25-0.601     C214.338,167.222,214.794,166.811,214.94,166.832C215.572,166.93,214.707,166.795,214.94,166.832z"/>
			<path style="fill:#779900;" d="M216.897,166.004c0.683,0.029,0.981,0.529,1.097,1.198c0.03,0.188,0.317,1.737-0.543,2.399     c-0.628,0.482-0.822-1.273-0.954-1.515c-0.185-0.325-0.362-0.662-0.491-1.047C215.947,166.865,216.689,165.995,216.897,166.004     C218.012,166.053,216.69,165.994,216.897,166.004z"/>
			<path style="fill:#779900;" d="M197.324,155.843c0.567-0.115,0.811,0.187,0.883,0.646c0.027,0.167,0.192,1.484-0.755,2.161     c-0.479,0.344-0.321-1.146-0.439-1.322c-0.142-0.211-0.33-0.376-0.346-0.724C196.66,156.436,197.135,155.878,197.324,155.843     C198.299,155.646,197.133,155.881,197.324,155.843z"/>
			<path style="fill:#779900;" d="M201.983,147.379c0.383,0.279,0.478,0.883,0.554,1.494c0.022,0.162,0.269,0.402-0.022,0.852     c-0.212,0.327-0.653,0.751-0.735,0.661c-0.322-0.348-0.526-0.83-0.627-1.417c-0.029-0.167-0.258-0.411,0.05-0.888     C201.435,147.722,201.877,147.308,201.983,147.379C202.479,147.743,201.835,147.273,201.983,147.379z"/>
			<path style="fill:#779900;" d="M200.336,151.143c0.264-0.031,1.456,0.987,0.977,1.508c-0.268,0.294-0.723-0.391-0.815-0.447     c-0.176-0.111-0.423-0.137-0.568-0.284C199.952,151.936,199.888,151.192,200.336,151.143     C200.72,151.098,200.201,151.158,200.336,151.143z"/>
			<path style="fill:#779900;" d="M202.03,145.952c0.763-0.322,1.142-0.137,1.421,0.143c0.068,0.072,0.959,0.539-0.1,1.364     c-0.599,0.466-0.992-0.253-1.206-0.342c-0.254-0.1-0.516-0.195-0.795-0.266C201.199,146.815,201.758,146.065,202.03,145.952z"/>
			<path style="fill:#779900;" d="M213.6,33.797c0.224-0.022,1.834,0.701,0.202,1.806c-0.694,0.47-0.987-0.133-1.124-0.373     C212.602,35.103,212.989,33.864,213.6,33.797C214.167,33.739,213.335,33.827,213.6,33.797z"/>
			<path style="fill:#779900;" d="M215.303,20.851c0.127,0.08-0.512,0.821-0.639,0.741C214.536,21.513,215.175,20.77,215.303,20.851     z"/>
			<path style="fill:#779900;" d="M226.965,32.147c0.455,0.071,0.809,0.263,1.077,0.554c0.09,0.1,0.462,0.175,0.23,0.603     c-0.178,0.327-0.576,0.68-0.706,0.665c-0.468-0.054-0.86-0.202-1.156-0.46c-0.105-0.094-0.497-0.148-0.251-0.6     C226.363,32.536,226.82,32.125,226.965,32.147C227.598,32.246,226.732,32.109,226.965,32.147z"/>
			<path style="fill:#779900;" d="M228.923,31.319c0.683,0.029,0.98,0.528,1.097,1.197c0.029,0.187,0.317,1.738-0.544,2.4     c-0.627,0.483-0.821-1.273-0.954-1.515c-0.184-0.326-0.362-0.66-0.49-1.046C227.973,32.18,228.714,31.31,228.923,31.319     C230.037,31.368,228.717,31.309,228.923,31.319z"/>
			<path style="fill:#779900;" d="M209.348,21.157c0.57-0.114,0.813,0.188,0.884,0.648c0.027,0.167,0.192,1.483-0.755,2.162     c-0.479,0.342-0.322-1.149-0.44-1.323c-0.142-0.213-0.329-0.376-0.346-0.724C208.686,21.751,209.161,21.195,209.348,21.157     C210.325,20.96,209.159,21.195,209.348,21.157z"/>
			<path style="fill:#779900;" d="M214.008,12.694c0.383,0.28,0.479,0.883,0.554,1.494c0.023,0.161,0.269,0.402-0.023,0.852     c-0.212,0.328-0.651,0.752-0.735,0.662c-0.321-0.348-0.524-0.83-0.625-1.418c-0.03-0.167-0.259-0.411,0.047-0.887     C213.46,13.036,213.904,12.623,214.008,12.694C214.504,13.059,213.86,12.588,214.008,12.694z"/>
			<path style="fill:#779900;" d="M212.36,16.458c0.267-0.031,1.456,0.988,0.979,1.508c-0.269,0.293-0.724-0.39-0.816-0.447     c-0.175-0.111-0.423-0.138-0.567-0.284C211.977,17.252,211.914,16.508,212.36,16.458     C212.746,16.413,212.227,16.473,212.36,16.458z"/>
			<path style="fill:#779900;" d="M214.055,11.266c0.764-0.322,1.143-0.136,1.421,0.144c0.067,0.071,0.959,0.539-0.1,1.364     c-0.599,0.466-0.993-0.252-1.207-0.342c-0.253-0.101-0.515-0.194-0.794-0.265C213.224,12.13,213.783,11.38,214.055,11.266z"/>
			<path style="fill:#779900;" d="M259.957,192.214c0.451-1.075,0.145-1.468-0.284-1.639c-0.116-0.045-1.291-0.483-1.98,0.912     c-0.32,0.649,0.73,0.616,0.872,0.841C258.592,192.371,259.3,193.787,259.957,192.214     C260.631,190.6,259.795,192.599,259.957,192.214z"/>
			<path style="fill:#779900;" d="M255.492,194.136c0.545-0.909,0.479-2.82-0.739-1.647     C253.583,193.615,254.798,195.29,255.492,194.136C256.344,192.718,255.275,194.495,255.492,194.136z"/>
			<path style="fill:#779900;" d="M255.244,189.829c-0.189-0.218-0.318-0.501-0.462-0.768c-0.131-0.236-1.201,0.897-1.163,1.233     c0.033,0.317,0.141,0.56,0.438,0.581C254.188,190.892,255.496,190.125,255.244,189.829     C255.055,189.611,255.35,189.957,255.244,189.829z"/>
			<path style="fill:#779900;" d="M257.589,189.702c-0.159-0.248-0.336-0.479-0.398-0.831c-0.001-0.006-0.564-0.632-0.845,0.359     c-0.197,0.701-0.294,1.347,0.074,1.464C256.54,190.736,257.798,190.041,257.589,189.702z"/>
			<path style="fill:#779900;" d="M242.678,215.677c-0.159-0.248-0.336-0.479-0.398-0.83c-0.002-0.007-0.565-0.631-0.845,0.359     c-0.198,0.7-0.295,1.346,0.074,1.463C241.628,216.712,242.887,216.016,242.678,215.677z"/>
			<path style="fill:#779900;" d="M264.14,191.322c0.087-0.307-0.13-1.593-1.161,0.006     C262.062,192.753,263.877,192.271,264.14,191.322C264.267,190.868,264.036,191.692,264.14,191.322z"/>
			<path style="fill:#779900;" d="M250.089,178.837c0.225-0.537,0.072-0.733-0.143-0.817c-0.055-0.025-0.643-0.243-0.988,0.454     c-0.159,0.325,0.365,0.309,0.437,0.42C249.407,178.916,249.76,179.625,250.089,178.837     C250.426,178.03,250.007,179.031,250.089,178.837z"/>
			<path style="fill:#779900;" d="M249.855,180.429c-0.005-0.169-0.617-0.847-1.118-0.014c-0.21,0.352,0.148,0.585,0.231,0.664     C249.045,181.149,249.854,180.901,249.855,180.429C249.85,180.261,249.85,180.583,249.855,180.429z"/>
			<path style="fill:#779900;" d="M248.24,180.254c-0.03-0.102-0.429,0.321-0.399,0.424     C247.87,180.779,248.269,180.355,248.24,180.254z"/>
			<path style="fill:#779900;" d="M247.856,179.798c0.273-0.453,0.237-1.407-0.372-0.819     C246.902,179.539,247.507,180.379,247.856,179.798C248.284,179.089,247.748,179.979,247.856,179.798z"/>
			<path style="fill:#779900;" d="M252.182,178.391c0.04-0.15-0.068-0.795-0.578,0C251.143,179.106,252.051,178.864,252.182,178.391     C252.244,178.164,252.129,178.577,252.182,178.391z"/>
			<path style="fill:#779900;" d="M249.385,182.843c0.007-0.11-0.354-0.845-0.745-0.088c-0.128,0.249,0.197,0.333,0.25,0.416     C248.904,183.184,249.357,183.173,249.385,182.843C249.413,182.534,249.374,182.957,249.385,182.843z"/>
			<path style="fill:#779900;" d="M262.913,178.518c0.221-0.534,0.071-0.734-0.144-0.82c-0.059-0.019-0.647-0.239-0.99,0.459     c-0.161,0.324,0.365,0.308,0.436,0.42C262.229,178.596,262.579,179.308,262.913,178.518     C263.249,177.71,262.828,178.713,262.913,178.518z"/>
			<path style="fill:#779900;" d="M262.674,180.112c0-0.174-0.609-0.855-1.113-0.019c-0.211,0.351,0.145,0.59,0.229,0.665     C261.864,180.832,262.677,180.581,262.674,180.112C262.673,179.939,262.677,180.259,262.674,180.112z"/>
			<path style="fill:#779900;" d="M261.063,179.934c-0.029-0.103-0.432,0.324-0.403,0.427     C260.69,180.463,261.092,180.035,261.063,179.934z"/>
			<path style="fill:#779900;" d="M260.68,179.479c0.273-0.453,0.241-1.412-0.372-0.821     C259.725,179.218,260.33,180.059,260.68,179.479C261.103,178.771,260.571,179.659,260.68,179.479z"/>
			<path style="fill:#779900;" d="M221.788,201.758c0.274-0.453,0.243-1.411-0.371-0.821     C220.835,201.499,221.438,202.338,221.788,201.758C222.212,201.052,221.679,201.939,221.788,201.758z"/>
			<path style="fill:#779900;" d="M265.001,178.074c0.043-0.154-0.064-0.8-0.577,0.001     C263.962,178.789,264.87,178.547,265.001,178.074C265.067,177.845,264.952,178.256,265.001,178.074z"/>
			<path style="fill:#779900;" d="M262.208,182.522c0.006-0.113-0.355-0.847-0.742-0.093c-0.134,0.259,0.195,0.337,0.248,0.421     C261.723,182.866,262.177,182.854,262.208,182.522C262.232,182.217,262.193,182.639,262.208,182.522z"/>
			<path style="fill:#779900;" d="M255.05,73.896c0.447-1.071,0.145-1.467-0.285-1.639c-0.115-0.045-1.29-0.483-1.979,0.914     c-0.319,0.648,0.73,0.615,0.872,0.84C253.681,74.057,254.389,75.474,255.05,73.896C255.721,72.286,254.888,74.282,255.05,73.896z     "/>
			<path style="fill:#779900;" d="M254.573,77.086c-0.001-0.345-1.221-1.704-2.227-0.036c-0.424,0.705,0.293,1.174,0.459,1.329     C252.956,78.526,254.58,78.024,254.573,77.086C254.572,76.741,254.576,77.383,254.573,77.086z"/>
			<path style="fill:#779900;" d="M251.351,76.728c-0.059-0.203-0.863,0.65-0.805,0.854     C250.604,77.786,251.41,76.932,251.351,76.728z"/>
			<path style="fill:#779900;" d="M250.585,75.818c0.542-0.904,0.479-2.82-0.743-1.642     C248.676,75.298,249.887,76.978,250.585,75.818C251.433,74.406,250.367,76.18,250.585,75.818z"/>
			<path style="fill:#779900;" d="M250.333,71.518c-0.188-0.218-0.314-0.506-0.463-0.77c-0.127-0.241-1.2,0.897-1.164,1.233     c0.033,0.318,0.146,0.557,0.439,0.582C249.28,72.575,250.583,71.812,250.333,71.518     C250.145,71.298,250.438,71.645,250.333,71.518z"/>
			<path style="fill:#779900;" d="M252.678,71.389c-0.155-0.251-0.332-0.481-0.394-0.834c-0.003-0.007-0.568-0.627-0.845,0.361     c-0.198,0.698-0.296,1.345,0.07,1.465C251.633,72.42,252.887,71.729,252.678,71.389z"/>
			<path style="fill:#779900;" d="M259.233,73.005c0.086-0.307-0.135-1.588-1.16,0.005C257.15,74.441,258.965,73.958,259.233,73.005     C259.357,72.555,259.129,73.374,259.233,73.005z"/>
			<path style="fill:#779900;" d="M267.484,111.327c0.446-1.071,0.143-1.466-0.284-1.638c-0.115-0.045-1.291-0.483-1.98,0.914     c-0.319,0.649,0.73,0.615,0.872,0.84C266.116,111.488,266.823,112.905,267.484,111.327     C268.155,109.716,267.323,111.712,267.484,111.327z"/>
			<path style="fill:#779900;" d="M267.008,114.517c-0.001-0.346-1.221-1.704-2.226-0.036c-0.425,0.706,0.292,1.176,0.458,1.33     C265.39,115.957,267.015,115.456,267.008,114.517C267.007,114.171,267.011,114.814,267.008,114.517z"/>
			<path style="fill:#779900;" d="M271.668,110.437c0.087-0.307-0.135-1.589-1.16,0.005     C269.585,111.871,271.4,111.389,271.668,110.437C271.791,109.985,271.564,110.805,271.668,110.437z"/>
			<path style="fill:#779900;" d="M258.826,137.301c0.446-1.069,0.143-1.466-0.285-1.638c-0.115-0.044-1.289-0.482-1.979,0.913     c-0.319,0.649,0.732,0.616,0.873,0.841C257.458,137.463,258.166,138.88,258.826,137.301     C259.497,135.691,258.665,137.688,258.826,137.301z"/>
			<path style="fill:#779900;" d="M258.35,140.492c-0.001-0.346-1.222-1.704-2.228-0.036c-0.424,0.704,0.294,1.175,0.459,1.329     C256.732,141.931,258.357,141.43,258.35,140.492C258.349,140.146,258.352,140.789,258.35,140.492z"/>
			<path style="fill:#779900;" d="M263.009,136.411c0.086-0.307-0.135-1.589-1.161,0.006     C260.926,137.847,262.742,137.364,263.009,136.411C263.133,135.961,262.905,136.78,263.009,136.411z"/>
			<path style="fill:#779900;" d="M253.638,81.91c0.017-0.227-0.705-1.695-1.483-0.184c-0.261,0.509,0.389,0.674,0.499,0.836     C252.676,82.592,253.58,82.571,253.638,81.91C253.69,81.295,253.615,82.139,253.638,81.91z"/>
			<path style="fill:#779900;" d="M242.063,81.076c0.45-1.074,0.144-1.466-0.284-1.637c-0.115-0.045-1.291-0.483-1.98,0.913     c-0.319,0.648,0.731,0.615,0.872,0.84C240.699,81.234,241.405,82.651,242.063,81.076     C242.738,79.463,241.901,81.462,242.063,81.076z"/>
			<path style="fill:#779900;" d="M241.59,84.262c-0.005-0.341-1.221-1.704-2.229-0.031c-0.421,0.703,0.292,1.176,0.458,1.329     C239.972,85.703,241.598,85.201,241.59,84.262C241.585,83.922,241.594,84.56,241.59,84.262z"/>
			<path style="fill:#779900;" d="M246.246,80.187c0.087-0.307-0.131-1.593-1.16,0.005     C244.168,81.618,245.983,81.134,246.246,80.187C246.374,79.732,246.143,80.556,246.246,80.187z"/>
			<path style="fill:#779900;" d="M241.426,57.043c0.61-1.167,0.095-4.167-1.334-1.947c-0.572,0.888-0.018,1.453,0,1.833     C240.097,57.018,240.296,59.208,241.426,57.043C242.346,55.282,241.188,57.499,241.426,57.043z"/>
			<path style="fill:#779900;" d="M243.177,59.524c0-0.627-0.54-0.663-0.706-1.109c-0.109-0.278-1.312,0.987-1.215,1.288     c0.15,0.491,0.478,0.789,0.806,1.083C242.253,60.961,243.174,59.801,243.177,59.524     C243.176,58.909,243.177,59.827,243.177,59.524z"/>
			<path style="fill:#779900;" d="M248.863,57.719c-0.01-0.663-0.281-1.051-0.415-1.584c0.043,0.187-0.785-0.889-1.062,0.381     c-0.163,0.739-0.229,1.402-0.033,1.783C247.404,58.396,248.877,58.465,248.863,57.719     C248.849,56.838,248.87,57.893,248.863,57.719z"/>
			<path style="fill:#779900;" d="M245.566,62.461c0.215-0.609-0.081-2.913-1.297-1.299c-0.629,0.838-0.091,1.307-0.033,1.527     C244.248,62.749,245.093,63.814,245.566,62.461C245.751,61.938,245.444,62.816,245.566,62.461z"/>
			<path style="fill:#779900;" d="M207.617,50.4c0.277-0.711-0.15-3.783-1.741-1.307c-0.655,1.021-0.158,1.77-0.032,2.074     C205.876,51.246,207.042,51.872,207.617,50.4C208.169,48.985,207.477,50.76,207.617,50.4z"/>
			<path style="fill:#779900;" d="M204.005,51.756c0.608-1.166,0.095-4.165-1.336-1.946c-0.575,0.893-0.02,1.457,0.001,1.833     C202.672,51.736,202.872,53.926,204.005,51.756C204.921,49.999,203.766,52.213,204.005,51.756z"/>
			<path style="fill:#779900;" d="M202.006,48.175c0.215-0.676-1.42-1.551-2.559,0.365     C198.648,49.889,201.535,49.672,202.006,48.175C202.351,47.085,201.838,48.711,202.006,48.175z"/>
			<path style="fill:#779900;" d="M193.183,23.202c0.184-1.049-0.794-0.884-1.14-1.36c-0.195-0.277-1.707-0.276-1.866,1.271     c-0.072,0.716,0.505,0.863,0.825,1.149C191.061,24.314,192.925,24.663,193.183,23.202     C193.324,22.408,193.103,23.657,193.183,23.202z"/>
			<path style="fill:#779900;" d="M198.875,47.343c-0.003-0.403-2.305-0.768-3.068,0.742c-0.339,0.667,0.893,0.199,1.156,0.203     C196.988,48.289,198.885,48.241,198.875,47.343C198.864,46.52,198.878,47.554,198.875,47.343z"/>
			<path style="fill:#779900;" d="M199.279,53.771c0.461-1.023-0.907-3.099-2.059-1.487c-0.584,0.815,0.401,1.063,0.559,1.191     C197.835,53.53,198.749,54.944,199.279,53.771C200.129,51.885,199.155,54.05,199.279,53.771z"/>
			<path style="fill:#779900;" d="M205.756,54.238c0-0.628-0.54-0.663-0.707-1.111c-0.109-0.276-1.312,0.988-1.216,1.29     c0.151,0.49,0.479,0.788,0.807,1.083C204.831,55.676,205.753,54.514,205.756,54.238     C205.755,53.623,205.755,54.541,205.756,54.238z"/>
			<path style="fill:#779900;" d="M203.083,57.242c-0.073-0.256-1.084,0.816-1.01,1.071     C202.146,58.568,203.156,57.496,203.083,57.242z"/>
			<path style="fill:#779900;" d="M211.441,52.435c-0.01-0.664-0.281-1.053-0.415-1.586c0.043,0.187-0.789-0.885-1.063,0.381     c-0.162,0.74-0.23,1.401-0.033,1.783C209.979,53.114,211.453,53.183,211.441,52.435     C211.428,51.553,211.443,52.611,211.441,52.435z"/>
			<path style="fill:#779900;" d="M208.144,57.174c0.214-0.608-0.077-2.916-1.296-1.298c-0.634,0.841-0.092,1.307-0.034,1.527     C206.827,57.462,207.672,58.529,208.144,57.174C208.325,56.655,208.018,57.534,208.144,57.174z"/>
			<path style="fill:#779900;" d="M187.098,43.135c-0.011-0.664-0.282-1.052-0.417-1.586c0.044,0.186-0.785-0.888-1.061,0.381     c-0.163,0.74-0.23,1.403-0.034,1.783C185.639,43.811,187.112,43.879,187.098,43.135C187.083,42.253,187.1,43.311,187.098,43.135z     "/>
		</g>	 
</svg>