<?xml version="1.0" encoding="UTF-8" standalone="no"?>
<!-- Generator: Adobe Illustrator 27.5.0, SVG Export Plug-In . SVG Version: 6.00 Build 0)  -->

<svg
   version="1.1"
   id="Layer_1"
   x="0px"
   y="0px"
   viewBox="150 0 150 227.654"
   style="enable-background:new 0 0 331.06 227.654;"
   xml:space="preserve"
   sodipodi:docname="teste.svg"
   inkscape:version="1.4.2 (ebf0e940d0, 2025-05-08)"
   xmlns:inkscape="http://www.inkscape.org/namespaces/inkscape"
   xmlns:sodipodi="http://sodipodi.sourceforge.net/DTD/sodipodi-0.dtd"
   xmlns="http://www.w3.org/2000/svg"
   xmlns:svg="http://www.w3.org/2000/svg"><defs
   id="defs136" /><sodipodi:namedview
   id="namedview136"
   pagecolor="#ffffff"
   bordercolor="#000000"
   borderopacity="0.25"
   inkscape:showpageshadow="2"
   inkscape:pageopacity="0.0"
   inkscape:pagecheckerboard="0"
   inkscape:deskcolor="#d1d1d1"
   inkscape:zoom="2.5531805"
   inkscape:cx="-6.8541961"
   inkscape:cy="151.18398"
   inkscape:window-width="1906"
   inkscape:window-height="1026"
   inkscape:window-x="0"
   inkscape:window-y="0"
   inkscape:window-maximized="1"
   inkscape:current-layer="Layer_1" />
<g
   style="opacity:0.4"
   id="g136"
   transform="translate(51.308554,1.9583418)">
			<path
   style="fill:#d7fa11"
   d="m 201.711,27.767 c 0.715,0.006 0.816,0.758 1.211,1.137 0.188,0.176 0.398,0.325 0.621,0.461 0.225,0.14 -1.029,0.635 -1.08,0.641 -0.653,0.07 -1.073,-0.159 -1.353,-0.535 -0.135,-0.18 -0.235,-0.401 -0.303,-0.657 -0.05,-0.185 0.687,-1.049 0.904,-1.047 0.502,0.005 -0.217,-0.002 0,0 z"
   id="path1" />
			<path
   style="fill:#d7fa11"
   d="m 189.945,199.821 c 1.005,-0.442 1.427,-0.119 1.545,0.507 0.028,0.15 0.253,1.523 -0.416,2.041 -0.378,0.292 -0.378,-1.21 -0.485,-1.36 -0.171,-0.245 -0.524,-0.276 -0.893,-0.287 0.028,0.001 -0.635,-0.51 0.249,-0.901 1.713,-0.754 -0.337,0.151 0,0 z"
   id="path2" />
			<path
   style="fill:#d7fa11"
   d="m 188.566,190.259 c 0.503,0.081 0.9,0.295 1.196,0.62 0.103,0.11 0.515,0.194 0.256,0.669 -0.201,0.367 -0.64,0.757 -0.786,0.742 -0.52,-0.061 -0.956,-0.227 -1.285,-0.515 -0.119,-0.102 -0.557,-0.163 -0.282,-0.666 0.229,-0.415 0.738,-0.873 0.901,-0.85 0.701,0.111 -0.261,-0.039 0,0 z"
   id="path3" />
			<path
   style="fill:#d7fa11"
   d="m 190.745,189.339 c 0.758,0.033 1.091,0.589 1.219,1.334 0.033,0.209 0.354,1.934 -0.605,2.672 -0.696,0.533 -0.913,-1.421 -1.061,-1.686 -0.206,-0.362 -0.403,-0.736 -0.546,-1.167 -0.067,-0.195 0.759,-1.162 0.993,-1.153 1.238,0.056 -0.23,-0.01 0,0 z"
   id="path4" />
			<path
   style="fill:#d7fa11"
   d="m 198.454,30.122 c 0.521,-0.26 1.907,0.049 0.561,1.417 -0.859,0.873 -1.155,0.19 -1.33,0.059 -0.106,-0.076 -0.086,-1.046 0.769,-1.476 0.382,-0.189 -0.271,0.137 0,0 z"
   id="path5" />
			<path
   style="fill:#d7fa11"
   d="m 193.158,201.328 c 2.257,-1.509 2.205,0.73 1.071,2.952 -0.231,0.448 -1.057,1.223 -1.007,0.892 0.079,-0.535 0.169,-1.082 0.142,-1.513 -0.013,-0.209 -1.558,-1.429 -0.206,-2.331 2.109,-1.411 -0.363,0.241 0,0 z"
   id="path6" />
			<path
   style="fill:#d7fa11"
   d="m 194.78,199.02 c 0.439,-0.064 2.088,1.527 0.908,2.396 -0.657,0.485 -1.017,-0.604 -1.26,-0.725 -0.255,-0.127 -0.518,-0.247 -0.572,-0.599 -0.033,-0.214 0.674,-1.035 0.924,-1.072 1.02,-0.15 -0.25,0.037 0,0 z"
   id="path7" />
			<path
   style="fill:#d7fa11"
   d="m 146.2,207.924 c 0.426,0.051 0.555,0.455 0.512,1.019 -0.025,0.286 -0.086,0.605 -0.188,0.963 -0.097,0.343 -0.954,1.188 -0.908,0.866 0.104,-0.69 -0.112,-1.052 -0.318,-1.419 -0.082,-0.15 0.3,-1.507 0.902,-1.429 0.628,0.076 -0.223,-0.029 0,0 z"
   id="path8" />
			<path
   style="fill:#d7fa11"
   d="m 191.393,206.387 c 0.47,0.087 0.56,0.611 0.546,1.224 -0.008,0.247 -0.021,0.502 -0.043,0.763 -0.017,0.208 -0.614,0.834 -0.622,0.634 -0.025,-0.644 -0.377,-0.937 -0.652,-1.309 -0.084,-0.116 0.235,-1.41 0.771,-1.312 0.663,0.12 -0.248,-0.045 0,0 z"
   id="path9" />
			<path
   style="fill:#d7fa11"
   d="m 154.189,208.232 c 0.486,0.354 0.605,1.118 0.704,1.891 0.026,0.207 0.339,0.512 -0.031,1.083 -0.268,0.413 -0.826,0.951 -0.931,0.838 -0.408,-0.441 -0.666,-1.052 -0.793,-1.798 -0.038,-0.21 -0.327,-0.519 0.064,-1.126 0.294,-0.455 0.858,-0.981 0.987,-0.888 0.63,0.463 -0.187,-0.134 0,0 z"
   id="path10" />
			<path
   style="fill:#d7fa11"
   d="m 152.103,213 c 0.339,-0.04 1.848,1.249 1.239,1.911 -0.341,0.371 -0.919,-0.492 -1.033,-0.565 -0.222,-0.142 -0.536,-0.175 -0.719,-0.361 0.026,0.024 -0.055,-0.92 0.513,-0.985 0.487,-0.054 -0.17,0.021 0,0 z"
   id="path11" />
			<path
   style="fill:#d7fa11"
   d="m 154.251,206.423 c 0.968,-0.41 1.447,-0.172 1.797,0.186 0.089,0.087 1.218,0.679 -0.124,1.725 -0.758,0.591 -1.258,-0.318 -1.527,-0.433 -0.323,-0.128 -0.653,-0.245 -1.007,-0.336 -0.193,-0.047 0.512,-0.995 0.861,-1.142 z"
   id="path12" />
			<path
   style="fill:#d7fa11"
   d="m 151.596,206.044 c 0.841,-0.301 1.261,-0.045 1.417,0.476 0.09,0.315 0.09,0.727 0.018,1.206 -0.053,0.337 -0.883,1.216 -0.933,0.951 -0.11,-0.58 -0.421,-0.942 -0.906,-1.105 -0.197,-0.063 -0.879,0.146 -0.707,-0.326 0.155,-0.42 0.792,-1.087 1.111,-1.202 1.332,-0.479 -0.511,0.185 0,0 z"
   id="path13" />
			<path
   style="fill:#d7fa11"
   d="m 196.677,20.053 c 0.401,-0.747 1.332,-4.43 -0.252,-2.641 -0.621,0.702 -0.165,1.56 -0.207,1.901 -0.012,0.096 -0.263,2.085 0.459,0.74 0.931,-1.737 -0.202,0.378 0,0 z"
   id="path14" />
			<path
   style="fill:#d7fa11"
   d="m 198.767,15.583 c 0.072,-0.575 -0.089,-0.919 -0.276,-1.222 -0.102,-0.148 -0.203,-0.295 -0.303,-0.445 0.066,0.102 -0.66,-0.198 -0.597,0.264 0.076,0.557 0.021,1.247 0.166,1.732 0.053,0.193 0.148,0.341 0.288,0.438 0.108,0.068 0.694,-0.553 0.722,-0.767 0.123,-0.971 -0.028,0.214 0,0 z"
   id="path15" />
			<path
   style="fill:#d7fa11"
   d="m 200.107,16.697 c 0.203,-0.502 -0.238,-2.335 -1.06,-1.191 -0.301,0.423 0.181,1.05 0.168,1.28 -0.041,0.288 -0.03,0.524 0.036,0.704 0.075,0.12 0.698,-0.398 0.856,-0.793 0.453,-1.121 -0.152,0.386 0,0 z"
   id="path16" />
			<path
   style="fill:#d7fa11"
   d="m 198.662,25.741 c 0.163,-0.706 -0.079,-1.02 -0.323,-1.303 -0.085,-0.101 -0.12,-0.53 -0.479,-0.296 -0.31,0.201 -0.683,0.708 -0.681,0.883 0.008,0.54 -0.063,1.163 0.09,1.556 0.056,0.157 1.159,0.177 1.393,-0.84 0.213,-0.931 -0.085,0.365 0,0 z"
   id="path17" />
			<path
   style="fill:#d7fa11"
   d="m 201.361,24.289 c 0.206,-0.928 -0.047,-1.4 -0.201,-1.963 -0.077,-0.281 -0.131,-0.588 -0.097,-0.986 0.019,-0.214 -0.568,0.302 -0.637,0.588 -0.235,0.962 -0.245,1.714 -0.137,2.338 0.056,0.309 0.141,0.586 0.252,0.836 0.07,0.153 0.749,-0.5 0.82,-0.813 0.304,-1.37 -0.069,0.31 0,0 z"
   id="path18" />
			<path
   style="fill:#d7fa11"
   d="m 200.734,26.647 c 0.085,-0.593 -0.29,-0.709 -0.546,-0.933 -0.031,-0.027 -0.989,0.067 -0.901,0.59 0.069,0.43 0.166,0.837 0.411,1.078 0.034,0.032 0.932,-0.039 1.036,-0.735 0.104,-0.706 -0.036,0.253 0,0 z"
   id="path19" />
			<path
   style="fill:#d7fa11"
   d="m 201.923,20.385 c -0.036,-0.606 -0.32,-0.954 -0.755,-1.119 -0.142,-0.053 -0.38,-0.369 -0.851,0.025 -0.339,0.285 -0.701,0.806 -0.551,0.837 0.464,0.099 0.757,0.397 1.016,0.732 0.09,0.115 0.104,0.622 0.488,0.371 0.298,-0.194 0.664,-0.682 0.653,-0.846 -0.05,-0.843 0.014,0.263 0,0 z"
   id="path20" />
			<path
   style="fill:#d7fa11"
   d="m 203.273,21.236 c 0.129,-0.629 -0.21,-0.784 -0.382,-1.097 -0.101,-0.186 -0.931,0.696 -0.905,0.959 0.044,0.448 -0.068,1.081 0.276,1.208 0.182,0.063 0.945,-0.745 1.011,-1.07 0.125,-0.603 -0.066,0.327 0,0 z"
   id="path21" />
			<path
   style="fill:#d7fa11"
   d="m 139.509,6.89 c -0.375,-0.259 -0.75,-0.518 -1.046,-0.869 -0.025,-0.041 -1.567,-0.006 -1.417,0.838 0.113,0.652 0.485,1.035 1.146,1.065 0.035,0.006 1.764,-0.73 1.317,-1.034 -0.5,-0.34 0.135,0.095 0,0 z"
   id="path22" />
			<path
   style="fill:#d7fa11"
   d="m 115.916,26.109 c 0.203,-0.552 -0.622,-1.954 -1.277,-0.929 -0.359,0.561 0.259,0.749 0.336,0.915 0.02,0.041 0.612,0.92 0.941,0.014 0.186,-0.508 -0.085,0.231 0,0 z"
   id="path23" />
			<path
   style="fill:#d7fa11"
   d="m 121.379,22.089 c 0.167,-0.439 0.773,-3.392 -0.223,-2.173 -0.591,0.722 -0.592,1.77 -0.642,2.09 -0.051,0.345 -0.069,0.657 -0.048,0.93 0.02,0.209 0.773,-0.469 0.913,-0.847 0.423,-1.137 -0.137,0.369 0,0 z"
   id="path24" />
			<path
   style="fill:#d7fa11"
   d="m 118.467,24.682 c 0.074,-0.455 -0.084,-0.685 -0.34,-0.782 -0.17,-0.068 -1.243,0.621 -0.928,0.715 0.259,0.072 0.279,0.411 0.401,0.636 0.015,0.038 0.766,0.062 0.867,-0.569 0.093,-0.576 -0.034,0.217 0,0 z"
   id="path25" />
			<path
   style="fill:#d7fa11"
   d="m 135.272,34.556 c -0.364,-0.202 -0.644,-0.501 -0.883,-0.843 -0.041,-0.056 -1.395,-0.051 -1.321,0.801 0.071,0.773 0.029,1.73 0.855,1.667 0.43,-0.034 1.638,-1.463 1.349,-1.625 -0.486,-0.273 0.295,0.165 0,0 z"
   id="path26" />
			<path
   style="fill:#d7fa11"
   d="m 129.779,53.414 c 0.355,-1.067 -0.151,-1.34 -0.761,-1.365 -0.306,-0.016 -0.668,0.044 -1.087,0.177 -0.307,0.101 -1.077,1.06 -0.824,1.061 0.601,0.009 0.821,0.441 0.903,1.032 0.035,0.241 1.246,0.667 1.769,-0.905 0.483,-1.453 -0.178,0.534 0,0 z"
   id="path27" />
			<path
   style="fill:#d7fa11"
   d="m 134.551,9.956 c -0.169,-0.668 -0.498,-1.16 -0.849,-1.627 -0.146,-0.199 -1.894,0.247 -1.873,1.359 0.017,0.854 0.125,1.639 0.694,1.896 0.187,0.087 2.238,-0.792 2.028,-1.628 -0.207,-0.824 0.094,0.38 0,0 z"
   id="path28" />
			<path
   style="fill:#d7fa11"
   d="m 199.726,192.195 c -0.105,-0.104 -0.727,-1.114 -1.551,0.172 -0.459,0.718 0.249,0.764 0.492,0.761 0.128,-0.005 1.343,-0.649 1.059,-0.933 -0.211,-0.209 0.098,0.102 0,0 z"
   id="path29" />
			<path
   style="fill:#d7fa11"
   d="m 166.942,178.134 c 0.639,-1.533 0.205,-2.1 -0.41,-2.345 -0.164,-0.064 -1.843,-0.696 -2.833,1.309 -0.458,0.929 1.049,0.879 1.253,1.2 0.036,0.06 1.046,2.094 1.99,-0.164 0.961,-2.307 -0.232,0.552 0,0 z"
   id="path30" />
			<path
   style="fill:#d7fa11"
   d="m 166.262,182.7 c -0.006,-0.492 -1.753,-2.437 -3.189,-0.051 -0.61,1.012 0.419,1.683 0.652,1.905 0.221,0.206 2.548,-0.51 2.537,-1.854 -0.004,-0.49 0.001,0.429 0,0 z"
   id="path31" />
			<path
   style="fill:#d7fa11"
   d="m 161.648,182.188 c -0.085,-0.294 -1.241,0.932 -1.157,1.225 0.084,0.291 1.241,-0.934 1.157,-1.225 z"
   id="path32" />
			<path
   style="fill:#d7fa11"
   d="m 160.549,180.884 c 0.776,-1.295 0.686,-4.037 -1.063,-2.352 -1.672,1.61 0.063,4.015 1.063,2.352 1.214,-2.024 -0.313,0.519 0,0 z"
   id="path33" />
			<path
   style="fill:#d7fa11"
   d="m 160.19,174.725 c -0.271,-0.313 -0.454,-0.722 -0.661,-1.103 -0.185,-0.342 -1.722,1.287 -1.67,1.771 0.05,0.45 0.205,0.799 0.628,0.833 0.193,0.014 2.061,-1.079 1.703,-1.501 -0.27,-0.315 0.153,0.178 0,0 z"
   id="path34" />
			<path
   style="fill:#d7fa11"
   d="m 163.548,174.54 c -0.22,-0.362 -0.478,-0.686 -0.565,-1.194 -0.003,-0.009 -0.812,-0.898 -1.213,0.52 -0.282,1.001 -0.42,1.924 0.105,2.096 0.176,0.054 1.969,-0.934 1.673,-1.422 z"
   id="path35" />
			<path
   style="fill:#d7fa11"
   d="m 172.933,176.857 c 0.119,-0.435 -0.19,-2.277 -1.661,0.007 -1.317,2.047 1.279,1.357 1.661,-0.007 0.179,-0.646 -0.149,0.531 0,0 z"
   id="path36" />
			<path
   style="fill:#d7fa11"
   d="m 164.917,189.612 c 0.032,-0.332 -1.004,-2.434 -2.121,-0.263 -0.372,0.724 0.561,0.957 0.716,1.193 0.032,0.044 1.326,0.014 1.405,-0.93 0.079,-0.882 -0.024,0.322 0,0 z"
   id="path37" />
			<path
   style="fill:#d7fa11"
   d="m 140.773,215.138 c 0.178,-0.425 0.057,-0.582 -0.114,-0.65 -0.045,-0.018 -0.511,-0.191 -0.784,0.361 -0.128,0.259 0.289,0.246 0.345,0.334 0.01,0.017 0.291,0.58 0.553,-0.045 0.267,-0.641 -0.065,0.153 0,0 z"
   id="path38" />
			<path
   style="fill:#d7fa11"
   d="m 173.666,216.868 c 0,-0.139 -0.485,-0.677 -0.884,-0.014 -0.166,0.278 0.118,0.465 0.182,0.526 0.06,0.058 0.705,-0.14 0.702,-0.512 0,-0.139 0.002,0.116 0,0 z"
   id="path39" />
			<path
   style="fill:#d7fa11"
   d="m 220.52,124.975 c -0.059,-0.203 -0.867,0.654 -0.81,0.857 0.06,0.204 0.87,-0.654 0.81,-0.857 z"
   id="path40" />
			<path
   style="fill:#d7fa11"
   d="m 219.754,124.064 c 0.544,-0.904 0.481,-2.82 -0.747,-1.639 -1.161,1.118 0.046,2.803 0.747,1.639 0.849,-1.414 -0.217,0.361 0,0 z"
   id="path41" />
			<path
   style="fill:#d7fa11"
   d="m 219.502,119.763 c -0.188,-0.218 -0.317,-0.502 -0.462,-0.768 -0.126,-0.241 -1.204,0.9 -1.163,1.232 0.033,0.317 0.142,0.562 0.436,0.585 0.137,0.01 1.436,-0.75 1.189,-1.049 -0.187,-0.22 0.106,0.128 0,0 z"
   id="path42" />
			<path
   style="fill:#d7fa11"
   d="m 221.843,119.638 c -0.149,-0.255 -0.331,-0.481 -0.39,-0.837 -0.002,-0.008 -0.568,-0.626 -0.847,0.364 -0.194,0.695 -0.293,1.341 0.072,1.462 0.124,0.039 1.376,-0.649 1.165,-0.989 z"
   id="path43" />
			<path
   style="fill:#d7fa11"
   d="m 153.015,220.076 c 0.035,-0.123 -0.052,-0.633 -0.461,0.002 -0.364,0.565 0.357,0.374 0.461,-0.002 0.05,-0.181 -0.039,0.145 0,0 z"
   id="path44" />
			<path
   style="fill:#d7fa11"
   d="m 232.126,200.395 c -0.006,-0.342 -1.228,-1.7 -2.231,-0.031 -0.421,0.701 0.293,1.173 0.459,1.328 0.151,0.142 1.777,-0.36 1.772,-1.297 -0.006,-0.341 0.002,0.297 0,0 z"
   id="path45" />
			<path
   style="fill:#d7fa11"
   d="m 228.898,200.041 c -0.06,-0.205 -0.86,0.645 -0.801,0.85 0.059,0.203 0.861,-0.646 0.801,-0.85 z"
   id="path46" />
			<path
   style="fill:#d7fa11"
   d="m 231.185,205.222 c 0.021,-0.23 -0.701,-1.699 -1.483,-0.185 -0.258,0.505 0.394,0.672 0.499,0.837 0.023,0.029 0.93,0.006 0.984,-0.652 0.052,-0.615 -0.021,0.228 0,0 z"
   id="path47" />
			<path
   style="fill:#d7fa11"
   d="m 133.82,206.489 c 0.22,-0.533 0.071,-0.731 -0.147,-0.815 -0.056,-0.023 -0.64,-0.246 -0.983,0.452 -0.164,0.327 0.36,0.311 0.432,0.424 0.015,0.018 0.366,0.73 0.698,-0.061 0.333,-0.803 -0.082,0.193 0,0 z"
   id="path48" />
			<path
   style="fill:#d7fa11"
   d="m 133.581,208.085 c -10e-4,-0.174 -0.608,-0.855 -1.114,-0.018 -0.211,0.352 0.145,0.591 0.226,0.669 0.079,0.069 0.892,-0.182 0.888,-0.651 -10e-4,-0.174 0.004,0.145 0,0 z"
   id="path49" />
			<path
   style="fill:#d7fa11"
   d="m 131.969,207.906 c -0.029,-0.103 -0.431,0.324 -0.401,0.427 0.029,0.101 0.431,-0.325 0.401,-0.427 z"
   id="path50" />
			<path
   style="fill:#d7fa11"
   d="m 131.586,207.452 c 0.273,-0.455 0.238,-1.41 -0.371,-0.823 -0.583,0.561 0.023,1.402 0.371,0.823 0.425,-0.709 -0.109,0.18 0,0 z"
   id="path51" />
			<path
   style="fill:#d7fa11"
   d="m 131.46,205.3 c -0.094,-0.107 -0.158,-0.251 -0.231,-0.384 -0.063,-0.12 -0.599,0.447 -0.582,0.616 0.017,0.159 0.071,0.281 0.221,0.291 0.065,0.008 0.718,-0.376 0.592,-0.523 -0.093,-0.11 0.054,0.062 0,0 z"
   id="path52" />
			<path
   style="fill:#d7fa11"
   d="m 132.634,205.235 c -0.076,-0.128 -0.166,-0.239 -0.198,-0.416 0,-0.002 -0.284,-0.314 -0.424,0.182 -0.099,0.351 -0.147,0.672 0.04,0.729 0.058,0.022 0.688,-0.326 0.582,-0.495 z"
   id="path53" />
			<path
   style="fill:#d7fa11"
   d="m 135.909,206.048 c 0.043,-0.155 -0.064,-0.801 -0.579,0 -0.461,0.715 0.448,0.472 0.579,0 0.066,-0.232 -0.05,0.181 0,0 z"
   id="path54" />
			<path
   style="fill:#d7fa11"
   d="m 133.115,210.494 c 0.007,-0.11 -0.354,-0.845 -0.744,-0.088 -0.131,0.254 0.194,0.337 0.25,0.417 0.009,0.017 0.464,0.004 0.494,-0.329 0.026,-0.306 -0.01,0.115 0,0 z"
   id="path55" />
			<path
   style="fill:#d7fa11"
   d="m 127.967,180.658 c 0.221,-0.533 0.072,-0.732 -0.143,-0.819 -0.059,-0.021 -0.646,-0.239 -0.988,0.454 -0.163,0.331 0.362,0.313 0.438,0.421 0.01,0.022 0.361,0.735 0.693,-0.056 0.337,-0.808 -0.081,0.194 0,0 z"
   id="path56" />
			<path
   style="fill:#d7fa11"
   d="m 127.729,182.253 c -0.001,-0.172 -0.61,-0.854 -1.113,-0.017 -0.21,0.351 0.144,0.589 0.229,0.664 0.074,0.075 0.888,-0.177 0.884,-0.647 -0.001,-0.172 0.003,0.146 0,0 z"
   id="path57" />
			<path
   style="fill:#d7fa11"
   d="m 126.117,182.074 c -0.029,-0.103 -0.431,0.324 -0.402,0.428 0.029,0.102 0.432,-0.327 0.402,-0.428 z"
   id="path58" />
			<path
   style="fill:#d7fa11"
   d="m 125.734,181.619 c 0.273,-0.454 0.242,-1.412 -0.371,-0.821 -0.583,0.561 0.022,1.401 0.371,0.821 0.425,-0.708 -0.109,0.181 0,0 z"
   id="path59" />
			<path
   style="fill:#d7fa11"
   d="m 125.609,179.468 c -0.094,-0.108 -0.156,-0.254 -0.232,-0.384 -0.063,-0.12 -0.601,0.449 -0.581,0.617 0.017,0.16 0.074,0.275 0.22,0.29 0.065,0.009 0.718,-0.373 0.593,-0.523 -0.094,-0.109 0.053,0.065 0,0 z"
   id="path60" />
			<path
   style="fill:#d7fa11"
   d="m 126.782,179.405 c -0.076,-0.129 -0.167,-0.241 -0.197,-0.418 -10e-4,-0.002 -0.285,-0.313 -0.425,0.183 -0.099,0.35 -0.148,0.673 0.038,0.729 0.06,0.02 0.689,-0.328 0.584,-0.494 z"
   id="path61" />
			<path
   style="fill:#d7fa11"
   d="m 130.061,180.211 c 0.043,-0.152 -0.067,-0.795 -0.583,0.005 -0.46,0.716 0.448,0.473 0.583,-0.005 0.061,-0.225 -0.054,0.186 0,0 z"
   id="path62" />
			<path
   style="fill:#d7fa11"
   d="m 127.263,184.663 c 0.007,-0.11 -0.354,-0.845 -0.741,-0.092 -0.135,0.258 0.194,0.338 0.247,0.421 0.01,0.017 0.463,0.004 0.494,-0.329 0.024,-0.307 -0.011,0.114 0,0 z"
   id="path63" />
			<path
   style="fill:#d7fa11"
   d="m 179.514,29.294 c 0.224,-0.536 0.072,-0.732 -0.143,-0.817 -0.056,-0.025 -0.643,-0.244 -0.987,0.456 -0.161,0.323 0.366,0.307 0.437,0.419 0.011,0.022 0.365,0.731 0.693,-0.058 0.337,-0.806 -0.076,0.19 0,0 z"
   id="path64" />
			<path
   style="fill:#d7fa11"
   d="m 179.28,30.887 c -0.005,-0.17 -0.613,-0.851 -1.117,-0.015 -0.211,0.351 0.149,0.586 0.23,0.664 0.077,0.07 0.89,-0.181 0.887,-0.649 -0.005,-0.169 0,0.15 0,0 z"
   id="path65" />
			<path
   style="fill:#d7fa11"
   d="m 177.669,30.707 c -0.029,-0.102 -0.432,0.325 -0.403,0.427 0.029,0.103 0.432,-0.325 0.403,-0.427 z"
   id="path66" />
			<path
   style="fill:#d7fa11"
   d="m 177.28,30.256 c 0.275,-0.455 0.243,-1.411 -0.37,-0.821 -0.583,0.562 0.022,1.4 0.37,0.821 0.426,-0.707 -0.103,0.177 0,0 z"
   id="path67" />
			<path
   style="fill:#d7fa11"
   d="m 177.159,28.101 c -0.094,-0.109 -0.158,-0.25 -0.231,-0.384 -0.063,-0.121 -0.6,0.448 -0.582,0.617 0.014,0.162 0.071,0.281 0.216,0.295 0.069,0.003 0.723,-0.381 0.597,-0.528 -0.094,-0.109 0.052,0.065 0,0 z"
   id="path68" />
			<path
   style="fill:#d7fa11"
   d="m 178.333,28.038 c -0.08,-0.125 -0.17,-0.236 -0.202,-0.413 -0.001,-0.003 -0.279,-0.317 -0.42,0.178 -0.1,0.35 -0.148,0.673 0.036,0.733 0.062,0.017 0.689,-0.327 0.586,-0.498 z"
   id="path69" />
			<path
   style="fill:#d7fa11"
   d="m 181.607,28.847 c 0.044,-0.153 -0.068,-0.792 -0.583,0.005 -0.46,0.716 0.449,0.475 0.583,-0.005 0.062,-0.225 -0.053,0.187 0,0 z"
   id="path70" />
			<path
   style="fill:#d7fa11"
   d="m 178.81,33.301 c 0.011,-0.116 -0.35,-0.851 -0.741,-0.092 -0.131,0.254 0.194,0.337 0.251,0.415 0.009,0.017 0.459,0.009 0.49,-0.323 0.023,-0.306 -0.011,0.113 0,0 z"
   id="path71" />
			<path
   style="fill:#d7fa11"
   d="m 173.722,9.083 c 0.224,-0.538 0.07,-0.734 -0.143,-0.82 -0.056,-0.024 -0.644,-0.244 -0.987,0.456 -0.16,0.324 0.365,0.307 0.436,0.42 0.012,0.023 0.365,0.731 0.694,-0.056 0.338,-0.807 -0.077,0.188 0,0 z"
   id="path72" />
			<path
   style="fill:#d7fa11"
   d="m 173.487,10.675 c -0.004,-0.17 -0.613,-0.851 -1.117,-0.015 -0.21,0.352 0.15,0.586 0.23,0.664 0.077,0.07 0.891,-0.181 0.887,-0.649 -0.004,-0.17 0,0.151 0,0 z"
   id="path73" />
			<path
   style="fill:#d7fa11"
   d="m 171.876,10.495 c -0.03,-0.102 -0.433,0.325 -0.403,0.427 0.03,0.103 0.433,-0.324 0.403,-0.427 z"
   id="path74" />
			<path
   style="fill:#d7fa11"
   d="m 171.489,10.043 c 0.274,-0.455 0.242,-1.411 -0.371,-0.82 -0.583,0.562 0.022,1.401 0.371,0.82 0.424,-0.705 -0.105,0.178 0,0 z"
   id="path75" />
			<path
   style="fill:#d7fa11"
   d="m 171.367,7.89 c -0.095,-0.11 -0.159,-0.25 -0.232,-0.384 -0.064,-0.12 -0.6,0.448 -0.582,0.616 0.013,0.162 0.071,0.28 0.216,0.294 0.07,0.004 0.723,-0.379 0.598,-0.526 -0.094,-0.111 0.052,0.063 0,0 z"
   id="path76" />
			<path
   style="fill:#d7fa11"
   d="m 172.539,7.825 c -0.079,-0.124 -0.169,-0.236 -0.201,-0.413 0,-0.003 -0.28,-0.317 -0.42,0.177 -0.1,0.351 -0.147,0.674 0.036,0.735 0.063,0.017 0.689,-0.327 0.585,-0.499 z"
   id="path77" />
			<path
   style="fill:#d7fa11"
   d="m 175.815,8.635 c 0.044,-0.153 -0.068,-0.793 -0.582,0.006 -0.461,0.715 0.447,0.473 0.582,-0.006 0.062,-0.224 -0.054,0.188 0,0 z"
   id="path78" />
			<path
   style="fill:#d7fa11"
   d="m 173.017,13.088 c 0.011,-0.115 -0.35,-0.85 -0.74,-0.091 -0.132,0.254 0.193,0.335 0.251,0.416 0.008,0.017 0.459,0.008 0.489,-0.325 0.025,-0.305 -0.011,0.115 0,0 z"
   id="path79" />
			<path
   style="fill:#d7fa11"
   d="m 220.371,182.643 c -0.09,-0.112 -0.16,-0.249 -0.232,-0.385 -0.064,-0.118 -0.598,0.445 -0.581,0.618 0.02,0.155 0.071,0.28 0.219,0.29 0.069,0.004 0.722,-0.379 0.594,-0.523 -0.09,-0.113 0.056,0.06 0,0 z"
   id="path80" />
			<path
   style="fill:#d7fa11"
   d="m 221.542,182.579 c -0.074,-0.129 -0.167,-0.24 -0.192,-0.421 -0.002,-0.003 -0.283,-0.314 -0.423,0.182 -0.102,0.351 -0.148,0.673 0.035,0.734 0.062,0.015 0.687,-0.327 0.58,-0.495 z"
   id="path81" />
			<path
   style="fill:#d7fa11"
   d="m 233.194,182.323 c -0.094,-0.109 -0.16,-0.252 -0.232,-0.385 -0.063,-0.121 -0.599,0.448 -0.581,0.615 0.016,0.159 0.071,0.28 0.221,0.291 0.063,0.008 0.718,-0.374 0.592,-0.521 -0.094,-0.111 0.055,0.059 0,0 z"
   id="path82" />
			<path
   style="fill:#d7fa11"
   d="m 234.367,182.258 c -0.076,-0.128 -0.166,-0.24 -0.198,-0.416 0,-0.005 -0.285,-0.314 -0.424,0.183 -0.099,0.349 -0.146,0.67 0.04,0.728 0.058,0.021 0.689,-0.328 0.582,-0.495 z"
   id="path83" />
			<path
   style="fill:#d7fa11"
   d="m 211.008,88.9 c -0.059,-0.204 -0.863,0.65 -0.805,0.853 0.058,0.205 0.863,-0.649 0.805,-0.853 z"
   id="path84" />
			<path
   style="fill:#d7fa11"
   d="m 210.238,87.994 c 0.546,-0.909 0.48,-2.82 -0.738,-1.647 -1.17,1.126 0.044,2.802 0.738,1.647 0.853,-1.418 -0.213,0.357 0,0 z"
   id="path85" />
			<path
   style="fill:#d7fa11"
   d="m 209.992,83.688 c -0.189,-0.219 -0.319,-0.502 -0.464,-0.768 -0.126,-0.242 -1.201,0.896 -1.163,1.233 0.033,0.317 0.142,0.56 0.439,0.581 0.135,0.012 1.438,-0.75 1.188,-1.046 -0.19,-0.218 0.103,0.127 0,0 z"
   id="path86" />
			<path
   style="fill:#d7fa11"
   d="m 212.336,83.56 c -0.154,-0.253 -0.335,-0.478 -0.395,-0.835 -0.002,-0.005 -0.568,-0.625 -0.848,0.366 -0.194,0.695 -0.291,1.341 0.072,1.461 0.125,0.039 1.38,-0.653 1.171,-0.992 z"
   id="path87" />
			<path
   style="fill:#d7fa11"
   d="m 213.297,94.082 c 0.017,-0.227 -0.706,-1.696 -1.482,-0.185 -0.264,0.508 0.386,0.674 0.493,0.84 0.027,0.027 0.929,0.006 0.989,-0.655 0.051,-0.615 -0.024,0.228 0,0 z"
   id="path88" />
			<path
   style="fill:#d7fa11"
   d="m 185.901,135.011 c 0.276,-0.711 -0.155,-3.778 -1.741,-1.307 -0.66,1.024 -0.163,1.775 -0.033,2.074 0.037,0.074 1.198,0.704 1.774,-0.767 0.552,-1.416 -0.145,0.363 0,0 z"
   id="path89" />
			<path
   style="fill:#d7fa11"
   d="m 182.289,136.365 c 0.609,-1.164 0.092,-4.16 -1.339,-1.941 -0.571,0.889 -0.017,1.453 0.005,1.828 10e-4,0.094 0.201,2.284 1.334,0.113 0.919,-1.758 -0.239,0.458 0,0 z"
   id="path90" />
			<path
   style="fill:#d7fa11"
   d="m 180.29,132.785 c 0.215,-0.675 -1.426,-1.546 -2.559,0.365 -0.803,1.352 2.089,1.132 2.559,-0.365 0.343,-1.09 -0.166,0.534 0,0 z"
   id="path91" />
			<path
   style="fill:#d7fa11"
   d="m 185.265,130.555 c 0.186,-1.052 -0.793,-0.886 -1.138,-1.362 -0.196,-0.275 -1.707,-0.275 -1.866,1.273 -0.077,0.719 0.5,0.866 0.824,1.148 0.059,0.052 1.923,0.402 2.18,-1.059 0.138,-0.79 -0.082,0.458 0,0 z"
   id="path92" />
			<path
   style="fill:#d7fa11"
   d="m 177.159,131.953 c -0.003,-0.403 -2.305,-0.77 -3.072,0.746 -0.335,0.663 0.893,0.197 1.161,0.197 0.021,0.008 1.921,-0.044 1.911,-0.943 -0.008,-0.827 0.003,0.21 0,0 z"
   id="path93" />
			<path
   style="fill:#d7fa11"
   d="m 177.564,138.381 c 0.46,-1.022 -0.912,-3.094 -2.063,-1.482 -0.58,0.81 0.405,1.059 0.56,1.19 0.062,0.046 0.974,1.466 1.503,0.292 0.848,-1.886 -0.129,0.283 0,0 z"
   id="path94" />
			<path
   style="fill:#d7fa11"
   d="m 184.036,138.852 c 0,-0.627 -0.54,-0.664 -0.706,-1.109 -0.108,-0.277 -1.311,0.987 -1.215,1.288 0.151,0.49 0.482,0.784 0.806,1.083 0.19,0.177 1.116,-0.99 1.115,-1.262 0.003,-0.62 0,0.302 0,0 z"
   id="path95" />
			<path
   style="fill:#d7fa11"
   d="m 181.367,141.85 c -0.073,-0.254 -1.084,0.816 -1.01,1.07 0.073,0.258 1.084,-0.813 1.01,-1.07 z"
   id="path96" />
			<path
   style="fill:#d7fa11"
   d="m 189.721,137.046 c -0.01,-0.662 -0.278,-1.054 -0.415,-1.584 0.047,0.183 -0.781,-0.892 -1.059,0.378 -0.161,0.739 -0.23,1.402 -0.033,1.782 0.049,0.102 1.522,0.17 1.507,-0.576 -0.013,-0.88 0.007,0.176 0,0 z"
   id="path97" />
			<path
   style="fill:#d7fa11"
   d="m 186.428,141.785 c 0.21,-0.605 -0.082,-2.912 -1.297,-1.299 -0.63,0.838 -0.096,1.31 -0.037,1.531 0.016,0.055 0.861,1.122 1.334,-0.232 0.185,-0.524 -0.125,0.358 0,0 z"
   id="path98" />
			<path
   style="fill:#d7fa11"
   d="m 134.068,184.229 c 0.273,-0.707 -0.154,-3.779 -1.745,-1.303 -0.656,1.02 -0.159,1.77 -0.032,2.073 0.032,0.078 1.199,0.705 1.777,-0.77 0.548,-1.412 -0.145,0.362 0,0 z"
   id="path99" />
			<path
   style="fill:#d7fa11"
   d="m 130.453,185.588 c 0.608,-1.167 0.094,-4.165 -1.336,-1.946 -0.576,0.893 -0.017,1.453 0.001,1.834 0.001,0.09 0.205,2.277 1.335,0.112 0.916,-1.756 -0.24,0.456 0,0 z"
   id="path100" />
			<path
   style="fill:#d7fa11"
   d="m 128.458,182.002 c 0.207,-0.668 -1.425,-1.546 -2.559,0.365 -0.804,1.354 2.085,1.136 2.559,-0.365 0.339,-1.085 -0.171,0.54 0,0 z"
   id="path101" />
			<path
   style="fill:#d7fa11"
   d="m 133.428,179.775 c 0.185,-1.05 -0.793,-0.885 -1.138,-1.36 -0.196,-0.276 -1.708,-0.276 -1.866,1.273 -0.072,0.714 0.501,0.866 0.825,1.148 0.054,0.057 1.922,0.399 2.179,-1.061 0.142,-0.793 -0.079,0.454 0,0 z"
   id="path102" />
			<path
   style="fill:#d7fa11"
   d="m 125.323,181.174 c -0.003,-0.403 -2.306,-0.769 -3.068,0.741 -0.339,0.668 0.89,0.204 1.153,0.209 0.028,-0.005 1.925,-0.052 1.915,-0.95 -0.009,-0.826 0.002,0.212 0,0 z"
   id="path103" />
			<path
   style="fill:#d7fa11"
   d="m 125.73,187.6 c 0.457,-1.02 -0.911,-3.096 -2.067,-1.48 -0.58,0.812 0.405,1.06 0.56,1.192 0.062,0.045 0.974,1.464 1.507,0.288 0.847,-1.883 -0.128,0.281 0,0 z"
   id="path104" />
			<path
   style="fill:#d7fa11"
   d="m 132.204,188.07 c 0,-0.629 -0.54,-0.664 -0.707,-1.109 -0.109,-0.278 -1.312,0.987 -1.219,1.293 0.15,0.489 0.482,0.783 0.81,1.077 0.191,0.177 1.113,-0.984 1.116,-1.261 -0.001,-0.615 -0.001,0.301 0,0 z"
   id="path105" />
			<path
   style="fill:#d7fa11"
   d="m 129.531,191.073 c -0.075,-0.257 -1.085,0.814 -1.011,1.072 0.073,0.254 1.085,-0.817 1.011,-1.072 z"
   id="path106" />
			<path
   style="fill:#d7fa11"
   d="m 137.89,186.265 c -0.011,-0.663 -0.282,-1.052 -0.416,-1.585 0.043,0.187 -0.785,-0.888 -1.063,0.382 -0.162,0.74 -0.23,1.403 -0.033,1.782 0.048,0.102 1.525,0.167 1.512,-0.579 -0.016,-0.88 0.001,0.178 0,0 z"
   id="path107" />
			<path
   style="fill:#d7fa11"
   d="m 134.592,191.008 c 0.214,-0.61 -0.082,-2.913 -1.296,-1.3 -0.63,0.837 -0.092,1.306 -0.033,1.527 0.011,0.061 0.856,1.124 1.329,-0.227 0.181,-0.521 -0.122,0.354 0,0 z"
   id="path108" />
			<path
   style="fill:#d7fa11"
   d="m 217.683,60.677 c 0.273,-0.707 -0.154,-3.78 -1.744,-1.302 -0.657,1.02 -0.16,1.769 -0.033,2.073 0.032,0.079 1.202,0.702 1.777,-0.771 0.553,-1.414 -0.143,0.364 0,0 z"
   id="path109" />
			<path
   style="fill:#d7fa11"
   d="m 212.073,58.452 c 0.206,-0.667 -1.426,-1.547 -2.56,0.365 -0.803,1.353 2.084,1.135 2.56,-0.365 0.341,-1.086 -0.173,0.539 0,0 z"
   id="path110" />
			<path
   style="fill:#d7fa11"
   d="m 217.046,56.221 c 0.183,-1.045 -0.796,-0.88 -1.136,-1.361 -0.201,-0.272 -1.713,-0.272 -1.873,1.277 -0.071,0.715 0.505,0.862 0.826,1.149 0.059,0.05 1.923,0.399 2.183,-1.065 0.139,-0.791 -0.082,0.458 0,0 z"
   id="path111" />
			<path
   style="fill:#d7fa11"
   d="m 208.939,57.624 c -0.005,-0.403 -2.307,-0.77 -3.07,0.742 -0.338,0.667 0.894,0.199 1.157,0.203 0.024,0 1.921,-0.047 1.913,-0.945 -0.01,-0.828 0.004,0.206 0,0 z"
   id="path112" />
			<path
   style="fill:#d7fa11"
   d="m 209.345,64.048 c 0.456,-1.018 -0.912,-3.094 -2.064,-1.483 -0.583,0.815 0.401,1.063 0.557,1.195 0.061,0.047 0.974,1.465 1.507,0.288 0.846,-1.881 -0.128,0.283 0,0 z"
   id="path113" />
			<path
   style="fill:#d7fa11"
   d="m 213.145,67.522 c -0.074,-0.256 -1.084,0.814 -1.01,1.071 0.073,0.256 1.083,-0.815 1.01,-1.071 z"
   id="path114" />
			<path
   style="fill:#d7fa11"
   d="m 155.917,46.092 c 0.277,-0.71 -0.155,-3.779 -1.744,-1.303 -0.655,1.021 -0.159,1.77 -0.028,2.069 0.031,0.079 1.197,0.705 1.772,-0.766 0.552,-1.416 -0.144,0.365 0,0 z"
   id="path115" />
			<path
   style="fill:#d7fa11"
   d="m 152.3,47.451 c 0.613,-1.169 0.095,-4.165 -1.335,-1.946 -0.572,0.889 -0.017,1.453 0.001,1.833 0.001,0.093 0.205,2.279 1.334,0.113 0.921,-1.759 -0.238,0.457 0,0 z"
   id="path116" />
			<path
   style="fill:#d7fa11"
   d="m 150.307,43.866 c 0.211,-0.671 -1.425,-1.546 -2.56,0.365 -0.804,1.353 2.086,1.137 2.56,-0.365 0.339,-1.085 -0.169,0.535 0,0 z"
   id="path117" />
			<path
   style="fill:#d7fa11"
   d="m 155.276,41.64 c 0.186,-1.051 -0.793,-0.886 -1.134,-1.365 -0.195,-0.276 -1.711,-0.271 -1.87,1.277 -0.072,0.716 0.505,0.861 0.826,1.148 0.058,0.051 1.922,0.4 2.178,-1.06 0.143,-0.795 -0.078,0.454 0,0 z"
   id="path118" />
			<path
   style="opacity:0.5;fill:#d7fa11"
   d="m 147.175,43.034 c -0.007,-0.398 -2.31,-0.765 -3.072,0.745 -0.334,0.664 0.894,0.2 1.158,0.203 0.024,10e-4 1.92,-0.045 1.914,-0.948 -0.011,-0.824 0.002,0.211 0,0 z"
   id="path119" />
			<path
   style="opacity:0.5;fill:#d7fa11"
   d="m 147.58,49.463 c 0.459,-1.022 -0.912,-3.095 -2.064,-1.484 -0.583,0.815 0.402,1.062 0.556,1.195 0.062,0.047 0.979,1.463 1.508,0.289 0.845,-1.883 -0.129,0.282 0,0 z"
   id="path120" />
			<path
   style="fill:#d7fa11"
   d="m 154.052,49.933 c 0,-0.628 -0.54,-0.662 -0.708,-1.109 -0.108,-0.277 -1.311,0.988 -1.214,1.288 0.15,0.492 0.477,0.788 0.805,1.084 0.193,0.175 1.114,-0.986 1.117,-1.263 -0.001,-0.614 -0.001,0.302 0,0 z"
   id="path121" />
			<path
   style="fill:#d7fa11"
   d="m 151.379,52.936 c -0.073,-0.255 -1.084,0.815 -1.01,1.071 0.073,0.256 1.083,-0.814 1.01,-1.071 z"
   id="path122" />
			<path
   style="fill:#d7fa11"
   d="m 156.439,52.871 c 0.215,-0.609 -0.077,-2.916 -1.296,-1.299 -0.629,0.837 -0.093,1.306 -0.034,1.527 0.013,0.059 0.862,1.121 1.33,-0.228 0.187,-0.524 -0.121,0.354 0,0 z"
   id="path123" />
			<path
   style="fill:#d7fa11"
   d="m 155.081,13.191 c 0.277,-0.711 -0.155,-3.779 -1.745,-1.303 -0.654,1.021 -0.158,1.771 -0.028,2.071 0.032,0.076 1.198,0.704 1.773,-0.768 0.552,-1.417 -0.143,0.363 0,0 z"
   id="path124" />
			<path
   style="fill:#d7fa11"
   d="m 151.469,14.546 c 0.609,-1.166 0.091,-4.161 -1.339,-1.942 -0.572,0.888 -0.017,1.452 0,1.833 0.007,0.089 0.206,2.279 1.339,0.109 0.917,-1.756 -0.238,0.457 0,0 z"
   id="path125" />
			<path
   style="opacity:0.5;fill:#d7fa11"
   d="m 149.471,10.965 c 0.211,-0.673 -1.425,-1.546 -2.559,0.365 -0.804,1.353 2.085,1.136 2.559,-0.365 0.34,-1.085 -0.168,0.535 0,0 z"
   id="path126" />
			<path
   style="fill:#d7fa11"
   d="m 154.446,8.733 c 0.181,-1.046 -0.797,-0.88 -1.139,-1.36 -0.2,-0.273 -1.711,-0.273 -1.867,1.273 -0.076,0.718 0.502,0.866 0.826,1.148 0.054,0.056 1.92,0.406 2.18,-1.061 0.137,-0.79 -0.083,0.459 0,0 z"
   id="path127" />
			<path
   style="opacity:0.5;fill:#d7fa11"
   d="m 146.336,10.137 c -0.003,-0.403 -2.302,-0.772 -3.068,0.741 -0.335,0.664 0.894,0.201 1.157,0.205 0.024,0 1.925,-0.052 1.911,-0.946 -0.005,-0.83 0.007,0.207 0,0 z"
   id="path128" />
			<path
   style="opacity:0.5;fill:#d7fa11"
   d="m 146.744,16.562 c 0.46,-1.022 -0.912,-3.096 -2.064,-1.483 -0.583,0.815 0.407,1.058 0.561,1.191 0.062,0.046 0.974,1.465 1.503,0.292 0.846,-1.882 -0.129,0.281 0,0 z"
   id="path129" />
			<path
   style="fill:#d7fa11"
   d="m 153.217,17.032 c -0.001,-0.627 -0.54,-0.663 -0.707,-1.108 -0.109,-0.278 -1.311,0.987 -1.216,1.288 0.151,0.492 0.479,0.787 0.806,1.083 0.192,0.175 1.117,-0.989 1.117,-1.263 0.003,-0.619 -0.001,0.302 0,0 z"
   id="path130" />
			<path
   style="fill:#d7fa11"
   d="m 150.544,20.036 c -0.073,-0.256 -1.08,0.811 -1.006,1.067 0.072,0.255 1.079,-0.811 1.006,-1.067 z"
   id="path131" />
			<path
   style="fill:#d7fa11"
   d="m 158.905,15.224 c -0.014,-0.661 -0.281,-1.052 -0.419,-1.582 0.048,0.183 -0.78,-0.892 -1.059,0.377 -0.166,0.743 -0.234,1.406 -0.038,1.788 0.054,0.097 1.528,0.165 1.516,-0.583 -0.016,-0.877 0.004,0.177 0,0 z"
   id="path132" />
			<path
   style="fill:#d7fa11"
   d="m 155.605,19.97 c 0.215,-0.61 -0.077,-2.916 -1.292,-1.304 -0.63,0.837 -0.096,1.31 -0.038,1.531 0.013,0.06 0.857,1.125 1.33,-0.227 0.185,-0.524 -0.123,0.355 0,0 z"
   id="path133" />
			<path
   style="fill:#d7fa11"
   d="m 208.361,129.357 c 0.292,-0.914 -0.112,-1.189 -0.176,-1.746 -0.002,-0.042 -0.985,-0.71 -1.225,0.537 -0.132,0.676 -0.259,1.352 -0.19,1.832 0.017,0.144 1.14,0.79 1.591,-0.623 0.198,-0.616 -0.136,0.425 0,0 z"
   id="path134" />
			<path
   style="fill:#d7fa11"
   d="m 205.948,129.979 c -0.079,-0.277 -1.171,0.881 -1.091,1.158 0.079,0.276 1.171,-0.882 1.091,-1.158 z"
   id="path135" />
			<path
   style="fill:#d7fa11"
   d="m 204.973,128.065 c -0.555,-0.09 -0.839,-0.5 -1.071,-0.956 -0.017,-0.038 -1.392,-0.172 -1.273,0.646 0.101,0.706 0.249,1.376 0.832,1.55 0.365,0.106 2.019,-1.16 1.512,-1.24 -0.735,-0.119 0.249,0.043 0,0 z"
   id="path136" />
		</g>
</svg>
