<?xml version="1.0" encoding="UTF-8" standalone="no"?>
<!-- Generator: Adobe Illustrator 27.5.0, SVG Export Plug-In . SVG Version: 6.00 Build 0)  -->

<svg
   version="1.1"
   x="0px"
   y="0px"
   viewBox="0 0 2000 2000"
   style="enable-background:new 0 0 2000 2000;"
   xml:space="preserve"
   id="svg577"
   sodipodi:docname="ocaLadoDireito copy.svg"
   inkscape:version="1.4.2 (ebf0e940d0, 2025-05-08)"
   xmlns:inkscape="http://www.inkscape.org/namespaces/inkscape"
   xmlns:sodipodi="http://sodipodi.sourceforge.net/DTD/sodipodi-0.dtd"
   xmlns="http://www.w3.org/2000/svg"
   xmlns:svg="http://www.w3.org/2000/svg"><defs
   id="defs577" /><sodipodi:namedview
   id="namedview577"
   pagecolor="#ffffff"
   bordercolor="#000000"
   borderopacity="0.25"
   inkscape:showpageshadow="2"
   inkscape:pageopacity="0.0"
   inkscape:pagecheckerboard="0"
   inkscape:deskcolor="#d1d1d1"
   inkscape:zoom="0.362"
   inkscape:cx="968.23204"
   inkscape:cy="1000"
   inkscape:window-width="1906"
   inkscape:window-height="1026"
   inkscape:window-x="0"
   inkscape:window-y="0"
   inkscape:window-maximized="1"
   inkscape:current-layer="Layer_1" />


<g
   id="Layer_1"
   transform="matrix(3.3280756,0,0,3.3280756,-3948.9288,-3852.7292)">
	
	
	
	<g
   id="g577"
   transform="matrix(-1.1083762,0,0,1.1079365,3141.7995,-162.49354)">
		<path
   style="fill:#f0e0d0"
   d="m 1745.055,1352.152 c 0,81.391 -110.898,147.372 -247.699,147.372 -136.782,0 -247.68,-65.981 -247.68,-147.372 0,-81.391 110.898,-147.372 247.68,-147.372 136.801,0 247.699,65.981 247.699,147.372 z m 0,0"
   id="path413" />
		<path
   style="clip-rule:evenodd;fill:#bfaa5c;fill-rule:evenodd"
   d="m 1744.924,1347.352 c 0.097,2.39 -0.437,244.454 -0.437,244.454 0,0 -2.958,24.363 -19.315,47.098 -16.362,22.755 -48.22,45.621 -48.22,45.621 l 0.17,-230.983 c -0.306,0.457 32.772,-20.136 49.698,-45.544 20.192,-30.303 18.769,-61.768 18.104,-60.646 z m 0,0"
   id="path414" />
		<path
   style="clip-rule:evenodd;fill:#b59d47;fill-rule:evenodd"
   d="m 1676.951,1684.526 c 0,0 -11.844,10.304 -57.616,25.485 -45.767,15.181 -72.297,15.429 -71.349,15.181 l 0.112,-228.802 c 0,0 34.769,-3.109 68.298,-14.724 33.529,-11.615 60.744,-28.123 60.744,-28.123 z m 0,0"
   id="path415" />
		<path
   style="clip-rule:evenodd;fill:#bfaa5c;fill-rule:evenodd"
   d="m 1547.986,1725.192 c 0,0 -31.616,4.78 -70.349,2.789 -38.728,-1.992 -69.3,-9.565 -69.3,-9.565 l 0.34,-228.666 c 0,0 30.192,8.293 70.936,9.886 40.724,1.594 68.483,-3.245 68.483,-3.245 z m 0,0"
   id="path416" />
		<path
   style="clip-rule:evenodd;fill:#c7b471;fill-rule:evenodd"
   d="m 1408.338,1718.415 c 0,0 -29.206,-6.413 -54.579,-17.63 -25.349,-11.212 -51.631,-29.26 -51.631,-29.26 l 0.398,-228.384 c 0,0 24.324,17.362 53.19,30.115 28.861,12.738 52.962,16.493 52.962,16.493 z m 0,0"
   id="path417" />
		<path
   style="clip-rule:evenodd;fill:#cdbc80;fill-rule:evenodd"
   d="m 1302.127,1671.526 0.398,-228.384 c 0,0 -22.415,-13.398 -37.232,-38.558 -14.802,-25.164 -15.58,-49.547 -15.58,-49.547 l 0.432,234.014 c 0,0 1.234,20.515 14.482,42.794 13.245,22.26 37.933,40.458 37.5,39.681 z m 0,0"
   id="path418" />
		<path
   style="clip-rule:evenodd;fill:#b7a048;fill-rule:evenodd"
   d="m 1408.678,1489.749 -0.34,228.666 c 0,0 30.571,7.573 69.3,9.565 38.733,1.992 70.349,-2.789 70.349,-2.789 l 0.019,-38.388 c -1.822,0.262 -32.111,4.649 -69.683,2.711 -38.733,-1.992 -69.304,-9.585 -69.304,-9.585 l 0.287,-190.03 c -0.06,0 -0.628,-0.15 -0.628,-0.15 z m 0,0"
   id="path419" />
		<path
   style="clip-rule:evenodd;fill:#a48e41;fill-rule:evenodd"
   d="m 1548.763,1496.317 c -0.039,0.015 -0.646,0.073 -0.646,0.073 l -0.131,228.802 c -0.947,0.248 25.582,0 71.349,-15.181 45.772,-15.181 57.616,-25.485 57.616,-25.485 l 0.019,-37.994 c -1.501,1.215 -14.122,10.799 -56.95,25.014 -45.772,15.181 -72.302,15.429 -71.349,15.181 z m 0,0"
   id="path420" />
		<path
   style="clip-rule:evenodd;fill:#b7a048;fill-rule:evenodd"
   d="m 1677.786,1453.125 c -0.058,0.02 -0.666,0.418 -0.666,0.418 l -0.17,230.983 c 0,0 31.859,-22.866 48.22,-45.621 16.357,-22.735 19.315,-47.098 19.315,-47.098 0,0 0.039,-26.418 0.058,-34.861 -1.385,7.345 -5.883,25.694 -18.674,43.494 -16.357,22.735 -48.24,45.621 -48.24,45.621 z m 0,0"
   id="path421" />
		<path
   style="clip-rule:evenodd;fill:#c0aa5e;fill-rule:evenodd"
   d="m 1257.988,1430.278 c 2.065,20.267 2.41,17.858 1.724,27.137 -0.685,9.279 0,22.677 0,22.677 0,0 -0.685,-3.78 1.365,-12.373 2.07,-8.599 2.755,-16.833 2.41,-21.633 -0.34,-4.819 -1.021,-10.323 -2.41,-12.713 -1.365,-2.414 -3.435,-6.189 -3.09,-4.824 0.36,1.389 0.699,3.435 0.699,3.435 z m 0,0"
   id="path422" />
		<path
   style="clip-rule:evenodd;fill:#c3af67;fill-rule:evenodd"
   d="m 1249.714,1355.037 0.432,234.034 c 0,0 1.234,20.496 14.482,42.775 13.243,22.259 37.931,40.457 37.499,39.661 l 0.053,-38.825 c -3.128,-2.031 -24.708,-18.864 -36.853,-39.321 -13.243,-22.279 -14.477,-42.775 -14.477,-42.775 l -0.359,-188.301 c -0.645,-4.44 -0.777,-7.248 -0.777,-7.248 z m 0,0"
   id="path423" />
		<path
   style="clip-rule:evenodd;fill:#333333;fill-rule:evenodd"
   d="m 1302.127,1671.506 0.224,-135.436 c 0,0 11.785,17.916 55.167,32.811 43.382,14.895 52.831,11.727 51.028,11.159 l -0.209,138.375 c 0,0 -30.911,-7.418 -56.265,-18.388 -25.373,-10.969 -49.945,-28.521 -49.945,-28.521 z m 0,0"
   id="path424"
   inkscape:label="portaSombra" />
		<path
   style="clip-rule:evenodd;fill:#666666;fill-rule:evenodd"
   d="m 1362.997,1636.9127 c -23.153,10.989 -51.616,23.853 -51.616,23.853 0,0 -4.081,4.387 -5.635,6.038 6.242,4.285 25.976,17.436 47.156,26.583 25.368,10.969 56.265,18.388 56.265,18.388 l 0.092,-88.352 c -21.136,5.616 -26.222,7.267 -46.262,13.49 z m 0,0"
   id="path425"
   inkscape:label="portaLuz" />
		<path
   style="clip-rule:evenodd;fill:#8e7c38;fill-rule:evenodd"
   d="m 1302.142,1653.099 -0.015,18.407 c 0,0 24.572,17.552 49.945,28.521 25.368,10.969 56.265,18.388 56.265,18.388 l 0.02,-8.254 c 0,0 -32.719,-8.254 -53.365,-17.003 -20.646,-8.749 -44.441,-25.752 -44.441,-25.752 z m 0,0"
   id="path426" />
		<path
   style="clip-rule:evenodd;fill:#ae9845;fill-rule:evenodd"
   d="m 1302.37,1536.07 -0.243,135.436 8.424,-4.1 -0.359,-123.291 v -0.092 c -5.562,-4.727 -7.822,-7.953 -7.822,-7.953 z m 0,0"
   id="path427" />
		<path
   style="clip-rule:evenodd;fill:#fadcbb;fill-rule:evenodd"
   d="m 1408.396,1679.721 c 0,0 21.497,5.562 43.547,7.554 22.05,1.992 60.973,2.735 71.621,1.919 10.663,-0.835 24.441,-2.39 24.441,-2.39 l -0.131,4.421 c 0,0 -17.994,1.933 -32.32,2.429 -14.326,0.491 -51.975,0 -68.26,-1.938 -16.26,-1.953 -38.918,-5.655 -38.918,-5.655 z m 0,0"
   id="path428" />
		<path
   style="clip-rule:evenodd;fill:#fef7f0;fill-rule:evenodd"
   d="m 1408.489,1679.741 -0.02,3.245 c 0,0 22.658,3.702 38.942,5.64 16.26,1.933 53.909,2.429 68.24,1.933 14.346,-0.476 32.315,-2.429 32.315,-2.429 l 0.039,-1.326 c 0,0 -13.777,1.574 -24.441,2.39 -10.649,0.816 -49.571,0.073 -71.621,-1.919 -21.895,-1.991 -43.168,-7.457 -43.454,-7.534 z m 0,0"
   id="path429" />
		<path
   style="clip-rule:evenodd;fill:#f8cb9a;fill-rule:evenodd"
   d="m 1548.005,1686.804 c 0,0 37.99,-4.746 69.076,-15.05 34.555,-11.465 60.667,-25.563 59.889,-25.223 v 3.036 c 0,0 -39.928,19.15 -59.02,25.373 -21.516,7.039 -70.077,16.284 -70.077,16.284 z m 0,0"
   id="path430" />
		<path
   style="clip-rule:evenodd;fill:#95813b;fill-rule:evenodd"
   d="m 1571.498,1526.981 c -0.967,17.499 10.989,9.638 3.396,37.897 -7.588,28.235 -6.792,34.482 -6.32,38.368 0.496,3.891 1.691,-7.399 3.949,-11.232 2.259,-3.813 2.371,4.916 3.338,-18.883 0.967,-23.794 2.924,-32.068 0.496,-39.354 -2.429,-7.287 -2.924,-8.259 -2.924,-8.259 z m 0,0"
   id="path431" />
		<path
   style="clip-rule:evenodd;fill:#fef7f0;fill-rule:evenodd"
   d="m 1676.97,1646.531 c 0.778,-0.34 -25.334,13.758 -59.889,25.223 -31.086,10.304 -69.076,15.05 -69.076,15.05 l -0.039,1.326 c 0,0 42.794,-6.32 64.31,-13.359 19.092,-6.223 64.694,-26.588 64.694,-26.588 z m 0,0"
   id="path432" />
		<path
   style="clip-rule:evenodd;fill:#fadcbb;fill-rule:evenodd"
   d="m 1676.97,1646.531 c 0,0 31.728,-25.864 40.895,-37.421 9.182,-11.557 18.805,-27.856 22.143,-36.775 3.284,-8.842 4.537,-15.39 4.537,-15.39 l 0.019,3.551 c 0,0 -1.71,7.666 -5.009,15.75 -3.303,8.064 -5.961,13.379 -11.785,22.769 -6.281,10.114 -22.148,25.961 -32.49,34.103 -8.764,6.889 -18.31,16.449 -18.31,16.449 z m 0,0"
   id="path433" />
		<path
   style="clip-rule:evenodd;fill:#fef7f0;fill-rule:evenodd"
   d="m 1744.545,1556.945 c 0,0 -1.253,6.568 -4.537,15.39 -3.337,8.919 -12.961,25.218 -22.143,36.775 -9.167,11.557 -40.895,37.421 -40.895,37.421 v 1.652 c 0,0 12.218,-10.984 13.379,-11.8 1.156,-0.816 10.265,-8.638 11.557,-9.964 1.268,-1.331 8.841,-8.332 10.168,-9.697 1.331,-1.385 9.755,-11.217 11.047,-12.888 1.268,-1.686 2.011,-4.552 4.591,-6.354 2.56,-1.802 7.593,-12.752 8.37,-14.385 0.758,-1.632 7.039,-18.635 7.306,-19.621 0.243,-0.986 1.156,-4.421 1.176,-4.479 z m 0,0"
   id="path434" />
		<path
   style="clip-rule:evenodd;fill:#c0aa5e;fill-rule:evenodd"
   d="m 1265.557,1484.207 c -10.304,20.267 -0.7,17.858 -2.41,27.822 -1.725,9.964 -4.46,14.079 -4.12,16.488 0.345,2.414 0.685,18.562 1.37,15.128 0.68,-3.454 1.385,-9.624 2.75,-13.758 1.365,-4.12 -1.725,1.044 1.025,-7.894 2.75,-8.939 5.164,-13.738 5.164,-17.173 0,-3.435 -5.164,-5.164 -5.164,-6.869 0,-1.729 -1.025,-14.768 -1.025,-14.768 z m 0,0"
   id="path435" />
		<path
   style="clip-rule:evenodd;fill:#fadcbb;fill-rule:evenodd"
   d="m 1302.181,1632.681 c 0,0 -15.502,-12.184 -24.29,-23.624 -8.803,-11.465 -17.022,-21.637 -20.855,-32.889 -4.022,-11.839 -6.602,-29.964 -6.942,-31.844 -0.345,-1.895 -0.019,0.19 -0.019,0.19 v 3.949 c 0,0 0.073,8.958 0.491,12.883 0.418,3.988 -0.073,9.245 3.872,19.602 4.367,11.426 8.161,16.702 15.07,24.237 7,7.646 12.771,14.992 19.374,21.064 6.281,5.786 13.301,11.042 13.301,11.042 v -4.61 z m 0,0"
   id="path436" />
		<path
   style="clip-rule:evenodd;fill:#c0aa5e;fill-rule:evenodd"
   d="m 1273.111,1549.469 c 2.069,28.521 3.094,25.772 2.75,31.956 -0.34,6.189 -3.435,12.014 -3.775,10.649 -0.34,-1.389 -0.34,2.41 0.34,-14.423 0.685,-16.833 -2.065,-23.022 -0.68,-25.087 1.365,-2.051 1.365,-3.095 1.365,-3.095 z m 0,0"
   id="path437" />
		<path
   style="clip-rule:evenodd;fill:#fef7f0;fill-rule:evenodd"
   d="m 1249.977,1543.906 c 0.039,0.267 0.097,0.607 0.097,0.607 v 3.949 c 0,0 0.039,1.423 0.039,2.069 0.073,0.321 1.059,5.635 1.423,9.527 0.36,4.003 3.396,18.329 7.894,26.719 4.494,8.365 14.933,20.889 20.399,28.293 5.465,7.399 22.352,19.315 22.352,19.315 v -1.705 c 0,0 -15.502,-12.164 -24.29,-23.624 -8.803,-11.465 -17.022,-21.637 -20.855,-32.889 -4.022,-11.839 -6.602,-29.964 -6.942,-31.844 -0.117,-0.641 -0.097,-0.432 -0.097,-0.418 h -0.02 z m 0,0"
   id="path438" />
		<path
   style="clip-rule:evenodd;fill:#aa0000;fill-rule:evenodd"
   d="m 1408.678,1686.119 c 11.178,12.393 14.574,19.432 17.003,25.028 2.429,5.582 6.17,11.883 6.17,11.883 l 5.844,-32.568 z m 0,0"
   id="path439" />
		<path
   style="clip-rule:evenodd;fill:#aa0000;fill-rule:evenodd"
   d="m 1437.296,1690.409 c 0,0 13.588,12.791 15.638,17.421 2.065,4.649 3.605,11.174 3.775,12.544 0.17,1.365 4.8,-27.535 4.8,-27.535 z m 0,0"
   id="path440" />
		<path
   style="clip-rule:evenodd;fill:#a58f40;fill-rule:evenodd"
   d="m 1433.881,1517.532 c 0,20.608 4.46,26.452 1.025,41.215 -3.434,14.763 -5.849,15.468 -5.849,17.173 0,1.729 -0.34,-8.234 1.729,-14.419 2.05,-6.189 6.184,-17.858 4.8,-24.747 -1.365,-6.869 -2.75,-15.448 -2.75,-16.833 10e-4,-1.364 1.045,-2.389 1.045,-2.389 z m 0,0"
   id="path441" />
		<path
   style="clip-rule:evenodd;fill:#aa0000;fill-rule:evenodd"
   d="m 1461.45,1692.857 c 0,0 12.791,3.469 16.911,12.048 4.12,8.599 4.63,13.908 4.8,15.808 0.17,1.899 6.378,-26.986 6.378,-26.986 -8.919,0.189 -20.666,-0.7 -28.089,-0.87 z m 0,0"
   id="path442" />
		<path
   style="clip-rule:evenodd;fill:#a58f40;fill-rule:evenodd"
   d="m 1473.027,1522.332 c -3.435,30.231 -6.869,59.433 -4.46,61.143 2.41,1.725 2.41,9.964 2.754,-3.094 0.34,-13.034 -2.41,-20.608 0,-30.571 2.39,-9.959 3.775,-20.948 3.775,-22.313 0,-1.39 -2.069,-5.165 -2.069,-5.165 z m 0,0"
   id="path443" />
		<path
   style="clip-rule:evenodd;fill:#aa0000;fill-rule:evenodd"
   d="m 1489.481,1693.673 c 0,0 11.028,8.312 16.872,13.471 5.844,5.164 4.649,8.977 6.354,9.794 0.816,2.011 6.131,-23.42 6.131,-23.42 z m 0,0"
   id="path444" />
		<path
   style="clip-rule:evenodd;fill:#a58f40;fill-rule:evenodd"
   d="m 1499.823,1521.647 c 0,9.964 -3.775,17.518 -2.41,24.727 1.385,7.214 -1.71,27.482 -1.71,27.482 0,0 6.529,-6.17 6.869,-22.318 0.345,-16.148 -1.365,-28.866 -1.365,-28.866 z m 0,0"
   id="path445" />
		<path
   style="clip-rule:evenodd;fill:#aa0000;fill-rule:evenodd"
   d="m 1518.629,1693.537 c 0,0 20.098,16.265 21.73,20.039 1.632,3.794 1.724,8.084 1.724,8.429 0,0.34 2.41,-30.44 2.41,-30.44 z m 0,0"
   id="path446" />
		<path
   style="clip-rule:evenodd;fill:#aa0000;fill-rule:evenodd"
   d="m 1546.504,1691.395 c 0,0 3.93,1.554 11.198,5.349 13.112,6.869 13.738,13.568 14.516,17.27 0.778,3.702 1.768,-28.104 1.768,-28.104 z m 0,0"
   id="path447" />
		<path
   style="clip-rule:evenodd;fill:#aa0000;fill-rule:evenodd"
   d="m 1574.209,1685.852 c 0,0 11.066,0.758 16.531,8.161 5.465,7.418 8.142,14.822 8.142,14.822 l 3.678,-29.546 z m 0,0"
   id="path448" />
		<path
   style="clip-rule:evenodd;fill:#95813b;fill-rule:evenodd"
   d="m 1598.689,1534.268 c -1.438,18.941 -3.794,52.719 -3.245,52.602 0.554,-0.131 -1.613,26.092 -0.622,23.192 0.967,-2.925 9.162,-13.704 7,-27.992 -2.142,-14.287 -3.133,-25.942 -3.133,-29.833 z m 0,0"
   id="path449" />
		<path
   style="clip-rule:evenodd;fill:#aa0000;fill-rule:evenodd"
   d="m 1603.663,1679.022 c 18.295,13.301 19.262,15.599 20.36,18.635 1.083,3.036 1.579,6.68 1.579,6.68 l 0.908,-32.49 z m 0,0"
   id="path450" />
		<path
   style="clip-rule:evenodd;fill:#95813b;fill-rule:evenodd"
   d="m 1643.401,1501.724 c -3.891,21.365 1.025,-2.769 2.9,32.053 1.88,34.837 5.067,42.94 3.988,31.174 -1.064,-11.742 2.332,-7.36 -1.064,-27.287 -3.395,-19.903 -5.824,-35.94 -5.824,-35.94 z m 0,0"
   id="path451" />
		<path
   style="clip-rule:evenodd;fill:#aa0000;fill-rule:evenodd"
   d="m 1626.51,1671.924 c 0,0 14.841,4.139 17.931,8.861 3.095,4.727 5.504,9.867 5.582,11.256 0.092,1.365 0.568,-30.328 0.568,-30.328 z m 0,0"
   id="path452" />
		<path
   style="clip-rule:evenodd;fill:#95813b;fill-rule:evenodd"
   d="m 1622.507,1509.978 c 1.462,25.257 9.41,25.354 4.363,45.66 -5.028,20.321 -9.011,21.725 -4.741,20.229 4.251,-1.501 10.566,-3.226 8.137,-21.2 -2.429,-17.97 -7.759,-44.689 -7.759,-44.689 z m 0,0"
   id="path453" />
		<path
   style="clip-rule:evenodd;fill:#aa0000;fill-rule:evenodd"
   d="m 1650.591,1662.057 c 0,0 4.668,3.187 9.566,9.789 4.897,6.626 7.953,9.565 9.012,13.058 1.083,3.493 2.39,-32.772 2.39,-32.772 z m 0,0"
   id="path454" />
		<path
   style="clip-rule:evenodd;fill:#aa0000;fill-rule:evenodd"
   d="m 1671.655,1652.074 c 0,0 5.504,0.627 8.521,4.839 2.997,4.193 4.552,4.367 6.092,8.409 1.535,4.042 2.07,6.621 2.07,6.621 l 0.209,-33.19 -11.577,11.023 z m 0,0"
   id="path455" />
		<path
   style="clip-rule:evenodd;fill:#aa0000;fill-rule:evenodd"
   d="m 1688.489,1638.812 c 0,0 0.131,0.68 6.641,3.945 6.49,3.284 7.345,10.212 7.535,12.334 0.17,2.128 2.104,3.891 2.104,3.891 l -1.059,-33.078 z m 0,0"
   id="path456" />
		<path
   style="clip-rule:evenodd;fill:#aa0000;fill-rule:evenodd"
   d="m 1703.708,1626.079 c 0,0 4.63,-0.437 7.287,4.285 2.672,4.727 4.134,6.019 5.237,8.847 1.117,2.847 3.187,7.02 3.187,7.02 l -1.326,-34.842 z m 0,0"
   id="path457" />
		<path
   style="clip-rule:evenodd;fill:#a79242;fill-rule:evenodd"
   d="m 1691.165,1483.526 c -1.025,13.398 1.365,16.833 2.41,29.527 1.025,12.713 -1.992,18.028 -1.351,28.424 0.646,10.401 -1.404,37.538 -1.404,37.538 0,0 9.677,-0.704 4.46,-18.198 -5.218,-17.518 5.693,-15.22 3.702,-27.195 -1.972,-11.975 -2.317,-16.435 -3.357,-24.343 -1.025,-7.895 -4.46,-25.753 -4.46,-25.753 z m 0,0"
   id="path458" />
		<path
   style="clip-rule:evenodd;fill:#aa0000;fill-rule:evenodd"
   d="m 1717.904,1611.598 c 0,0 5.101,-0.151 8.574,2.866 2.997,2.618 4.212,7.457 4.518,7.627 1.117,0.646 -1.234,-26.321 -1.234,-26.321 l -9.813,13.51 z m 0,0"
   id="path459" />
		<path
   style="clip-rule:evenodd;fill:#a79242;fill-rule:evenodd"
   d="m 1705.929,1607.177 c -2.395,-24.387 0.699,-21.293 0,-36.76 -0.685,-15.443 -2.05,-40.875 -1.71,-21.288 0.34,19.583 5.145,28.162 4.46,34.006 -0.685,5.844 -1.025,13.738 -1.025,17.513 -10e-4,3.794 -1.725,6.529 -1.725,6.529 z m 0,0"
   id="path460" />
		<path
   style="clip-rule:evenodd;fill:#aa0000;fill-rule:evenodd"
   d="m 1729.723,1595.809 c 0,0 1.593,0.627 3.663,3.833 2.069,3.226 2.677,4.688 2.978,8.084 0.287,3.396 1.54,5.047 1.593,5.354 0.058,0.301 -0.34,-32.131 -0.34,-32.131 l -6.15,11.902 z m 0,0"
   id="path461" />
		<path
   style="clip-rule:evenodd;fill:#a79242;fill-rule:evenodd"
   d="m 1712.798,1472.518 c -0.685,8.939 14.933,26.646 10.377,35.41 -4.552,8.788 -4.193,25.048 -3.148,27.117 1.025,2.07 1.025,13.398 1.025,4.12 0,-9.279 2.201,-5.562 1.71,-16.148 -0.476,-10.571 -0.403,-13.875 1.156,-16.153 1.574,-2.274 1.195,-1.686 2.487,-3.644 1.268,-1.972 -2.604,-8.026 -3.988,-12.485 -1.365,-4.479 -9.619,-18.217 -9.619,-18.217 z m 0,0"
   id="path462" />
		<path
   style="clip-rule:evenodd;fill:#aa0000;fill-rule:evenodd"
   d="m 1737.505,1581.085 c 0,0 -0.666,2.104 3.168,5.504 3.813,3.415 3.585,6.68 3.585,6.68 l -0.68,-28.939 -3.002,9.298 z m 0,0"
   id="path463" />
		<path
   style="clip-rule:evenodd;fill:#aa0000;fill-rule:evenodd"
   d="m 1297.799,1661.581 1.555,-26.471 -15.618,-13.967 c 0,0 2.05,8.861 5.45,18.465 3.396,9.599 4.251,12.864 4.363,15.672 1.102,6.243 4.25,6.301 4.25,6.301 z m 0,0"
   id="path464" />
		<path
   style="clip-rule:evenodd;fill:#aa0000;fill-rule:evenodd"
   d="m 1283.774,1621.255 -0.019,27.671 c -4.761,-4.785 -3.624,-11.654 -5.101,-18.805 -2.356,-7.783 -2.22,-12.602 -6.699,-22.245 z m 0,0"
   id="path465" />
		<path
   style="clip-rule:evenodd;fill:#aa0000;fill-rule:evenodd"
   d="m 1271.955,1607.876 0.092,29.187 c 0,0 -0.471,0.476 -1.462,-6.451 -0.967,-6.908 -2.045,-7.763 -3.036,-12.257 -0.967,-4.499 -2.448,1.287 -3.148,-9.357 -0.704,-10.649 -1.861,-12.223 -1.861,-12.223 z m 0,0"
   id="path466" />
		<path
   style="clip-rule:evenodd;fill:#c0aa5e;fill-rule:evenodd"
   d="m 1290.624,1522.672 c -5.844,18.217 -2.75,28.866 -2.41,37.1 0.364,8.254 -2.39,17.878 -1.705,20.967 0.68,3.075 -0.685,11.334 2.069,3.075 2.73,-8.234 3.775,-11.329 3.434,-19.223 -0.364,-7.914 -0.364,-7.914 -0.704,-15.123 -0.34,-7.209 -1.365,-7.209 -1.025,-11.669 0.34,-4.479 0,-17.518 0,-17.518 z m 0,0"
   id="path467" />
		<path
   style="clip-rule:evenodd;fill:#aa0000;fill-rule:evenodd"
   d="m 1260.227,1593.249 -0.325,22.07 c 0,0 1.71,8.006 -0.719,-4.615 -2.429,-12.636 -4.994,-14.933 -5.217,-18.101 -0.248,-3.153 -0.209,-13.529 -0.209,-13.529 l 3.794,9.182 z m 0,0"
   id="path468" />
		<path
   style="clip-rule:evenodd;fill:#a58f40;fill-rule:evenodd"
   d="m 1480.581,1574.555 c -1.934,20.078 -5.485,36.056 -6.51,47.404 -1.044,11.329 -6.529,27.137 -2.069,20.608 4.459,-6.529 1.384,-7.039 7.894,-25.087 6.529,-18.027 0.685,-42.925 0.685,-42.925 z m 0,0"
   id="path469" />
		<path
   style="clip-rule:evenodd;fill:#fadcbb;fill-rule:evenodd"
   d="m 1408.508,1585.505 c 0,0 21.501,5.543 43.552,7.554 22.051,1.992 60.973,2.711 71.636,1.895 10.644,-0.816 24.421,-2.371 24.421,-2.371 l -0.131,4.421 c 0,0 -17.97,1.938 -32.296,2.429 -14.35,0.476 -52,0 -68.26,-1.953 -16.284,-1.938 -38.922,-5.635 -38.922,-5.635 z m 0,0"
   id="path470" />
		<path
   style="clip-rule:evenodd;fill:#a58f40;fill-rule:evenodd"
   d="m 1504.983,1636.723 c -2.41,18.558 -0.68,31.256 0,32.641 0.685,1.365 -8.594,47.744 -1.04,10.984 7.569,-36.756 11.344,-40.875 11.344,-46.374 0,-5.485 -5.426,-10.25 -6.184,-22.318 -0.758,-12.072 -1.724,-5.164 -2.069,5.825 -0.34,11.008 2.755,21.652 2.41,24.747 -0.342,3.089 -4.461,-5.505 -4.461,-5.505 z m 0,0"
   id="path471" />
		<path
   style="clip-rule:evenodd;fill:#fef7f0;fill-rule:evenodd"
   d="m 1408.605,1585.525 v 3.245 c 0,0 22.638,3.682 38.918,5.635 16.284,1.934 53.933,2.429 68.259,1.934 14.326,-0.471 32.296,-2.429 32.296,-2.429 l 0.039,-1.326 c 0,0 -13.777,1.555 -24.421,2.371 -10.663,0.836 -49.585,0.097 -71.636,-1.895 -21.9,-1.997 -43.173,-7.462 -43.455,-7.535 z m 0,0"
   id="path472" />
		<path
   style="clip-rule:evenodd;fill:#95813b;fill-rule:evenodd"
   d="m 1620.55,1625.603 c 0.991,16.036 3.891,43.625 3.114,43.892 -0.758,0.287 0.777,-2.123 2.24,-28.842 1.462,-26.719 5.732,-34.234 0.496,-47.594 -5.256,-13.379 -9.245,-31.106 -5.354,-2.925 3.891,28.181 -1.462,37.402 -1.462,37.402 z m 0,0"
   id="path473" />
		<path
   style="clip-rule:evenodd;fill:#f8cb9a;fill-rule:evenodd"
   d="m 1548.117,1592.583 c 0,0 37.994,-4.746 69.076,-15.05 34.555,-11.46 60.686,-25.558 59.909,-25.237 v 3.056 c 0,0 -39.928,19.126 -59.035,25.373 -21.521,7.039 -70.081,16.279 -70.081,16.279 z m 0,0"
   id="path474" />
		<path
   style="clip-rule:evenodd;fill:#95813b;fill-rule:evenodd"
   d="m 1585.577,1619.778 c -2.9,24.29 -7.287,34.477 -10.187,40.797 -2.925,6.32 -7.783,17.003 -2.429,10.683 5.329,-6.315 6.296,-13.602 10.187,-22.332 3.891,-8.749 2.429,-29.148 2.429,-29.148 z m 0,0"
   id="path475" />
		<path
   style="clip-rule:evenodd;fill:#fef7f0;fill-rule:evenodd"
   d="m 1677.101,1552.296 c 0.777,-0.321 -25.354,13.777 -59.909,25.237 -31.082,10.304 -69.076,15.05 -69.076,15.05 l -0.039,1.326 c 0,0 42.794,-6.315 64.315,-13.359 19.106,-6.243 64.708,-26.583 64.708,-26.583 v -1.671 z m 0,0"
   id="path476" />
		<path
   style="clip-rule:evenodd;fill:#a79242;fill-rule:evenodd"
   d="m 1734.105,1447.791 c 2.05,20.608 5.145,19.927 3.434,26.112 -1.725,6.189 -1.384,12.014 -0.68,0.345 0.68,-11.693 -4.819,-26.797 -4.819,-26.797 z m 0,0"
   id="path477" />
		<path
   style="clip-rule:evenodd;fill:#fadcbb;fill-rule:evenodd"
   d="m 1677.101,1552.296 c 0,0 31.708,-25.844 40.894,-37.402 9.167,-11.557 18.805,-27.861 22.128,-36.78 3.284,-8.842 4.552,-15.385 4.552,-15.385 v 3.546 c 0,0 -1.705,7.666 -5.009,15.73 -3.303,8.084 -5.961,13.398 -11.785,22.774 -6.282,10.114 -22.123,25.976 -32.485,34.118 -8.749,6.889 -18.295,16.454 -18.295,16.454 z m 0,0"
   id="path478" />
		<path
   style="clip-rule:evenodd;fill:#a79242;fill-rule:evenodd"
   d="m 1738.225,1512.028 c -1.025,9.619 -2.069,5.504 -3.094,19.243 -1.025,13.739 -0.68,19.243 -1.025,28.162 -0.34,8.939 -2.41,15.123 -2.41,15.123 0,0 4.119,2.05 5.504,-4.139 1.365,-6.165 1.025,-8.914 0.685,-16.469 -0.345,-7.573 -1.384,-8.939 -1.025,-16.833 0.34,-7.914 2.39,-14.443 3.075,-18.557 0.699,-4.12 -1.71,-6.53 -1.71,-6.53 z m 0,0"
   id="path479" />
		<path
   style="clip-rule:evenodd;fill:#fef7f0;fill-rule:evenodd"
   d="m 1744.676,1462.729 c 0,0 -1.268,6.544 -4.552,15.385 -3.323,8.919 -12.961,25.223 -22.128,36.78 -9.186,11.557 -40.894,37.402 -40.894,37.402 v 1.671 c 0,0 12.203,-10.989 13.379,-11.805 1.156,-0.816 10.246,-8.633 11.538,-9.964 1.292,-1.326 8.842,-8.332 10.173,-9.697 1.326,-1.384 9.755,-11.212 11.042,-12.903 1.292,-1.671 2.011,-4.537 4.591,-6.34 2.584,-1.802 7.593,-12.752 8.37,-14.385 0.777,-1.632 7.039,-18.635 7.306,-19.621 0.248,-0.986 1.156,-4.421 1.176,-4.479 l -0.019,-2.045 h 0.018 z m 0,0"
   id="path480" />
		<path
   style="clip-rule:evenodd;fill:#c0aa5e;fill-rule:evenodd"
   d="m 1281.69,1490.396 c -1.025,12.694 -6.51,30.571 -6.169,34.686 0.34,4.12 -2.069,10.649 -0.704,10.649 1.389,0 0.364,-2.05 3.095,-9.279 2.754,-7.214 1.044,-16.474 3.094,-20.953 2.069,-4.46 2.41,-15.443 2.41,-15.443 z m 0,0"
   id="path481" />
		<path
   style="clip-rule:evenodd;fill:#fadcbb;fill-rule:evenodd"
   d="m 1302.069,1544.878 c 0,0 -15.521,-12.184 -24.309,-23.629 -8.788,-11.46 -17.003,-21.633 -20.836,-32.884 -4.042,-11.844 -6.602,-29.964 -6.947,-31.844 -0.34,-1.895 -0.039,0.189 -0.039,0.189 l 0.02,3.95 c 0,0 0.058,8.953 0.476,12.883 0.437,3.984 -0.058,9.24 3.891,19.602 4.362,11.426 8.157,16.702 15.045,24.217 7.025,7.646 12.791,15.006 19.378,21.079 6.281,5.791 13.321,11.047 13.321,11.047 z m 0,0"
   id="path482" />
		<path
   style="clip-rule:evenodd;fill:#c0aa5e;fill-rule:evenodd"
   d="m 1277.23,1442.991 c -1.71,9.604 0,21.633 0.34,29.527 0.34,7.914 -4.119,20.268 -4.119,20.268 0,0 -1.365,-4.12 0.685,-9.259 2.07,-5.164 1.725,-12.033 1.385,-17.877 -0.34,-5.825 -1.044,-14.763 -1.044,-17.858 -10e-4,-3.091 2.753,-4.801 2.753,-4.801 z m 0,0"
   id="path483" />
		<path
   style="clip-rule:evenodd;fill:#fef7f0;fill-rule:evenodd"
   d="m 1249.865,1456.084 c 0,0.019 0,0.019 0,0.019 0.039,0.267 0.073,0.588 0.073,0.588 l 0.02,3.95 c 0,0 0.039,1.443 0.039,2.089 0.058,0.321 1.064,5.635 1.404,9.522 0.379,4.008 3.415,18.334 7.894,26.719 4.499,8.37 14.953,20.875 20.418,28.298 5.465,7.399 22.357,19.296 22.357,19.296 v -1.686 c 0,0 -15.521,-12.184 -24.309,-23.629 -8.788,-11.46 -17.003,-21.633 -20.836,-32.884 -4.042,-11.844 -6.602,-29.964 -6.947,-31.844 -0.112,-0.646 -0.092,-0.457 -0.092,-0.418 z m 0,0"
   id="path484" />
		<path
   style="fill:#333333"
   d="m 1552.576,1238.596 c 0,15.371 -22.41,27.817 -50.076,27.817 -27.652,0 -50.081,-12.446 -50.081,-27.817 0,-15.371 22.43,-27.822 50.081,-27.822 27.666,0 50.076,12.451 50.076,27.822 z m 0,0"
   id="path485" />
		<path
   style="clip-rule:evenodd;fill:#926e27;fill-rule:evenodd"
   d="m 1538.819,1222.866 c -3.508,-3.401 -9.716,-4.858 -13.831,-5.582 -4.139,-0.719 -15.925,-2.92 -17.498,-3.148 -1.574,-0.248 -17.363,-0.607 -17.363,-0.607 l -0.359,-2.069 4.61,-0.855 c 0,0 5.465,-0.967 14.214,-0.967 8.725,0 8.365,0.719 13.831,2.181 5.465,1.462 13.112,4.139 15.677,5.713 2.541,1.574 4.722,4.003 4.722,4.003 z m 0,0"
   id="path486" />
		<path
   style="clip-rule:evenodd;fill:#b38730;fill-rule:evenodd"
   d="m 1376.212,1216.317 c 12.369,-4.858 34.477,-11.669 45.16,-13.359 10.707,-1.71 28.676,-5.106 52.967,-5.106 24.29,0 23.794,0 38.616,0.724 14.822,0.738 9.716,0.243 29.643,0.243 19.903,0 38.864,0.248 58.767,6.816 19.927,6.544 22.109,6.544 27.462,11.65 5.329,5.106 12.616,19.432 12.616,19.432 l -91.806,-8.006 c 0,0 -5.601,-4.251 -7.646,-6.816 -2.069,-2.541 -23.571,-10.683 -30.139,-10.683 -6.544,0 -11.154,-0.112 -14.686,0.607 -3.532,0.724 -8.613,0.496 -12.752,0.607 -4.139,0.117 -108.202,3.891 -108.202,3.891 z m 0,0"
   id="path487" />
		<path
   style="clip-rule:evenodd;fill:#cc9d3f;fill-rule:evenodd"
   d="m 1637.329,1218.897 c -9.774,-0.189 -35.167,6.699 -44.936,5.426 -7.763,-1.006 -31.159,-2.997 -47.783,-4.382 -2.963,0.51 -6.607,0.947 -9.453,1.764 2.317,1.462 5.237,3.794 9.623,7.972 10.188,9.716 9.716,17.003 9.716,17.003 l 190.428,73.346 c 0,0 0.967,-4.858 -8.254,-24.29 -9.245,-19.432 -43.251,-47.123 -51.505,-52.471 -8.254,-5.334 -39.335,-20.875 -44.688,-23.799 -0.665,-0.36 -1.744,-0.53 -3.148,-0.569 z m 0,0"
   id="path488" />
		<path
   style="clip-rule:evenodd;fill:#926e27;fill-rule:evenodd"
   d="m 1535.156,1221.705 c 0,0 -0.112,0.797 0.136,1.176 0.262,0.384 0.262,0.607 1.248,1.253 0.991,0.646 2.414,1.802 3.056,2.618 0.646,0.816 0.685,2.657 3.342,3.814 2.657,1.161 2.75,2.317 3.605,2.963 0.855,0.646 1.122,0.816 1.841,2.07 0.739,1.234 1.462,2.56 1.593,2.73 0.131,0.17 1.462,1.365 1.462,1.365 l 0.836,-0.699 c -1.312,-2.925 -3.056,-5.086 -7.496,-9.318 -4.386,-4.178 -7.306,-6.51 -9.623,-7.972 z m 0,0"
   id="path489" />
		<path
   style="clip-rule:evenodd;fill:#d2a855;fill-rule:evenodd"
   d="m 1523.181,1264.708 c 4.858,13.607 101.755,220.98 101.755,220.98 0,0 14.078,-1.933 39.335,-11.178 25.281,-9.22 52.471,-26.719 64.616,-45.655 12.145,-18.956 19.927,-41.293 22.357,-56.834 2.429,-15.56 -2.429,-51.505 -4.387,-54.424 -1.933,-2.905 -66.054,-30.12 -81.595,-35.449 -15.565,-5.353 -63.649,-17.498 -77.728,-25.752 -14.103,-8.254 -36.455,-17.858 -36.455,-17.858 0,0 3.527,4.348 -9.585,14.535 -13.11,10.211 -18.313,11.635 -18.313,11.635 z m 0,0"
   id="path490" />
		<path
   style="clip-rule:evenodd;fill:#95813b;fill-rule:evenodd"
   d="m 1650.363,1569.984 c 6.622,21.613 13.437,31.329 13.437,43.474 0,12.145 -4.387,11.649 -5.825,20.399 -1.462,8.749 -7.782,12.641 -4.858,2.429 2.9,-10.207 1.933,-18.936 3.396,-27.21 1.462,-8.259 -0.496,-11.654 -3.891,-19.908 -3.396,-8.253 -2.259,-19.184 -2.259,-19.184 z m 0,0"
   id="path491" />
		<path
   style="clip-rule:evenodd;fill:#c0aa5e;fill-rule:evenodd"
   d="m 1289.259,1460.164 c -1.724,21.978 -0.34,34.691 0.685,43.285 1.025,8.579 1.025,16.473 1.025,12.699 0,-3.78 1.044,-12.014 1.044,-17.178 0,-5.14 -1.729,-7.209 -1.389,-13.738 0.345,-6.524 1.389,-15.444 1.025,-18.198 -0.34,-2.75 -2.39,-8.254 -2.39,-8.254 z m 0,0"
   id="path492" />
		<path
   style="clip-rule:evenodd;fill:#b38730;fill-rule:evenodd"
   d="m 1464.603,1256.775 c 20.685,7.588 10.017,4.61 27.326,7.229 18.975,2.866 31.936,0 37.44,-2.73 5.504,-2.755 101.887,221.986 101.887,221.986 0,0 -20.423,20.399 -84.544,20.399 -64.121,0 -136.495,-1.934 -176.821,-14.574 -40.326,-12.616 -78.223,-44.193 -83.081,-53.438 -4.858,-9.22 -14.574,-31.577 -14.574,-31.577 z m 0,0"
   id="path493" />
		<path
   style="clip-rule:evenodd;fill:#d2a855;fill-rule:evenodd"
   d="m 1293.718,1260.229 c 0,0 -34.346,16.488 -48.084,49.474 -13.739,32.981 -11.008,77.631 -4.12,87.934 6.869,10.304 30.173,28.05 37.746,31.485 7.549,3.435 193.086,-171.628 193.086,-171.628 0,0 4.115,-0.7 -13.738,-11.003 -17.858,-10.304 8.404,-26.092 8.404,-26.092 z m 0,0"
   id="path494" />
		<path
   style="clip-rule:evenodd;fill:#d6b064;fill-rule:evenodd"
   d="m 1491.171,1211.498 c 0,0 -99.21,-0.039 -130.126,5.465 -30.911,5.485 -90.004,54.954 -90.004,54.954 l 184.813,-39.165 c 0,0 -4.12,-4.805 13.738,-12.354 17.877,-7.574 21.579,-8.9 21.579,-8.9 z m 0,0"
   id="path495" />
		<path
   style="clip-rule:evenodd;fill:#ca9735;fill-rule:evenodd"
   d="m 1271.158,1271.766 0.223,4.95 183.982,-41.444 0.359,-2.691 z m 0,0"
   id="path496" />
		<path
   style="clip-rule:evenodd;fill:#a2792b;fill-rule:evenodd"
   d="m 1472.745,1257.115 -0.19,3.779 -189.918,169.801 -2.657,-1.443 z m 0,0"
   id="path497" />
		<path
   style="clip-rule:evenodd;fill:#b78930;fill-rule:evenodd"
   d="m 1242.54,1399.328 c 1.103,4.324 5.752,10.625 6.131,11.65 0.68,1.802 15.92,13.568 18.708,15.108 3.381,1.836 14.326,4.324 14.88,4.513 0,0 0.019,-0.053 0.019,-0.092 l -2.239,-1.273 c 0,0 1.651,-1.443 -0.058,0 -6.302,-2.867 -26.38,-20.21 -37.441,-29.906 z m 0,0"
   id="path498" />
		<path
   style="clip-rule:evenodd;fill:#8a6825;fill-rule:evenodd"
   d="m 1284.289,1430.487 -1.559,0.131 c 0,0 2.925,13.058 12.718,19.757 9.789,6.694 30.741,25.407 37.951,27.477 7.209,2.07 24.042,11.669 30.061,13.224 5.995,1.54 17.513,4.46 25.067,6.189 7.549,1.705 20.093,4.97 35.561,6.014 15.448,1.025 19.582,0.855 30.911,1.71 11.329,0.855 14.938,2.069 29.891,2.069 14.934,0 48.959,3.396 58.427,3.396 9.468,0 30.362,-1.443 39.112,-3.153 8.749,-1.705 11.178,0.495 29.867,-6.792 18.713,-7.287 19.432,-11.178 19.432,-11.178 l -0.471,-5.825 -0.228,-0.058 c -1.141,1.103 -21.997,20.209 -84.315,20.209 -64.121,0 -136.495,-1.934 -176.821,-14.574 -40.326,-12.635 -78.223,-44.213 -83.081,-53.438 -0.701,-1.345 -1.653,-3.356 -2.523,-5.158 z m 0,0"
   id="path499" />
		<path
   style="clip-rule:evenodd;fill:#c89635;fill-rule:evenodd"
   d="m 1751.715,1366.988 c -0.093,1.822 -0.243,3.532 -0.471,5.013 -2.429,15.56 -10.211,37.897 -22.357,56.853 -12.145,18.937 -39.335,36.435 -64.616,45.655 -15.788,5.771 -26.583,8.501 -32.942,9.886 v 0.058 l 0.267,3.265 c 16.546,-1.195 24.63,-3.338 36.377,-7.457 11.766,-4.12 22.755,-9.624 29.109,-13.908 6.359,-4.309 34.006,-28.448 38.674,-35.468 3.036,-4.557 10.8,-22.167 12.733,-28.448 1.672,-5.368 3.246,-34.424 3.226,-35.449 z m 0,0"
   id="path500" />
		<path
   style="clip-rule:evenodd;fill:#b2852f;fill-rule:evenodd"
   d="m 1491.171,1211.498 c 0,0 -3.721,1.326 -21.579,8.88 -17.362,7.36 -13.986,12.028 -13.777,12.276 0.326,-0.359 4.212,-4.916 10.381,-7.36 6.432,-2.546 16.396,-7.535 19.073,-8.37 2.677,-0.855 5.747,-2.487 5.747,-2.487 z m 0,0"
   id="path501" />
		<path
   style="clip-rule:evenodd;fill:#a27a2b;fill-rule:evenodd"
   d="m 1551.1,1238.557 -0.039,1.933 0.282,0.933 c 0,0 0.228,-0.704 0.175,-1.574 -0.039,-0.704 -0.418,-1.292 -0.418,-1.292 z m 0,0"
   id="path502" />
		<path
   style="clip-rule:evenodd;fill:#cc9d3f;fill-rule:evenodd"
   d="m 1465.589,1277.29 c -23.795,28.652 -53.933,72.87 -53.933,72.87 0,0 -24.761,34.973 -14.078,25.257 10.683,-9.716 36.435,-53.438 38.864,-56.834 2.429,-3.415 35.94,-43.722 35.94,-43.722 z m 0,0"
   id="path503" />
		<path
   style="clip-rule:evenodd;fill:#cc9d3f;fill-rule:evenodd"
   d="m 1505.42,1286.51 c -0.471,3.396 -11.65,42.26 -20.894,65.583 -9.221,23.323 -11.649,32.072 -7.758,27.686 3.891,-4.363 24.761,-60.229 25.752,-63.625 0.966,-3.415 2.9,-29.644 2.9,-29.644 z m 0,0"
   id="path504" />
		<path
   style="clip-rule:evenodd;fill:#cc9d3f;fill-rule:evenodd"
   d="m 1530.205,1354.032 c 0,2.429 5.329,70.441 5.329,70.441 0,0 15.069,41.293 15.069,43.246 0,1.933 -10.683,-41.788 -11.178,-44.218 -0.471,-2.429 -3.891,-67.516 -3.891,-67.516 z m 0,0"
   id="path505" />
		<path
   style="clip-rule:evenodd;fill:#cc9d3f;fill-rule:evenodd"
   d="m 1522.918,1279.224 c 1.933,6.32 13.112,38.864 17.003,44.217 3.891,5.329 27.686,77.232 27.686,77.232 0,0 -3.891,-18.465 -3.891,-20.399 0,-1.953 -17.97,-51.504 -17.97,-51.504 l -13.112,-33.034 z m 0,0"
   id="path506" />
		<path
   style="clip-rule:evenodd;fill:#cc9d3f;fill-rule:evenodd"
   d="m 1368.429,1375.893 c -15.069,10.702 -53.933,46.641 -57.329,51.5 -3.396,4.858 -12.145,18.465 -10.683,16.512 1.462,-1.938 39.831,-33.02 39.831,-33.02 0,0 16.532,-20.894 20.399,-23.323 3.891,-2.429 20.894,-16.036 20.894,-16.036 z m 0,0"
   id="path507" />
		<path
   style="clip-rule:evenodd;fill:#cc9d3f;fill-rule:evenodd"
   d="m 1431.088,1363.272 c -1.438,2.429 -12.616,32.544 -12.616,32.544 0,0 -20.399,36.435 -23.819,40.326 -3.396,3.891 -29.148,24.29 -30.115,29.624 -0.967,5.349 -12.145,11.669 -12.145,11.669 0,0 16.036,-27.686 17.97,-28.181 1.958,-0.491 19.927,-14.574 20.894,-16.507 0.967,-1.958 17.003,-27.214 19.432,-31.106 2.429,-3.887 20.399,-38.369 20.399,-38.369 z m 0,0"
   id="path508" />
		<path
   style="clip-rule:evenodd;fill:#cc9d3f;fill-rule:evenodd"
   d="m 1462.665,1364.734 c -5.329,11.159 -4.363,24.29 -12.145,43.226 -7.758,18.941 -25.257,57.805 -27.686,62.663 -2.429,4.858 -8.254,14.574 -7.758,11.173 0.471,-3.396 20.399,-57.324 20.399,-57.324 0,0 1.462,-11.159 8.254,-17.479 6.792,-6.32 7.782,-14.098 8.749,-17.003 0.966,-2.924 10.187,-25.256 10.187,-25.256 z m 0,0"
   id="path509" />
		<path
   style="clip-rule:evenodd;fill:#cc9d3f;fill-rule:evenodd"
   d="m 1502.024,1382.208 c -2.924,17.499 -17.97,67.045 -19.432,84.544 -1.462,17.474 17.499,-50.042 18.465,-53.438 0.967,-3.415 2.9,-22.847 3.396,-24.786 0.496,-1.933 -2.429,-6.32 -2.429,-6.32 z m 0,0"
   id="path510" />
		<path
   style="clip-rule:evenodd;fill:#cc9d3f;fill-rule:evenodd"
   d="m 1555.462,1419.139 c 8.749,21.861 27.214,69.945 27.214,69.945 l 5.329,4.858 c 0,0 -8.254,-18.936 -8.254,-20.889 0,-1.938 -11.178,-33.515 -11.65,-35.449 -0.495,-1.958 -15.565,-44.217 -15.565,-44.217 l 4.858,27.214 z m 0,0"
   id="path511" />
		<path
   style="clip-rule:evenodd;fill:#cc9d3f;fill-rule:evenodd"
   d="m 1517.565,1429.821 c -4.858,38.373 -7.758,56.834 -7.287,61.692 0.496,4.858 8.254,-19.903 9.716,-25.747 1.462,-5.83 0.967,-29.148 1.462,-33.02 0.495,-3.891 3.396,-26.248 3.396,-26.248 l -5.329,24.786 z m 0,0"
   id="path512" />
		<path
   style="clip-rule:evenodd;fill:#cc9d3f;fill-rule:evenodd"
   d="m 1467.523,1429.821 c -11.154,32.073 -27.686,49.076 -29.148,51.505 -1.438,2.429 -5.825,11.159 -5.825,11.159 l 13.607,-14.574 c 0,0 11.65,-17.003 13.607,-18.941 1.933,-1.933 11.649,-29.148 13.112,-31.577 1.462,-2.429 12.145,-26.223 12.145,-26.223 z m 0,0"
   id="path513" />
		<path
   style="clip-rule:evenodd;fill:#cc9d3f;fill-rule:evenodd"
   d="m 1479.668,1286.51 c -2.901,9.225 -43.227,76.761 -43.722,79.19 -0.472,2.429 -4.363,24.766 -4.363,24.766 0,0 7.287,-22.337 9.716,-25.262 2.429,-2.9 13.607,-22.828 17.499,-27.19 3.867,-4.387 20.87,-39.85 20.87,-39.85 z m 0,0"
   id="path514" />
		<path
   style="clip-rule:evenodd;fill:#cc9d3f;fill-rule:evenodd"
   d="m 1335.39,1453.62 c 13.607,-21.861 18.465,-33.515 23.323,-39.34 4.858,-5.825 43.227,-33.53 49.076,-38.388 5.825,-4.858 14.574,-22.833 14.574,-22.833 0,0 -0.495,14.574 -3.42,18.961 -2.9,4.362 -27.686,22.089 -27.686,22.089 0,0 -29.619,25.995 -32.544,31.349 -2.924,5.329 -22.828,32.048 -22.828,32.048 z m 0,0"
   id="path515" />
		<path
   style="clip-rule:evenodd;fill:#b98b31;fill-rule:evenodd"
   d="m 1559.824,1283.115 c 11.674,15.541 23.819,43.226 24.785,45.655 0.967,2.429 16.036,41.293 16.036,41.293 l 11.178,24.786 -10.211,-31.101 -22.356,-57.31 -13.583,-17.989 z m 0,0"
   id="path516" />
		<path
   style="clip-rule:evenodd;fill:#b98b31;fill-rule:evenodd"
   d="m 1571.003,1269.017 c 2.429,1.953 40.326,19.432 49.076,23.814 8.749,4.362 47.118,12.621 47.118,12.621 l 38.864,13.131 -48.084,-20.894 c 0,0 -29.148,-3.396 -31.106,-4.382 -1.933,-0.972 -34.973,-15.546 -34.973,-15.546 l -12.145,-23.318 3.891,18.46 z m 0,0"
   id="path517" />
		<path
   style="clip-rule:evenodd;fill:#b98b31;fill-rule:evenodd"
   d="m 1703.631,1304.48 c 16.036,4.387 41.788,22.833 41.788,22.833 0,0 -13.607,-3.872 -15.565,-4.858 -1.933,-0.972 -69.45,-31.086 -69.45,-31.086 l 18.937,3.396 z m 0,0"
   id="path518" />
		<path
   style="clip-rule:evenodd;fill:#b98b31;fill-rule:evenodd"
   d="m 1643.873,1325.374 c 0,0 52.471,16.036 56.363,17.003 3.892,0.967 35.468,19.432 37.897,20.399 2.429,0.972 -22.357,-5.329 -22.357,-5.329 l -35.468,-17.499 c 0,0 -38.368,-7.287 -40.326,-7.778 -1.933,-0.476 -42.26,-24.29 -37.873,-22.833 4.362,1.463 41.764,16.037 41.764,16.037 z m 0,0"
   id="path519" />
		<path
   style="clip-rule:evenodd;fill:#b98b31;fill-rule:evenodd"
   d="m 1620.55,1342.873 c 11.674,6.792 58.296,38.864 66.078,39.831 7.782,0.967 21.365,31.081 23.323,32.053 1.934,0.986 6.792,12.145 6.792,12.145 l -20.399,-21.861 -12.145,-22.337 -26.224,-9.716 c 0,0 -23.819,-13.607 -26.248,-15.07 -2.428,-1.457 -11.177,-15.045 -11.177,-15.045 z m 0,0"
   id="path520" />
		<path
   style="clip-rule:evenodd;fill:#b98b31;fill-rule:evenodd"
   d="m 1614.725,1366.177 c 2.429,0.986 44.689,61.215 44.689,61.215 0,0 9.245,20.894 9.716,22.828 0.496,1.958 3.42,16.532 3.42,16.532 l -14.103,-28.677 c 0,0 -12.145,-21.365 -15.045,-25.257 -2.924,-3.891 -20.894,-25.257 -20.894,-25.257 z m 0,0"
   id="path521" />
		<path
   style="clip-rule:evenodd;fill:#aa802d;fill-rule:evenodd"
   d="m 1570.284,1244.251 c 17.003,2.905 11.178,2.677 26.719,6.792 15.541,4.139 25.009,9.964 26.471,9.964 1.462,0 -23.075,-11.178 -23.075,-11.178 l -26.967,-5.329 -2.181,-0.743 -3.148,0.248 z m 0,0"
   id="path522" />
		<path
   style="clip-rule:evenodd;fill:#aa802d;fill-rule:evenodd"
   d="m 1648.483,1272.184 c 4.858,0 33.535,3.396 34.501,3.891 0.967,0.471 15.069,8.73 16.755,9.22 1.71,0.495 -19.184,-7.287 -21.613,-7.287 -2.429,0 -27.215,-4.61 -27.215,-4.61 z m 0,0"
   id="path523" />
		<path
   style="clip-rule:evenodd;fill:#aa802d;fill-rule:evenodd"
   d="m 1646.302,1264.159 c 8.254,0 26.248,3.644 34.501,1.705 8.254,-1.933 15.293,-1.933 15.293,-1.933 l -1.933,3.148 -35.22,0.724 z m 0,0"
   id="path524" />
		<path
   style="clip-rule:evenodd;fill:#aa802d;fill-rule:evenodd"
   d="m 1698.054,1276.076 c 6.544,0.719 21.861,4.61 21.861,4.61 l 5.825,2.429 -10.683,-0.739 -22.109,-5.086 z m 0,0"
   id="path525" />
		<path
   style="clip-rule:evenodd;fill:#aa802d;fill-rule:evenodd"
   d="m 1641.692,1246.432 c 10.683,0.496 30.362,1.462 30.362,1.462 0,0 18.217,0.719 19.927,0.967 1.686,0.248 -4.387,1.462 -7.063,1.215 -2.652,-0.248 -5.081,0.248 -13.583,-0.491 -8.502,-0.724 -28.429,-0.476 -28.429,-0.476 l -14.078,-1.214 z m 0,0"
   id="path526" />
		<path
   style="clip-rule:evenodd;fill:#aa802d;fill-rule:evenodd"
   d="m 1599.679,1241.326 c 8.725,0 33.263,-1.933 34.973,-2.429 1.686,-0.471 8.006,-3.396 13.831,-3.396 5.849,0 17.746,0.967 17.746,0.967 l -9.245,3.172 h -13.36 l -22.332,0.967 -11.897,2.181 z m 0,0"
   id="path527" />
		<path
   style="clip-rule:evenodd;fill:#aa802d;fill-rule:evenodd"
   d="m 1589.468,1234.535 c 2.429,-0.248 36.93,-5.354 39.111,-5.354 2.181,0 5.825,-1.214 6.792,-1.933 0.967,-0.739 7.287,-0.248 7.287,-0.248 l -10.683,3.153 c 0,0 -17.003,4.63 -20.894,4.63 -3.891,0 -21.613,-0.248 -21.613,-0.248 z m 0,0"
   id="path528" />
		<path
   style="clip-rule:evenodd;fill:#aa802d;fill-rule:evenodd"
   d="m 1554.495,1228.938 c 0,0 -0.743,-1.215 14.574,0 15.293,1.214 30.115,-1.215 30.115,-1.215 l 18.936,-2.905 c 0,0 -22.332,1.69 -23.299,1.69 -0.991,0 -20.423,0.491 -20.423,0.491 0,0 -13.359,-0.248 -14.797,-0.491 -1.462,-0.227 -5.106,2.43 -5.106,2.43 z m 0,0"
   id="path529" />
		<path
   style="clip-rule:evenodd;fill:#b98b31;fill-rule:evenodd"
   d="m 1445.21,1266.073 c -11.674,5.844 -18.902,8.254 -22.337,14.423 -3.434,6.184 -28.842,29.546 -28.842,29.546 l -9.964,6.869 26.112,-28.502 12.009,-12.713 c 0,0 5.164,-10.649 6.529,-10.649 1.385,0 -3.094,8.919 -3.094,8.919 z m 0,0"
   id="path530" />
		<path
   style="clip-rule:evenodd;fill:#b98b31;fill-rule:evenodd"
   d="m 1290.284,1394.542 c 4.8,-4.8 11.669,-9.259 21.633,-15.788 9.964,-6.524 42.945,-29.886 42.945,-29.886 l -21.973,9.259 -24.406,19.243 z m 0,0"
   id="path531" />
		<path
   style="clip-rule:evenodd;fill:#b98b31;fill-rule:evenodd"
   d="m 1317.421,1351.962 39.17,-25.087 17.513,-15.108 24.727,-28.521 -23.017,19.242 c 0,0 -25.072,22.677 -26.437,23.017 -1.385,0.345 -31.956,26.457 -31.956,26.457 z m 0,0"
   id="path532" />
		<path
   style="clip-rule:evenodd;fill:#b98b31;fill-rule:evenodd"
   d="m 1267.266,1283.246 46.719,-8.574 31.596,-2.755 -42.24,7.554 z m 0,0"
   id="path533" />
		<path
   style="clip-rule:evenodd;fill:#b98b31;fill-rule:evenodd"
   d="m 1249.408,1320.346 c 4.12,-2.05 25.772,-17.518 32.641,-19.583 6.869,-2.05 42.925,-7.894 45.335,-8.239 2.41,-0.34 -21.633,10.304 -24.042,10.304 -2.414,0 -29.891,5.849 -29.891,5.849 z m 0,0"
   id="path534" />
		<path
   style="clip-rule:evenodd;fill:#b98b31;fill-rule:evenodd"
   d="m 1446.915,1249.585 c -1.705,-0.345 -54.273,17.173 -54.273,17.173 l -31.251,21.992 22.677,-13.053 16.833,-6.529 c 0,0 20.948,-8.239 22.677,-8.579 1.705,-0.359 20.263,-0.7 20.263,-0.7 l -14.098,-2.754 z m 0,0"
   id="path535" />
		<path
   style="clip-rule:evenodd;fill:#b98b31;fill-rule:evenodd"
   d="m 1355.886,1262.298 c 6.184,-1.025 20.967,-1.71 31.956,-6.529 10.989,-4.8 25.067,-6.529 26.797,-6.529 1.705,0 -32.301,14.083 -32.301,14.083 z m 0,0"
   id="path536" />
		<path
   style="clip-rule:evenodd;fill:#b98b31;fill-rule:evenodd"
   d="m 1352.452,1302.148 c -6.17,3.094 -46.02,19.923 -46.02,19.923 0,0 -10.644,0.345 -12.029,1.025 -1.37,0.685 -30.571,15.128 -30.571,15.128 l 36.416,-15.468 7.894,1.71 z m 0,0"
   id="path537" />
		<path
   style="clip-rule:evenodd;fill:#b98b31;fill-rule:evenodd"
   d="m 1244.589,1360.881 c 3.094,-1.37 66.302,-19.927 66.302,-19.927 l -19.923,6.869 -19.223,9.279 -21.652,6.529 z m 0,0"
   id="path538" />
		<path
   style="clip-rule:evenodd;fill:#b98b31;fill-rule:evenodd"
   d="m 1245.289,1385.968 c 1.71,-1.385 46.02,-20.268 46.02,-20.268 l 18.558,-17.877 -14.783,24.062 c 0,0 -14.763,4.805 -17.853,5.83 -3.095,1.04 -27.482,8.934 -27.482,8.934 z m 0,0"
   id="path539" />
		<path
   style="clip-rule:evenodd;fill:#aa802d;fill-rule:evenodd"
   d="m 1439.021,1231.382 c -15.444,0 -52.204,2.755 -52.904,4.12 -0.685,1.365 -5.829,7.554 -12.699,8.599 -6.869,1.025 -21.307,4.8 -21.307,4.8 l 24.042,-2.754 15.463,-8.915 c 0,0 12.373,-0.364 19.927,-0.364 7.555,-10e-4 27.478,-5.486 27.478,-5.486 z m 0,0"
   id="path540" />
		<path
   style="clip-rule:evenodd;fill:#aa802d;fill-rule:evenodd"
   d="m 1458.948,1218.328 -47.744,1.705 c 0,0 15.443,-4.115 17.513,-4.115 2.07,0 30.231,2.41 30.231,2.41 z m 0,0"
   id="path541" />
		<path
   style="clip-rule:evenodd;fill:#aa802d;fill-rule:evenodd"
   d="m 1387.502,1220.398 -23.362,8.234 -19.923,-2.41 23.017,-2.735 z m 0,0"
   id="path542" />
		<path
   style="clip-rule:evenodd;fill:#aa802d;fill-rule:evenodd"
   d="m 1402.605,1216.259 -24.897,-0.34 -12.883,1.895 c 0,0 13.224,-0.85 13.908,-0.85 0.685,0 17.707,0.51 17.707,0.51 z m 0,0"
   id="path543" />
		<path
   style="clip-rule:evenodd;fill:#aa802d;fill-rule:evenodd"
   d="m 1411.544,1222.103 -27.307,5.504 -19.243,7.209 c 0,0 16.663,-3.945 17.343,-4.46 0.705,-0.53 11.693,-3.09 12.543,-3.09 0.856,10e-4 16.664,-5.163 16.664,-5.163 z m 0,0"
   id="path544" />
		<path
   style="clip-rule:evenodd;fill:#aa802d;fill-rule:evenodd"
   d="m 1343.192,1239.791 -15.638,-0.34 -16.493,5.329 c 0,0 13.743,-1.555 16.493,-1.555 2.75,0 8.594,-1.88 14.423,-1.71 5.844,0.175 14.098,0 14.783,0 0.681,10e-4 -13.568,-1.724 -13.568,-1.724 z m 0,0"
   id="path545" />
		<path
   style="clip-rule:evenodd;fill:#aa802d;fill-rule:evenodd"
   d="m 1333.058,1252.505 -17.877,4.989 -13.228,1.025 -13.908,3.95 c 0,0 20.608,-2.754 21.312,-2.754 0.68,0 14.763,-2.75 14.763,-2.75 z m 0,0"
   id="path546" />
		<path
   style="clip-rule:evenodd;fill:#cc9d3f;fill-rule:evenodd"
   d="m 1546.713,1216.07 20.646,-1.933 10.93,1.933 -15.045,-0.491 -14.822,1.457 z m 0,0"
   id="path547" />
		<path
   style="clip-rule:evenodd;fill:#cc9d3f;fill-rule:evenodd"
   d="m 1589.22,1213.393 c 0,0 21.861,-2.181 22.828,-1.933 0.991,0.248 3.643,2.181 3.643,2.181 z m 0,0"
   id="path548" />
		<path
   style="clip-rule:evenodd;fill:#cc9d3f;fill-rule:evenodd"
   d="m 1557.891,1206.601 c 1.462,-0.248 13.359,-4.61 13.359,-4.61 l -7.535,5.086 z m 0,0"
   id="path549" />
		<path
   style="clip-rule:evenodd;fill:#cc9d3f;fill-rule:evenodd"
   d="m 1539.426,1213.15 c 1.71,-1.214 8.254,-10.688 8.254,-10.688 l 6.32,-2.9 -8.254,9.944 z m 0,0"
   id="path550" />
		<path
   style="clip-rule:evenodd;fill:#cc9d3f;fill-rule:evenodd"
   d="m 1526.314,1212.922 3.148,-6.568 5.354,-1.214 -3.643,2.429 z m 0,0"
   id="path551" />
		<path
   style="clip-rule:evenodd;fill:#cc9d3f;fill-rule:evenodd"
   d="m 1515.631,1209.278 1.462,-4.858 h 2.652 z m 0,0"
   id="path552" />
		<path
   style="clip-rule:evenodd;fill:#cc9d3f;fill-rule:evenodd"
   d="m 1507.601,1208.292 -4.61,-5.334 4.387,1.934 z m 0,0"
   id="path553" />
		<path
   style="clip-rule:evenodd;fill:#cc9d3f;fill-rule:evenodd"
   d="m 1496.447,1208.535 -10.459,-4.61 h 8.03 z m 0,0"
   id="path554" />
		<path
   style="clip-rule:evenodd;fill:#cc9d3f;fill-rule:evenodd"
   d="m 1451.263,1206.601 20.894,1.462 7.039,1.933 -12.145,-5.106 z m 0,0"
   id="path555" />
		<path
   style="clip-rule:evenodd;fill:#cc9d3f;fill-rule:evenodd"
   d="m 1476.272,1199.562 2.677,4.858 0.248,-2.925 z m 0,0"
   id="path556" />
		<path
   style="clip-rule:evenodd;fill:#cc9d3f;fill-rule:evenodd"
   d="m 1437.904,1207.816 -20.647,0.476 9.964,-2.429 z m 0,0"
   id="path557" />
		<path
   style="clip-rule:evenodd;fill:#f8cb9a;fill-rule:evenodd"
   d="m 1546.713,1510.474 0.248,214.869 2.716,-0.131 0.68,-214.927 z m 0,0"
   id="path558" />
		<path
   style="clip-rule:evenodd;fill:#fef7f0;fill-rule:evenodd"
   d="m 1546.256,1510.415 0.913,-0.019 0.112,214.888 -0.607,0.097 z m 0,0"
   id="path559" />
		<path
   style="clip-rule:evenodd;fill:#e19c2f;fill-rule:evenodd"
   d="m 1549.866,1510.299 0.967,-0.034 -0.515,214.927 -0.986,0.039 z m 0,0"
   id="path560" />
		<path
   style="clip-rule:evenodd;fill:#f8cb9a;fill-rule:evenodd"
   d="m 1676.611,1476.866 -0.039,208.019 2.521,-1.88 0.325,-207.261 z m 0,0"
   id="path561" />
		<path
   style="clip-rule:evenodd;fill:#fef7f0;fill-rule:evenodd"
   d="m 1675.926,1477.167 1.234,-0.53 -0.534,208.189 -0.53,0.379 z m 0,0"
   id="path562" />
		<path
   style="clip-rule:evenodd;fill:#e19c2f;fill-rule:evenodd"
   d="m 1679.001,1475.822 1.365,-0.476 -0.719,207.188 -0.801,0.661 z m 0,0"
   id="path563" />
		<path
   style="clip-rule:evenodd;fill:#f8cb9a;fill-rule:evenodd"
   d="m 1407.046,1501.209 0.189,216.977 2.584,0.593 0.53,-217.036 z m 0,0"
   id="path564" />
		<path
   style="clip-rule:evenodd;fill:#fef7f0;fill-rule:evenodd"
   d="m 1406.438,1501.156 0.933,0.131 0.073,216.939 -0.68,-0.151 z m 0,0"
   id="path565" />
		<path
   style="clip-rule:evenodd;fill:#e19c2f;fill-rule:evenodd"
   d="m 1410.043,1501.705 0.855,0.092 -0.816,217.016 -0.568,-0.112 z m 0,0"
   id="path566" />
		<path
   style="clip-rule:evenodd;fill:#f8cb9a;fill-rule:evenodd"
   d="m 1299.072,1453.028 0.209,216.526 2.789,1.992 0.398,-216.03 z m 0,0"
   id="path567" />
		<path
   style="clip-rule:evenodd;fill:#e19c2f;fill-rule:evenodd"
   d="m 1301.632,1454.927 0.894,0.704 -0.418,215.933 -0.666,-0.437 z m 0,0"
   id="path568" />
		<path
   style="clip-rule:evenodd;fill:#a58f40;fill-rule:evenodd"
   d="m 1424.257,1606.152 c 5.485,31.956 7.214,33.666 6.189,41.9 -1.045,8.254 -1.729,11.008 -1.729,17.532 0,6.529 0.685,16.133 2.41,6.869 1.71,-9.279 -4.115,-7.914 -1.385,-19.923 2.754,-12.033 3.094,-10.649 2.754,-20.268 -0.345,-9.624 -0.345,-6.529 -3.78,-16.493 -3.434,-9.957 -4.459,-9.617 -4.459,-9.617 z m 0,0"
   id="path569" />
		<path
   style="clip-rule:evenodd;fill:#a58f40;fill-rule:evenodd"
   d="m 1454.489,1607.177 c -0.34,24.402 -4.12,31.616 0.34,41.575 4.46,9.964 6.189,10.309 6.529,16.833 0.34,6.529 -1.729,5.829 -0.34,-1.385 1.365,-7.209 -1.389,-13.738 -1.389,-21.633 0,-7.895 -0.34,-12.033 -0.34,-12.033 0,0 -4.12,-1.365 -3.775,-5.825 0.34,-4.479 -1.025,-17.532 -1.025,-17.532 z m 0,0"
   id="path570" />
		<path
   style="clip-rule:evenodd;fill:#a58f40;fill-rule:evenodd"
   d="m 1531.439,1534.02 c -3.435,15.108 -2.356,25.811 0,42.925 2.332,17.139 0.68,22.677 1.025,33.326 0.34,10.644 -2.07,24.042 -2.07,24.042 0,0 -1.71,-4.46 2.07,-11.329 3.775,-6.869 4.931,-2.657 4.115,-13.738 -0.816,-11.086 -1.443,-15.298 -0.87,-15.351 0.569,-0.058 1.895,-5.941 -0.495,-13.156 -2.41,-7.229 -4.139,-13.394 -4.479,-17.532 -0.34,-4.12 1.045,-14.763 1.73,-20.608 0.68,-5.844 -1.026,-8.579 -1.026,-8.579 z m 0,0"
   id="path571" />
		<path
   style="clip-rule:evenodd;fill:#b39b47;fill-rule:evenodd"
   d="m 1317.421,1479.387 c -3.775,11.008 -6.869,13.398 -7.554,25.432 -0.68,12.028 -0.68,29.886 -1.025,28.502 -0.359,-1.365 3.779,-15.108 5.144,-21.633 1.365,-6.529 0.685,-12.373 3.095,-17.858 2.409,-5.504 0.34,-14.443 0.34,-14.443 z m 0,0"
   id="path572" />
		<path
   style="clip-rule:evenodd;fill:#b39b47;fill-rule:evenodd"
   d="m 1333.568,1497.95 c -3.435,7.549 -7.209,19.923 -6.869,22.672 0.34,2.735 2.05,11.334 2.05,13.743 0,2.39 -5.825,20.263 -1.71,8.919 4.119,-11.329 4.804,-22.318 5.144,-25.072 0.36,-2.75 1.729,-3.775 2.41,-9.619 0.685,-5.844 -1.025,-10.643 -1.025,-10.643 z m 0,0"
   id="path573" />
		<path
   style="clip-rule:evenodd;fill:#b39b47;fill-rule:evenodd"
   d="m 1350.742,1492.446 c -4.115,14.079 -5.159,11.003 -4.8,23.702 0.34,12.713 2.735,18.217 2.05,8.254 -0.685,-9.964 -8.579,-11.348 -1.365,-16.148 7.209,-4.805 4.115,-15.808 4.115,-15.808 z m 0,0"
   id="path574" />
		<path
   style="clip-rule:evenodd;fill:#b39b47;fill-rule:evenodd"
   d="m 1353.496,1547.759 c -5.504,11.674 -5.504,14.083 -5.504,14.083 0,0 7.209,-12.714 7.894,-17.518 0.704,-4.819 0.359,-14.078 -1.365,-8.934 -1.71,5.159 -1.025,12.369 -1.025,12.369 z m 0,0"
   id="path575" />
		<path
   style="clip-rule:evenodd;fill:#b39b47;fill-rule:evenodd"
   d="m 1374.443,1502.064 c 2.41,14.423 3.435,11.348 3.095,25.432 -0.34,14.078 -1.725,17.173 -2.069,19.583 -0.34,2.39 -3.09,5.485 -2.75,-8.254 0.36,-13.743 0.699,-15.108 0,-20.268 -0.685,-5.145 1.044,-15.108 1.044,-15.108 z m 0,0"
   id="path576" />
		<path
   style="clip-rule:evenodd;fill:#b39b47;fill-rule:evenodd"
   d="m 1390.252,1519.922 c -4.819,13.758 -7.569,37.101 -7.569,40.895 0,3.775 -0.685,13.398 0.7,6.529 1.365,-6.889 -2.07,-3.799 2.39,-13.058 4.479,-9.279 4.824,-14.783 4.824,-19.583 -10e-4,-4.819 -0.345,-14.783 -0.345,-14.783 z m 0,0"
   id="path577" />
	</g>
</g>
</svg>
