<?xml version="1.0" encoding="UTF-8"?>
<svg version="1.1" id="Layer_1" xmlns="http://www.w3.org/2000/svg" xmlns:xlink="http://www.w3.org/1999/xlink" x="0px" y="0px"
     viewBox="178 210 108 82" style="enable-background:new 0 0 297.976 307.734;" xml:space="preserve">
  
	<g>
		<g>
			<g>
				<path style="fill:#426519;" d="M264.32,254.744c-7.657-3.954-15.724-7.102-24.036-9.351c-0.729-0.239-1.46-0.471-2.197-0.687
					c-1.724-0.505-3.469-0.937-5.231-1.266c8.52-2.191,17.105-4.115,25.75-5.75c0.891-0.394,1.759-0.833,2.595-1.324
					c-3.37-0.71-6.825-1.022-10.267-1.001c-0.544,0.003-1.088,0.018-1.632,0.038c-4.736,0.699-9.4,1.408-14.055,2.62
					c-0.275,0.072-0.56,0.143-0.846,0.214c2.071-1.881,3.893-4.074,5.494-6.198c4.09-5.423,7.825-11.278,11.144-17.2
					c0.84-1.499-0.638-2.254-1.816-1.275c-0.749,0.623-1.485,1.263-2.214,1.91c-0.16,0.03-0.321,0.115-0.457,0.277
					c-0.154,0.184-0.31,0.366-0.464,0.549c-3.42,3.121-6.604,6.507-9.481,10.131c-1.142,1.439-2.19,2.911-3.181,4.409
					c0.348-1.091,0.676-2.188,1.003-3.278c2.019-6.729,3.867-13.481,5.163-20.391c0.244-1.302-1.443-1.363-2.105-0.618
					c-4.318,4.858-7.108,10.723-8.997,16.903c-0.861,2.816-1.765,5.711-2.293,8.629c-0.401-1.969-0.942-3.892-1.658-5.728
					c-1.139-2.919-2.716-5.626-4.639-8.098c-1.281-1.648-2.85-3.64-4.833-4.556c-0.676-0.944-1.351-1.886-2.012-2.832
					c-0.77-1.102-2.493,0.729-2.129,1.717c1.701,4.609,3.484,9.213,5.543,13.68c-1.284-1.585-2.706-3.056-4.037-4.379
					c-3.023-3.004-6.596-6.21-10.603-7.812c-0.264-0.105-0.545-0.06-0.79,0.073c0.048,0.179,0.091,0.359,0.141,0.537
					c0.208,0.736,0.437,1.465,0.68,2.19c0.174,0.221,0.345,0.451,0.509,0.691c0.886,2.293,2.277,4.398,3.588,6.469
					c1.472,2.325,3.004,4.617,4.653,6.821c-0.076-0.049-0.151-0.099-0.227-0.148c-4.393-2.825-9.42-5.545-14.584-6.579
					c-0.678-0.136-1.641,0.967-1.035,1.543c1.462,1.39,2.663,3.012,4.174,4.363c1.58,1.412,3.3,2.648,5.073,3.803
					c1.742,1.136,3.514,2.215,5.297,3.274c-0.782-0.146-1.568-0.276-2.359-0.38c-6.378-0.841-12.904-0.408-19.096,1.346
					c-0.446,0.126-0.928,0.668-1.115,1.222c0.665,0.484,1.362,0.925,2.078,1.325c1.447,0.808,2.972,1.47,4.538,2.028
					c4.077,1.105,8.263,1.688,12.555,1.883c3.183,0.144,6.373,0.111,9.556,0.019c1.648-0.048,3.296-0.079,4.919-0.262
					c-0.243,0.111-0.484,0.224-0.726,0.337c-11.335,1.163-23.137,4.44-30.428,13.852c-0.637,0.823,0.049,2.115,1.118,1.609
					c5.78-2.738,11.699-5.203,17.536-7.82c2.922-1.31,5.843-2.621,8.765-3.932c0.377-0.169,0.762-0.334,1.151-0.498
					c0.762-0.2,1.532-0.372,2.3-0.46c-0.505,0.609-0.948,1.186-1.305,1.617c-2.531,3.058-4.788,6.348-6.669,9.846
					c-3.649,6.785-6.186,14.252-6.683,21.973c-0.02,0.313,0.119,0.449,0.306,0.466c0.083,0.326,0.623,0.321,0.919,0.072
					c2.175-1.834,3.478-4.869,4.519-7.453c1.158-2.873,2.064-5.844,3.18-8.734c2.157-5.585,4.653-11.029,7.499-16.293
					c0.192-0.225,0.387-0.451,0.588-0.669c-1.5,5.863-2.266,11.963-1.587,17.96c0.907,8.009,4.045,15.322,7.256,22.628
					c0.368,0.838,1.594-0.051,1.521-0.814c1.332-2.291,0.503-6.401,0.202-8.842c-0.455-3.702-1.285-7.351-2.083-10.991
					c-1.271-5.799-2.328-11.517-2.296-17.381c1.76,5.723,3.659,11.403,5.704,17.032c1.344,3.699,2.766,7.369,4.242,11.017
					c1.416,3.5,2.717,7.347,4.881,10.464c0.292,0.42,0.876,0.136,1.21-0.274c0.302-0.213,0.551-0.55,0.544-0.88
					c-0.172-8.631-2.208-16.937-5.451-24.911c-1.419-3.488-3.069-6.884-5.116-10.05c-0.565-0.874-1.179-1.838-1.85-2.797
					c-0.396-1.18-0.803-2.393-1.313-3.54c4.612,2.806,10.06,4.607,15.07,6.196c4.467,1.417,9.013,2.529,13.616,3.357
					c2.657,0.15,5.335-0.133,7.762-1.202C264.687,255.013,264.546,254.861,264.32,254.744z"/>
				<path style="fill:#72A600;" d="M245.424,234.407c0.921-0.771,1.783-1.598,2.557-2.495c0.214-0.248,0.173-0.779-0.263-0.602
					c-0.121-0.052-0.287-0.029-0.449,0.126c-0.058,0.055-0.119,0.108-0.178,0.163c-3.634,1.679-6.947,4.028-10.513,5.856
					c-2.517,1.29-5.1,2.323-7.698,3.334c2.212-2.204,4.152-4.75,5.703-7.169c2.025-3.157,3.349-6.352,4.187-9.782
					c0.386-1.183,0.692-2.444,0.702-3.65c0.069-0.477,0.134-0.958,0.19-1.446c0.046-0.406-0.335-0.337-0.563-0.129
					c-0.11,0.007-0.228,0.073-0.283,0.175c-1.069,1.997-1.651,4.22-2.656,6.258c-1.139,2.31-2.429,4.488-3.943,6.572
					c-1.492,2.054-3.14,3.978-4.867,5.836c-0.594,0.639-1.293,1.28-1.977,1.947c0.24-1.048,0.41-2.102,0.572-3.035
					c0.46-2.639,0.62-5.315,0.546-7.991c-0.072-2.637-0.398-5.294-1.094-7.842c-0.747-2.734-2.117-4.969-3.274-7.514
					c-0.213-0.468-0.965,0.095-0.793,0.515c0.005,0.011,0.008,0.023,0.013,0.035c-0.107,0.066-0.197,0.177-0.211,0.276
					c-0.322,2.393,0.049,4.87,0.299,7.257c0.258,2.462,0.491,4.926,0.692,7.394c0.201,2.468,0.371,4.938,0.511,7.41
					c0.055,0.962,0.069,1.949,0.092,2.939c-0.036,0.125-0.071,0.25-0.107,0.376c-1.888-2.087-4.183-3.799-6.728-5.106
					c-2.373-1.219-4.951-2.105-7.567-2.625c-1.307-0.259-2.569-0.363-3.824-0.402c-1.726-0.323-3.442-0.368-5.018,0.007
					c-0.197-0.001-0.393,0.001-0.592-0.002c-0.186-0.003-0.396,0.349-0.147,0.37c0.062,0.005,0.124,0.015,0.186,0.021
					c-0.027,0.115-0.003,0.23,0.116,0.292c2.003,1.045,4.44,1.255,6.556,2.069c2.128,0.818,4.179,1.863,6.093,3.1
					c1.465,0.947,2.84,2.025,4.107,3.22c-2.386-0.28-4.822-0.203-6.764-0.06c-3.061,0.226-6.123,0.847-9.014,1.885
					c-3.152,1.131-5.642,2.832-8.337,4.773c-0.562,0.405-0.58,1.435,0.319,1.165c7.35-2.204,14.68-3.598,22.196-3.68
					c0.796,0.055,1.592,0.123,2.386,0.215c1.047,0.121,2.089,0.314,3.132,0.483c0.021,0.032,0.043,0.064,0.064,0.096
					c-5.304,1.866-10.289,5.642-14.161,9.253c-5.519,5.147-9.18,11.635-11.792,18.643c-0.292,0.782,0.699,0.826,1.053,0.301
					c3.746-5.57,8.067-10.756,12.957-15.358c4.228-3.979,8.882-7.282,13.779-10.322c0.025,0.015,0.049,0.034,0.075,0.045
					c-0.837,1.44-1.545,2.942-2.138,4.492c-4.041,8.627-4.405,18.533-2.252,28.01c0.213,0.936,1.37,0.149,1.374-0.529
					c0.033-5.612,0.129-11.24,0.808-16.816c0.57-4.677,1.83-8.904,3.645-13.119c0.083,0.989,0.206,1.964,0.296,2.872
					c0.26,2.612,0.679,5.217,1.288,7.771c0.572,2.399,1.274,4.789,2.19,7.079c0.979,2.448,2.32,4.646,3.508,6.987
					c0.345,0.68,1.477-0.154,1.177-0.765c-0.537-1.098-1.023-2.247-1.465-3.426c0.093-0.11,0.153-0.241,0.129-0.364
					c-0.857-4.355-0.973-8.93-1.386-13.349c-0.242-2.587-0.505-5.469-1.223-8.142c1.658,1.158,3.211,2.462,4.631,3.903
					c2.964,3.01,5.652,6.577,7.259,10.502c0.314,0.767,1.532-0.147,1.281-0.832c-1.566-4.276-3.547-8.161-6.654-11.534
					c-1.573-1.708-3.476-3.502-5.554-4.975c0.06-0.022,0.121-0.043,0.181-0.066c1.825,0.109,3.653,0.145,5.483,0.128
					c4.352-0.04,8.447-0.827,12.732-1.442c0.444-0.064,0.71-0.892,0.123-0.823c-4.155,0.489-8.593,0.25-12.773,0.102
					c-0.279-0.01-0.558-0.024-0.837-0.037c1.005-0.503,1.994-1.037,2.955-1.617C239.833,239.592,242.724,237.148,245.424,234.407z"
					/>
			</g>
			<path style="fill:#B7D433;" d="M234.167,240.47c-0.941,0.318-1.923,0.522-2.895,0.728c-0.91,0.192-1.828,0.373-2.753,0.477
				c-0.929,0.104-1.862,0.14-2.796,0.157c-0.366,0.007-0.752,0.027-1.115-0.044c0.265-0.251,0.52-0.512,0.764-0.772
				c0.534-0.568,1.028-1.17,1.487-1.8c0.894-1.229,1.573-2.567,2.307-3.892c0.175-0.316-0.229-0.46-0.388-0.182
				c-0.725,1.269-1.717,2.387-2.727,3.437c-0.493,0.513-1.004,1.014-1.525,1.499c-0.14,0.131-0.287,0.255-0.431,0.382
				c0.109-0.336,0.184-0.687,0.25-1.028c0.122-0.629,0.221-1.263,0.295-1.9c0.148-1.267,0.185-2.545,0.135-3.819
				c-0.049-1.247-0.204-2.476-0.462-3.697c-0.127-0.601-0.286-1.192-0.469-1.778c-0.197-0.633-0.606-1.147-0.819-1.764
				c-0.076-0.219-0.419,0.04-0.361,0.234c0.191,0.633,0.136,1.351,0.25,2.007c0.106,0.608,0.194,1.22,0.271,1.832
				c0.15,1.189,0.23,2.395,0.243,3.593c0.013,1.198-0.067,2.4-0.209,3.59c-0.024,0.203-0.055,0.406-0.084,0.608
				c-0.201-0.5-0.418-0.992-0.645-1.468c-0.745-1.566-1.673-3.033-2.726-4.41c-2.205-2.884-4.942-5.299-7.885-7.404
				c-0.833-0.596-1.678-1.158-2.556-1.685c-0.464-0.279-0.943-0.538-1.438-0.76c-0.223-0.1-0.455-0.182-0.682-0.272
				c-0.276-0.109-0.636-0.156-0.877-0.303c-0.231-0.141-0.562,0.297-0.31,0.466c0.181,0.122,0.325,0.388,0.487,0.548
				c0.145,0.144,0.289,0.291,0.435,0.434c0.335,0.327,0.699,0.635,1.067,0.925c0.608,0.478,1.226,0.943,1.844,1.407
				c0.583,0.598,1.181,1.18,1.776,1.774c1.045,1.043,2.057,2.128,3.021,3.247c1.941,2.254,3.718,4.661,5.219,7.23
				c0.042,0.073,0.081,0.147,0.123,0.219c-0.804-0.324-1.636-0.576-2.487-0.742c-1.313-0.257-2.693-0.328-4.023-0.176
				c-0.701,0.08-1.414,0.22-2.083,0.441c-0.32,0.106-0.669,0.227-0.989,0.392c-0.36,0.061-0.714,0.147-1.058,0.267
				c-0.22,0.077-0.59,0.633-0.206,0.748c0.128,0.038,0.257,0.071,0.387,0.102c0.027,0.053,0.069,0.097,0.134,0.119
				c0.211,0.072,0.444,0.071,0.681,0.04c0.851,0.133,1.721,0.187,2.568,0.313c1.334,0.199,2.655,0.521,3.933,0.953
				c1.267,0.428,2.496,0.969,3.665,1.618c0.397,0.22,0.785,0.456,1.169,0.698c-0.418,0.073-0.837,0.142-1.253,0.226
				c-1.395,0.282-2.775,0.633-4.14,1.038c-1.23,0.365-2.451,0.762-3.608,1.323c-0.541,0.262-1.095,0.535-1.581,0.891
				c-0.539,0.396-0.949,0.867-1.426,1.327c-0.469,0.453,0.056,0.935,0.538,0.544c0.409-0.331,0.965-0.538,1.435-0.773
				c0.523-0.261,1.042-0.513,1.589-0.723c1.116-0.429,2.267-0.777,3.42-1.092c1.223-0.335,2.463-0.619,3.706-0.866
				c0.574-0.114,1.163-0.193,1.752-0.276c-0.573,0.776-1.105,1.583-1.594,2.413c-1.255,2.134-2.158,4.441-2.827,6.821
				c-0.143,0.508,0.515,0.48,0.657,0.085c0.753-2.106,1.791-4.067,3.001-5.945c0.411-0.638,0.856-1.254,1.317-1.858
				c0.018,0.106,0.034,0.212,0.053,0.318c0.257,1.464,0.573,2.918,0.921,4.363c0.345,1.432,0.714,2.859,1.155,4.265
				c0.441,1.405,1.016,2.759,1.477,4.155c0.152,0.462,0.893-0.081,0.765-0.497c-0.428-1.4-0.684-2.865-1.002-4.294
				c-0.312-1.398-0.63-2.795-0.909-4.201c-0.278-1.402-0.535-2.811-0.757-4.224c-0.028-0.177-0.05-0.355-0.076-0.533
				c1.255,1.448,2.464,2.945,3.567,4.507c0.711,1.007,1.333,2.101,1.691,3.286c0.396,1.309,0.462,2.714,0.555,4.07
				c0.019,0.274,0.323,0.341,0.54,0.263c0.271-0.097,0.432-0.361,0.434-0.638c0.017-2.369-0.172-4.609-1.292-6.741
				c-1.078-2.053-2.577-3.902-4.047-5.684c-0.217-0.263-0.439-0.523-0.661-0.784c0.106-0.092,0.202-0.197,0.294-0.313
				c0.823-0.041,1.643-0.137,2.454-0.271c1.09-0.181,2.179-0.4,3.236-0.723c1.108-0.339,2.14-0.812,3.19-1.295
				C234.672,241.033,234.758,240.27,234.167,240.47z"/>
		</g>
		<g>
			<g>
				<path style="fill:#426519;" d="M284.587,278.682c-5.217-2.693-10.711-4.838-16.374-6.37c-0.497-0.163-0.995-0.321-1.497-0.468
					c-1.174-0.344-2.363-0.638-3.563-0.862c5.804-1.493,11.652-2.803,17.541-3.917c0.607-0.268,1.198-0.567,1.767-0.902
					c-2.295-0.484-4.649-0.696-6.994-0.682c-0.37,0.002-0.741,0.012-1.111,0.026c-3.226,0.476-6.404,0.959-9.574,1.785
					c-0.187,0.049-0.382,0.097-0.576,0.146c1.411-1.281,2.652-2.776,3.743-4.222c2.786-3.695,5.331-7.683,7.591-11.717
					c0.572-1.021-0.435-1.535-1.237-0.868c-0.51,0.424-1.011,0.86-1.508,1.301c-0.109,0.021-0.218,0.079-0.311,0.188
					c-0.105,0.125-0.211,0.249-0.316,0.374c-2.33,2.126-4.499,4.433-6.459,6.902c-0.778,0.98-1.492,1.983-2.167,3.003
					c0.237-0.743,0.461-1.49,0.683-2.233c1.375-4.584,2.634-9.184,3.517-13.891c0.167-0.887-0.983-0.928-1.434-0.421
					c-2.941,3.309-4.842,7.305-6.129,11.515c-0.586,1.918-1.202,3.891-1.562,5.878c-0.273-1.341-0.642-2.651-1.13-3.902
					c-0.776-1.988-1.85-3.833-3.16-5.517c-0.873-1.122-1.942-2.48-3.292-3.104c-0.46-0.643-0.92-1.285-1.37-1.929
					c-0.525-0.751-1.699,0.496-1.45,1.17c1.158,3.14,2.374,6.276,3.776,9.319c-0.874-1.08-1.844-2.082-2.75-2.983
					c-2.059-2.047-4.493-4.231-7.223-5.322c-0.18-0.072-0.371-0.041-0.538,0.05c0.033,0.122,0.062,0.244,0.096,0.366
					c0.141,0.502,0.298,0.998,0.463,1.492c0.119,0.151,0.235,0.307,0.347,0.471c0.604,1.562,1.551,2.996,2.444,4.407
					c1.003,1.584,2.046,3.145,3.17,4.646c-0.052-0.033-0.103-0.068-0.155-0.101c-2.993-1.924-6.417-3.777-9.935-4.482
					c-0.462-0.092-1.118,0.659-0.705,1.051c0.996,0.947,1.814,2.052,2.843,2.972c1.076,0.962,2.248,1.804,3.456,2.591
					c1.187,0.774,2.394,1.509,3.608,2.23c-0.533-0.1-1.068-0.188-1.607-0.259c-4.345-0.573-8.791-0.278-13.009,0.917
					c-0.304,0.086-0.632,0.455-0.76,0.832c0.453,0.33,0.928,0.63,1.416,0.903c0.985,0.551,2.025,1.002,3.091,1.382
					c2.777,0.753,5.629,1.15,8.553,1.283c2.168,0.098,4.341,0.076,6.51,0.013c1.122-0.032,2.245-0.054,3.351-0.179
					c-0.165,0.075-0.33,0.152-0.494,0.23c-7.722,0.792-15.761,3.025-20.728,9.437c-0.434,0.56,0.034,1.441,0.761,1.096
					c3.938-1.865,7.97-3.545,11.946-5.327c1.991-0.892,3.981-1.786,5.971-2.678c0.257-0.115,0.519-0.228,0.784-0.339
					c0.519-0.136,1.043-0.253,1.566-0.313c-0.344,0.415-0.646,0.808-0.889,1.102c-1.724,2.083-3.262,4.324-4.543,6.707
					c-2.486,4.622-4.215,9.709-4.553,14.968c-0.014,0.213,0.081,0.306,0.208,0.318c0.057,0.222,0.424,0.219,0.626,0.049
					c1.482-1.249,2.369-3.317,3.078-5.077c0.789-1.957,1.406-3.981,2.167-5.95c1.469-3.805,3.17-7.513,5.108-11.099
					c0.131-0.154,0.263-0.307,0.4-0.456c-1.022,3.994-1.544,8.149-1.081,12.235c0.618,5.456,2.756,10.438,4.943,15.415
					c0.251,0.571,1.086-0.034,1.036-0.555c0.908-1.561,0.342-4.361,0.138-6.023c-0.31-2.522-0.875-5.008-1.419-7.487
					c-0.866-3.951-1.586-7.846-1.564-11.84c1.199,3.899,2.493,7.768,3.886,11.602c0.915,2.52,1.885,5.02,2.89,7.505
					c0.965,2.384,1.851,5.005,3.325,7.128c0.199,0.286,0.597,0.093,0.824-0.187c0.206-0.145,0.375-0.375,0.371-0.599
					c-0.117-5.88-1.504-11.538-3.714-16.97c-0.966-2.376-2.091-4.69-3.485-6.846c-0.385-0.595-0.803-1.252-1.26-1.905
					c-0.27-0.804-0.547-1.63-0.894-2.411c3.142,1.911,6.853,3.138,10.266,4.221c3.043,0.965,6.14,1.723,9.276,2.287
					c1.81,0.102,3.634-0.09,5.288-0.819C284.837,278.865,284.741,278.762,284.587,278.682z"/>
				<path style="fill:#72A600;" d="M271.715,264.828c0.627-0.525,1.214-1.089,1.742-1.699c0.146-0.169,0.118-0.531-0.179-0.41
					c-0.083-0.036-0.195-0.02-0.306,0.086c-0.039,0.038-0.081,0.073-0.121,0.111c-2.476,1.144-4.733,2.744-7.162,3.989
					c-1.715,0.879-3.474,1.582-5.244,2.271c1.507-1.502,2.829-3.236,3.885-4.883c1.379-2.151,2.281-4.327,2.852-6.663
					c0.263-0.806,0.471-1.665,0.478-2.487c0.047-0.325,0.091-0.652,0.129-0.985c0.031-0.276-0.228-0.23-0.383-0.088
					c-0.075,0.004-0.155,0.05-0.193,0.119c-0.729,1.361-1.125,2.875-1.809,4.263c-0.776,1.574-1.655,3.057-2.686,4.477
					c-1.016,1.399-2.139,2.71-3.316,3.976c-0.405,0.436-0.881,0.872-1.347,1.326c0.164-0.714,0.279-1.432,0.39-2.067
					c0.313-1.797,0.422-3.62,0.372-5.444c-0.049-1.796-0.271-3.606-0.745-5.342c-0.509-1.863-1.443-3.385-2.23-5.119
					c-0.145-0.319-0.658,0.064-0.54,0.351c0.003,0.008,0.006,0.016,0.009,0.024c-0.073,0.045-0.134,0.121-0.143,0.188
					c-0.219,1.63,0.033,3.318,0.204,4.944c0.176,1.677,0.335,3.356,0.471,5.037c0.137,1.681,0.253,3.364,0.348,5.048
					c0.037,0.655,0.047,1.328,0.063,2.002c-0.024,0.085-0.048,0.17-0.073,0.256c-1.286-1.421-2.849-2.588-4.583-3.478
					c-1.617-0.83-3.373-1.434-5.155-1.788c-0.89-0.177-1.75-0.247-2.605-0.274c-1.176-0.22-2.344-0.251-3.418,0.005
					c-0.134,0-0.267,0.001-0.403-0.001c-0.127-0.002-0.27,0.237-0.1,0.252c0.042,0.004,0.085,0.01,0.127,0.014
					c-0.019,0.078-0.002,0.156,0.079,0.199c1.364,0.712,3.025,0.855,4.466,1.41c1.45,0.558,2.847,1.269,4.151,2.112
					c0.998,0.645,1.934,1.379,2.798,2.194c-1.625-0.191-3.285-0.138-4.608-0.041c-2.085,0.154-4.171,0.577-6.141,1.284
					c-2.147,0.77-3.843,1.929-5.679,3.252c-0.383,0.276-0.395,0.977,0.217,0.794c5.007-1.501,10-2.451,15.12-2.507
					c0.542,0.038,1.085,0.083,1.626,0.146c0.713,0.083,1.423,0.214,2.133,0.329c0.015,0.022,0.029,0.044,0.044,0.066
					c-3.613,1.271-7.009,3.844-9.647,6.303c-3.76,3.506-6.254,7.926-8.033,12.7c-0.199,0.533,0.477,0.562,0.717,0.205
					c2.552-3.794,5.496-7.327,8.827-10.462c2.88-2.71,6.051-4.961,9.387-7.032c0.017,0.01,0.033,0.023,0.051,0.031
					c-0.57,0.981-1.052,2.004-1.456,3.06c-2.753,5.877-3.001,12.625-1.534,19.081c0.145,0.637,0.934,0.102,0.936-0.36
					c0.022-3.823,0.088-7.657,0.551-11.456c0.388-3.186,1.247-6.066,2.483-8.937c0.056,0.673,0.14,1.338,0.202,1.957
					c0.177,1.779,0.463,3.554,0.877,5.294c0.389,1.634,0.868,3.262,1.492,4.822c0.667,1.667,1.581,3.165,2.39,4.759
					c0.235,0.463,1.006-0.105,0.802-0.521c-0.366-0.748-0.697-1.531-0.998-2.334c0.063-0.075,0.104-0.164,0.088-0.248
					c-0.584-2.967-0.663-6.083-0.944-9.094c-0.165-1.763-0.344-3.726-0.833-5.547c1.13,0.789,2.188,1.677,3.155,2.659
					c2.019,2.051,3.85,4.48,4.945,7.154c0.214,0.522,1.044-0.1,0.873-0.567c-1.067-2.913-2.417-5.559-4.533-7.857
					c-1.072-1.164-2.368-2.385-3.783-3.389c0.041-0.015,0.082-0.029,0.123-0.045c1.243,0.074,2.488,0.098,3.735,0.087
					c2.965-0.027,5.754-0.563,8.673-0.982c0.303-0.043,0.484-0.608,0.084-0.561c-2.83,0.333-5.854,0.17-8.702,0.069
					c-0.19-0.007-0.38-0.017-0.571-0.025c0.685-0.343,1.358-0.707,2.013-1.101C267.906,268.36,269.875,266.695,271.715,264.828z"/>
			</g>
			<path style="fill:#B7D433;" d="M264.046,268.958c-0.641,0.216-1.31,0.355-1.972,0.496c-0.62,0.131-1.245,0.254-1.875,0.325
				c-0.633,0.071-1.268,0.096-1.905,0.107c-0.249,0.005-0.512,0.018-0.759-0.03c0.18-0.171,0.354-0.349,0.521-0.526
				c0.364-0.387,0.7-0.797,1.013-1.226c0.609-0.837,1.072-1.749,1.572-2.651c0.119-0.215-0.156-0.313-0.264-0.124
				c-0.494,0.864-1.17,1.626-1.858,2.342c-0.336,0.35-0.684,0.69-1.039,1.021c-0.095,0.089-0.195,0.174-0.294,0.26
				c0.074-0.229,0.125-0.468,0.17-0.7c0.083-0.429,0.15-0.861,0.201-1.294c0.101-0.863,0.126-1.734,0.092-2.602
				c-0.033-0.849-0.139-1.687-0.315-2.519c-0.086-0.409-0.195-0.812-0.32-1.212c-0.134-0.431-0.413-0.782-0.558-1.202
				c-0.051-0.149-0.286,0.027-0.246,0.16c0.13,0.431,0.092,0.921,0.17,1.367c0.072,0.414,0.132,0.831,0.184,1.248
				c0.102,0.81,0.157,1.631,0.165,2.447c0.009,0.816-0.046,1.635-0.142,2.445c-0.017,0.138-0.037,0.276-0.057,0.414
				c-0.137-0.341-0.285-0.676-0.439-1c-0.508-1.067-1.14-2.066-1.857-3.004c-1.502-1.964-3.367-3.61-5.372-5.044
				c-0.567-0.406-1.143-0.789-1.741-1.148c-0.316-0.19-0.643-0.367-0.979-0.518c-0.152-0.068-0.31-0.124-0.465-0.185
				c-0.188-0.075-0.433-0.107-0.597-0.207c-0.158-0.096-0.383,0.202-0.211,0.317c0.124,0.083,0.222,0.265,0.332,0.374
				c0.099,0.098,0.197,0.198,0.296,0.296c0.228,0.223,0.476,0.433,0.727,0.63c0.414,0.326,0.835,0.642,1.256,0.958
				c0.397,0.407,0.804,0.804,1.21,1.208c0.712,0.71,1.401,1.45,2.058,2.212c1.323,1.535,2.533,3.175,3.555,4.925
				c0.029,0.049,0.055,0.1,0.084,0.149c-0.547-0.221-1.114-0.392-1.694-0.506c-0.895-0.175-1.834-0.224-2.741-0.12
				c-0.477,0.054-0.963,0.15-1.419,0.3c-0.218,0.072-0.455,0.155-0.674,0.267c-0.245,0.041-0.486,0.1-0.721,0.182
				c-0.15,0.052-0.402,0.431-0.14,0.509c0.087,0.026,0.175,0.048,0.264,0.07c0.018,0.036,0.047,0.066,0.091,0.081
				c0.144,0.049,0.302,0.049,0.464,0.027c0.58,0.091,1.173,0.127,1.749,0.213c0.909,0.136,1.809,0.355,2.679,0.649
				c0.863,0.291,1.7,0.66,2.497,1.102c0.27,0.15,0.535,0.311,0.796,0.476c-0.285,0.05-0.57,0.097-0.854,0.154
				c-0.951,0.192-1.89,0.431-2.82,0.707c-0.838,0.249-1.67,0.519-2.458,0.901c-0.369,0.179-0.746,0.364-1.077,0.607
				c-0.367,0.27-0.647,0.59-0.971,0.904c-0.319,0.309,0.038,0.637,0.367,0.371c0.278-0.225,0.658-0.366,0.977-0.526
				c0.356-0.178,0.71-0.349,1.083-0.493c0.76-0.292,1.544-0.529,2.33-0.744c0.833-0.228,1.678-0.422,2.525-0.59
				c0.391-0.078,0.792-0.131,1.193-0.188c-0.39,0.528-0.753,1.079-1.085,1.644c-0.855,1.454-1.47,3.025-1.926,4.647
				c-0.097,0.346,0.351,0.327,0.447,0.058c0.513-1.434,1.22-2.771,2.045-4.05c0.28-0.435,0.583-0.854,0.897-1.266
				c0.012,0.072,0.023,0.145,0.036,0.217c0.175,0.998,0.39,1.988,0.627,2.972c0.235,0.976,0.486,1.948,0.787,2.906
				c0.301,0.957,0.692,1.879,1.006,2.831c0.104,0.315,0.608-0.055,0.521-0.339c-0.292-0.954-0.466-1.952-0.683-2.925
				c-0.212-0.953-0.429-1.904-0.619-2.862c-0.19-0.955-0.364-1.915-0.515-2.877c-0.019-0.121-0.034-0.242-0.051-0.363
				c0.855,0.986,1.679,2.006,2.43,3.07c0.484,0.686,0.908,1.431,1.152,2.239c0.27,0.892,0.314,1.849,0.378,2.773
				c0.013,0.187,0.22,0.232,0.368,0.179c0.185-0.066,0.294-0.246,0.295-0.434c0.011-1.614-0.117-3.14-0.88-4.592
				c-0.735-1.398-1.755-2.658-2.757-3.872c-0.148-0.179-0.299-0.357-0.45-0.534c0.072-0.063,0.138-0.134,0.2-0.213
				c0.56-0.028,1.119-0.093,1.672-0.185c0.743-0.123,1.484-0.273,2.205-0.493c0.754-0.231,1.458-0.553,2.173-0.882
				C264.39,269.342,264.449,268.822,264.046,268.958z"/>
		</g>
		<g>
			<g>
				<path style="fill:#426519;" d="M285.337,247.855c-5.216-2.693-10.711-4.838-16.374-6.37c-0.496-0.163-0.995-0.321-1.497-0.468
					c-1.174-0.344-2.363-0.638-3.563-0.862c5.804-1.493,11.652-2.803,17.541-3.917c0.607-0.269,1.198-0.567,1.767-0.902
					c-2.295-0.484-4.65-0.696-6.994-0.682c-0.37,0.002-0.741,0.012-1.111,0.026c-3.226,0.476-6.404,0.96-9.574,1.785
					c-0.187,0.049-0.382,0.097-0.576,0.146c1.411-1.281,2.652-2.775,3.743-4.222c2.786-3.695,5.331-7.683,7.591-11.717
					c0.572-1.021-0.435-1.535-1.237-0.868c-0.51,0.424-1.011,0.86-1.508,1.301c-0.109,0.021-0.219,0.079-0.311,0.189
					c-0.105,0.125-0.211,0.249-0.316,0.374c-2.33,2.126-4.499,4.433-6.459,6.902c-0.778,0.98-1.492,1.983-2.167,3.003
					c0.237-0.743,0.461-1.49,0.683-2.233c1.375-4.584,2.634-9.184,3.517-13.891c0.167-0.887-0.983-0.928-1.434-0.421
					c-2.941,3.309-4.842,7.305-6.129,11.515c-0.586,1.919-1.202,3.891-1.562,5.878c-0.273-1.341-0.642-2.651-1.13-3.902
					c-0.776-1.988-1.85-3.833-3.16-5.517c-0.873-1.122-1.942-2.48-3.292-3.104c-0.46-0.643-0.92-1.285-1.37-1.929
					c-0.525-0.751-1.699,0.496-1.45,1.17c1.158,3.14,2.374,6.276,3.776,9.319c-0.874-1.08-1.844-2.082-2.75-2.983
					c-2.059-2.047-4.493-4.23-7.223-5.322c-0.18-0.072-0.372-0.041-0.538,0.05c0.033,0.122,0.062,0.244,0.096,0.366
					c0.141,0.502,0.298,0.998,0.463,1.492c0.119,0.151,0.235,0.307,0.347,0.471c0.604,1.562,1.551,2.996,2.444,4.407
					c1.003,1.584,2.046,3.145,3.17,4.646c-0.052-0.033-0.103-0.068-0.155-0.101c-2.993-1.924-6.417-3.777-9.935-4.482
					c-0.462-0.092-1.118,0.659-0.705,1.051c0.996,0.947,1.814,2.052,2.843,2.972c1.076,0.962,2.248,1.804,3.456,2.591
					c1.187,0.774,2.394,1.509,3.608,2.23c-0.533-0.1-1.068-0.188-1.607-0.259c-4.345-0.573-8.791-0.278-13.009,0.917
					c-0.304,0.086-0.632,0.455-0.76,0.833c0.453,0.33,0.928,0.63,1.416,0.903c0.985,0.55,2.025,1.002,3.091,1.382
					c2.777,0.753,5.629,1.15,8.553,1.283c2.168,0.098,4.341,0.076,6.51,0.013c1.122-0.032,2.245-0.054,3.351-0.179
					c-0.165,0.075-0.33,0.153-0.494,0.23c-7.722,0.792-15.761,3.025-20.728,9.437c-0.434,0.561,0.034,1.441,0.761,1.096
					c3.938-1.865,7.97-3.545,11.946-5.327c1.991-0.892,3.981-1.786,5.971-2.678c0.257-0.115,0.519-0.228,0.784-0.339
					c0.519-0.136,1.043-0.253,1.566-0.313c-0.344,0.415-0.646,0.808-0.889,1.102c-1.724,2.083-3.262,4.324-4.543,6.707
					c-2.486,4.622-4.215,9.709-4.553,14.968c-0.014,0.213,0.081,0.306,0.208,0.318c0.057,0.222,0.424,0.219,0.626,0.049
					c1.482-1.249,2.369-3.317,3.078-5.077c0.789-1.957,1.406-3.981,2.167-5.95c1.469-3.804,3.17-7.513,5.108-11.099
					c0.131-0.154,0.263-0.307,0.4-0.456c-1.022,3.994-1.544,8.149-1.081,12.235c0.618,5.456,2.756,10.438,4.943,15.415
					c0.251,0.571,1.086-0.035,1.036-0.555c0.908-1.561,0.342-4.361,0.138-6.023c-0.31-2.522-0.875-5.008-1.419-7.487
					c-0.866-3.951-1.586-7.846-1.564-11.841c1.199,3.899,2.493,7.768,3.886,11.603c0.915,2.52,1.885,5.02,2.89,7.505
					c0.965,2.384,1.851,5.005,3.325,7.128c0.199,0.286,0.597,0.093,0.824-0.187c0.206-0.145,0.375-0.375,0.371-0.599
					c-0.117-5.88-1.504-11.538-3.713-16.97c-0.967-2.376-2.091-4.69-3.485-6.846c-0.385-0.595-0.803-1.252-1.26-1.905
					c-0.27-0.804-0.547-1.63-0.894-2.411c3.142,1.911,6.853,3.138,10.266,4.221c3.043,0.965,6.14,1.723,9.276,2.287
					c1.81,0.102,3.634-0.09,5.288-0.819C285.587,248.038,285.491,247.935,285.337,247.855z"/>
				<path style="fill:#72A600;" d="M272.465,234.001c0.627-0.525,1.214-1.089,1.742-1.699c0.146-0.169,0.118-0.531-0.179-0.41
					c-0.083-0.036-0.195-0.02-0.306,0.086c-0.039,0.038-0.081,0.074-0.121,0.111c-2.475,1.144-4.733,2.744-7.162,3.989
					c-1.715,0.879-3.474,1.582-5.244,2.271c1.507-1.502,2.829-3.236,3.885-4.883c1.379-2.151,2.281-4.327,2.852-6.663
					c0.263-0.806,0.471-1.665,0.478-2.487c0.047-0.325,0.091-0.653,0.129-0.985c0.031-0.276-0.228-0.23-0.383-0.088
					c-0.075,0.004-0.155,0.05-0.193,0.119c-0.728,1.361-1.124,2.875-1.809,4.263c-0.776,1.574-1.655,3.057-2.686,4.477
					c-1.016,1.399-2.139,2.71-3.316,3.976c-0.405,0.436-0.881,0.872-1.347,1.326c0.164-0.714,0.279-1.432,0.39-2.067
					c0.313-1.797,0.422-3.62,0.372-5.444c-0.049-1.796-0.271-3.606-0.745-5.342c-0.509-1.863-1.442-3.385-2.23-5.119
					c-0.145-0.319-0.658,0.064-0.54,0.351c0.003,0.008,0.006,0.016,0.009,0.024c-0.072,0.045-0.134,0.121-0.143,0.188
					c-0.219,1.63,0.033,3.318,0.204,4.944c0.176,1.677,0.335,3.356,0.471,5.037c0.137,1.681,0.253,3.364,0.348,5.048
					c0.037,0.655,0.047,1.328,0.063,2.002c-0.024,0.085-0.048,0.17-0.073,0.256c-1.286-1.421-2.849-2.588-4.583-3.479
					c-1.617-0.83-3.373-1.434-5.155-1.788c-0.89-0.177-1.75-0.247-2.605-0.274c-1.176-0.22-2.344-0.251-3.418,0.005
					c-0.134,0-0.267,0.001-0.403-0.001c-0.127-0.002-0.27,0.237-0.1,0.252c0.042,0.004,0.085,0.01,0.127,0.014
					c-0.019,0.078-0.003,0.156,0.079,0.199c1.364,0.712,3.025,0.855,4.466,1.41c1.45,0.558,2.847,1.269,4.151,2.112
					c0.998,0.645,1.935,1.379,2.798,2.193c-1.625-0.191-3.285-0.138-4.608-0.041c-2.085,0.154-4.171,0.577-6.141,1.284
					c-2.147,0.77-3.844,1.929-5.679,3.252c-0.383,0.276-0.395,0.978,0.217,0.794c5.007-1.501,10-2.451,15.12-2.507
					c0.542,0.038,1.084,0.083,1.626,0.146c0.714,0.083,1.423,0.214,2.134,0.329c0.014,0.022,0.029,0.044,0.044,0.066
					c-3.613,1.271-7.009,3.844-9.647,6.303c-3.76,3.506-6.254,7.926-8.033,12.7c-0.199,0.533,0.476,0.562,0.717,0.205
					c2.552-3.794,5.496-7.327,8.827-10.462c2.88-2.71,6.051-4.961,9.387-7.032c0.017,0.01,0.033,0.023,0.051,0.031
					c-0.57,0.981-1.052,2.004-1.456,3.06c-2.753,5.877-3.001,12.625-1.534,19.081c0.145,0.637,0.934,0.102,0.936-0.36
					c0.022-3.823,0.088-7.657,0.551-11.456c0.388-3.186,1.247-6.066,2.483-8.937c0.056,0.673,0.14,1.338,0.202,1.957
					c0.177,1.779,0.463,3.554,0.877,5.294c0.389,1.634,0.868,3.262,1.492,4.822c0.667,1.667,1.58,3.165,2.39,4.759
					c0.235,0.463,1.006-0.105,0.802-0.521c-0.366-0.748-0.697-1.53-0.998-2.334c0.063-0.075,0.104-0.164,0.088-0.248
					c-0.584-2.967-0.663-6.083-0.944-9.094c-0.165-1.763-0.344-3.726-0.833-5.547c1.13,0.789,2.188,1.677,3.154,2.659
					c2.019,2.051,3.85,4.48,4.945,7.154c0.214,0.522,1.044-0.1,0.873-0.567c-1.067-2.913-2.417-5.559-4.533-7.857
					c-1.072-1.164-2.368-2.385-3.783-3.389c0.041-0.015,0.083-0.029,0.123-0.045c1.243,0.074,2.488,0.098,3.735,0.087
					c2.965-0.027,5.754-0.564,8.673-0.982c0.303-0.043,0.483-0.608,0.084-0.561c-2.831,0.333-5.854,0.17-8.702,0.069
					c-0.19-0.007-0.38-0.016-0.571-0.025c0.685-0.343,1.358-0.707,2.013-1.101C268.656,237.533,270.626,235.868,272.465,234.001z"/>
			</g>
			<path style="fill:#B7D433;" d="M264.796,238.131c-0.641,0.217-1.31,0.355-1.972,0.495c-0.62,0.131-1.245,0.254-1.875,0.325
				c-0.633,0.071-1.268,0.096-1.905,0.107c-0.249,0.005-0.512,0.018-0.759-0.03c0.181-0.171,0.354-0.349,0.521-0.526
				c0.364-0.387,0.7-0.797,1.013-1.226c0.609-0.837,1.072-1.749,1.572-2.651c0.119-0.215-0.156-0.313-0.264-0.124
				c-0.494,0.864-1.17,1.626-1.858,2.342c-0.336,0.35-0.684,0.691-1.039,1.021c-0.095,0.089-0.195,0.174-0.294,0.26
				c0.074-0.229,0.125-0.468,0.17-0.7c0.083-0.429,0.15-0.861,0.201-1.294c0.101-0.863,0.126-1.734,0.092-2.602
				c-0.034-0.85-0.139-1.687-0.315-2.519c-0.086-0.409-0.195-0.812-0.32-1.212c-0.134-0.431-0.413-0.782-0.558-1.202
				c-0.052-0.149-0.286,0.027-0.246,0.16c0.13,0.431,0.092,0.921,0.17,1.367c0.072,0.414,0.132,0.831,0.184,1.248
				c0.102,0.81,0.157,1.631,0.165,2.447c0.009,0.816-0.046,1.635-0.142,2.445c-0.016,0.138-0.037,0.276-0.057,0.414
				c-0.137-0.341-0.285-0.676-0.439-1c-0.508-1.067-1.14-2.066-1.857-3.004c-1.502-1.964-3.367-3.61-5.372-5.044
				c-0.567-0.406-1.143-0.789-1.741-1.148c-0.316-0.19-0.643-0.367-0.979-0.518c-0.152-0.068-0.31-0.124-0.465-0.185
				c-0.188-0.074-0.433-0.106-0.597-0.207c-0.158-0.096-0.383,0.202-0.211,0.317c0.123,0.083,0.222,0.265,0.332,0.374
				c0.099,0.098,0.197,0.198,0.297,0.296c0.228,0.223,0.476,0.433,0.727,0.63c0.414,0.326,0.835,0.642,1.256,0.958
				c0.397,0.407,0.805,0.804,1.21,1.208c0.712,0.71,1.401,1.45,2.058,2.212c1.322,1.535,2.533,3.175,3.555,4.925
				c0.029,0.049,0.055,0.1,0.084,0.149c-0.547-0.221-1.115-0.392-1.694-0.506c-0.895-0.175-1.834-0.224-2.741-0.12
				c-0.477,0.055-0.963,0.15-1.419,0.3c-0.218,0.072-0.455,0.155-0.674,0.267c-0.245,0.041-0.486,0.1-0.721,0.182
				c-0.15,0.052-0.402,0.431-0.14,0.509c0.087,0.026,0.175,0.048,0.264,0.07c0.018,0.036,0.047,0.066,0.091,0.081
				c0.144,0.049,0.302,0.049,0.464,0.027c0.58,0.09,1.173,0.127,1.749,0.213c0.909,0.136,1.809,0.355,2.679,0.649
				c0.863,0.291,1.7,0.66,2.497,1.102c0.27,0.15,0.534,0.311,0.796,0.476c-0.285,0.05-0.57,0.097-0.854,0.154
				c-0.951,0.192-1.89,0.431-2.82,0.707c-0.838,0.249-1.67,0.519-2.458,0.901c-0.369,0.179-0.746,0.364-1.077,0.607
				c-0.367,0.27-0.647,0.59-0.971,0.904c-0.319,0.309,0.038,0.637,0.367,0.371c0.278-0.225,0.658-0.366,0.978-0.526
				c0.356-0.178,0.71-0.35,1.082-0.493c0.76-0.293,1.544-0.529,2.33-0.744c0.833-0.228,1.678-0.422,2.525-0.59
				c0.391-0.077,0.792-0.131,1.193-0.188c-0.391,0.528-0.753,1.078-1.086,1.644c-0.855,1.454-1.47,3.025-1.926,4.647
				c-0.097,0.346,0.351,0.327,0.447,0.058c0.513-1.434,1.22-2.771,2.045-4.05c0.28-0.435,0.583-0.854,0.897-1.266
				c0.012,0.072,0.023,0.145,0.036,0.217c0.175,0.998,0.39,1.988,0.627,2.972c0.235,0.976,0.486,1.948,0.787,2.906
				c0.301,0.957,0.692,1.879,1.006,2.831c0.104,0.315,0.608-0.056,0.521-0.339c-0.292-0.954-0.466-1.952-0.683-2.925
				c-0.212-0.953-0.429-1.904-0.619-2.862c-0.19-0.955-0.364-1.915-0.516-2.877c-0.019-0.121-0.034-0.242-0.051-0.363
				c0.855,0.986,1.679,2.006,2.43,3.07c0.484,0.686,0.908,1.431,1.152,2.239c0.27,0.892,0.314,1.848,0.378,2.773
				c0.013,0.187,0.22,0.232,0.368,0.179c0.185-0.066,0.294-0.246,0.295-0.434c0.011-1.614-0.117-3.14-0.88-4.592
				c-0.735-1.398-1.755-2.658-2.757-3.872c-0.148-0.179-0.299-0.357-0.45-0.534c0.072-0.063,0.137-0.134,0.2-0.213
				c0.56-0.028,1.119-0.093,1.672-0.185c0.743-0.123,1.484-0.273,2.205-0.493c0.755-0.231,1.458-0.553,2.173-0.882
				C265.141,238.515,265.199,237.995,264.796,238.131z"/>
		</g>
	</g>
</svg>